<?xml version="1.0" standalone="no"?><!DOCTYPE svg PUBLIC "-//W3C//DTD SVG 1.1//EN" "http://www.w3.org/Graphics/SVG/1.1/DTD/svg11.dtd"><svg t="1765444711243" class="icon" viewBox="0 0 1024 1024" version="1.1" xmlns="http://www.w3.org/2000/svg" p-id="14096" xmlns:xlink="http://www.w3.org/1999/xlink" width="128" height="128"><path d="M509.529739 64.989153c-246.639307 0-447.303512 200.664206-447.303512 447.303513s200.664206 447.303512 447.303512 447.303512 447.303512-200.664206 447.303512-447.303512S756.169045 64.989153 509.529739 64.989153z m0 838.694597c-215.816301 0-391.391085-175.574784-391.391085-391.391084S293.713438 120.901581 509.529739 120.901581s391.391085 175.574784 391.391085 391.391085-175.574784 391.391085-391.391085 391.391084z" p-id="14097" fill="#3b82f6"></path><path d="M620.928898 355.723747l-0.104377-0.104377c-14.945387-14.827707-39.080064-14.734586-53.907771 0.209778L356.725564 567.666834c-9.613962 9.613962-14.983249 22.682605-14.926967 36.332486l0.23843 58.573024c0.037862 9.474792 7.750521 17.187451 17.225313 17.225313l58.573024 0.238431c13.650905 0.056282 26.719548-5.314029 36.332486-14.926968l211.837686-210.191186 0.104377-0.104378c14.888082-14.888082 14.888082-39.021735 0-53.909817l-45.181015-45.179992z m23.562649 77.970816l-30.825053 30.580483c-2.973728 3.009544-7.817036 3.03001-10.836813 0.022512l-45.327348-45.509496c-2.988054-2.99931-2.988054-7.861038 0.020467-10.880815l30.825052-30.580483c2.973728-3.01159 7.817036-3.03001 10.836813-0.022512l45.328371 45.509496c2.987031 2.997264 2.987031 7.860015-0.021489 10.880815z" p-id="14098" fill="#3b82f6"></path></svg>