<?xml version="1.0" encoding="UTF-8"?>
<!DOCTYPE svg PUBLIC "-//W3C//DTD SVG 1.1//EN" "http://www.w3.org/Graphics/SVG/1.1/DTD/svg11.dtd">
<svg xmlns="http://www.w3.org/2000/svg" version="1.1" width="844px" height="953px" style="shape-rendering:geometricPrecision; text-rendering:geometricPrecision; image-rendering:optimizeQuality; fill-rule:evenodd; clip-rule:evenodd" xmlns:xlink="http://www.w3.org/1999/xlink">
<g><path style="opacity:0.917" fill="#2b937b" d="M 423.5,952.5 C 421.833,952.5 420.167,952.5 418.5,952.5C 279.731,866.941 140.731,781.608 1.5,696.5C 0.333338,546.834 0.166672,397.168 1,247.5C 140.852,165.907 280.852,84.574 421,3.5C 560.735,84.6194 700.569,165.619 840.5,246.5C 841.667,396.499 841.833,546.499 841,696.5C 701.662,781.697 562.495,867.03 423.5,952.5 Z M 420.5,16.5 C 557.054,95.362 693.554,174.362 830,253.5C 830.833,399.168 830.667,544.834 829.5,690.5C 693.455,773.714 557.288,856.714 421,939.5C 284.413,856.579 148.08,773.246 12,689.5C 11.1667,544.166 11.3333,398.832 12.5,253.5C 148.563,174.473 284.563,95.4733 420.5,16.5 Z"/></g>
<g><path style="opacity:0.99" fill="#2b937b" d="M 405.5,79.5 C 415.66,78.8989 424.993,81.3989 433.5,87C 541.006,146.92 648.672,206.587 756.5,266C 771.876,278.218 774.376,292.718 764,309.5C 756.198,318.303 748.031,326.803 739.5,335C 731.331,342.35 721.997,344.35 711.5,341C 706.084,338.861 700.751,336.528 695.5,334C 620.014,292.426 545.014,250.093 470.5,207C 461.315,202.212 452.315,202.545 443.5,208C 431.029,218.069 418.029,227.402 404.5,236C 403.167,237 403.167,238 404.5,239C 483.173,288.668 561.506,338.834 639.5,389.5C 626.215,399.149 612.548,408.316 598.5,417C 549.328,447.089 499.661,476.423 449.5,505C 411.716,520.516 375.716,517.183 341.5,495C 313.177,475.503 284.51,456.503 255.5,438C 192.167,398.667 128.833,359.333 65.5,320C 46.8519,306.012 44.6852,289.846 59,271.5C 86.3842,243.963 116.551,240.463 149.5,261C 221.473,306.29 294.473,349.957 368.5,392C 376.617,394.505 384.284,393.505 391.5,389C 405.335,379.579 419.668,370.913 434.5,363C 435.833,362.333 435.833,361.667 434.5,361C 351.167,307.667 267.833,254.333 184.5,201C 257.082,158.379 330.749,117.879 405.5,79.5 Z"/></g>
<g><path style="opacity:0.989" fill="#2b937b" d="M 51.5,385.5 C 151.209,444.376 250.542,503.876 349.5,564C 382.673,583.269 417.007,585.602 452.5,571C 486.48,553.347 519.813,534.68 552.5,515C 624.841,470.825 697.841,427.659 771.5,385.5C 772.281,386.729 772.781,388.062 773,389.5C 773.749,424.843 773.415,460.177 772,495.5C 769.635,501.202 765.801,505.702 760.5,509C 692.905,548.936 625.571,589.269 558.5,630C 523.6,651.202 487.934,671.202 451.5,690C 420.787,701.331 390.787,699.665 361.5,685C 262.336,627.919 163.336,570.586 64.5,513C 56.2093,506.918 51.7093,498.752 51,488.5C 51.428,454.185 51.5947,419.851 51.5,385.5 Z"/></g>
<g><path style="opacity:0.989" fill="#2b937b" d="M 51.5,545.5 C 122.106,585.802 191.773,627.635 260.5,671C 297.417,693.567 335.084,714.9 373.5,735C 398.656,743.242 423.323,741.909 447.5,731C 481.924,714.623 515.591,696.956 548.5,678C 613.665,639.585 678.665,600.918 743.5,562C 752.547,556.476 761.88,551.476 771.5,547C 773.891,546.713 776.224,546.213 778.5,545.5C 778.833,562.5 779.167,579.5 779.5,596.5C 779.614,616.195 779.114,635.862 778,655.5C 775.886,659.948 772.719,663.448 768.5,666C 666.76,726.066 564.76,785.732 462.5,845C 426.335,863.362 390.668,862.362 355.5,842C 256.672,784.422 158.338,726.089 60.5,667C 53.6262,661.076 50.7928,653.576 52,644.5C 51.5,611.502 51.3334,578.502 51.5,545.5 Z"/></g>
</svg>
