<?xml version="1.0" encoding="UTF-8"?>
<svg width="100px" height="100px" viewBox="0 0 100 100" version="1.1" xmlns="http://www.w3.org/2000/svg" xmlns:xlink="http://www.w3.org/1999/xlink">
    <title>空状态-dark</title>
    <g id="移动端" stroke="none" stroke-width="1" fill="none" fill-rule="evenodd">
        <g id="m-1-3-1登录dark" transform="translate(-137, -80)">
            <g id="编组" transform="translate(30, 80)">
                <g id="空状态-dark" transform="translate(107, 0)">
                    <rect id="矩形" fill="#000000" opacity="0" x="0" y="0" width="100" height="100"></rect>
                    <g id="编组备份-2" transform="translate(11.78, 15.8464)">
                        <rect id="矩形" stroke="#888888" fill="#141414" x="-6.560331e-13" y="36.4444444" width="76.4444444" height="19.5555556" rx="5.33333333"></rect>
                        <rect id="矩形" stroke="#888888" fill="#141414" transform="translate(47.1111, 10.2222) rotate(15) translate(-47.1111, -10.2222)" x="45.3333333" y="0.888888889" width="3.55555556" height="18.6666667" rx="1.77777778"></rect>
                        <circle id="椭圆形" fill="#91CAFF" cx="48" cy="6.22222222" r="6.22222222"></circle>
                        <path d="M48,-1.07175441e-13 C51.4364384,-1.07175441e-13 54.2222222,2.78578378 54.2222222,6.22222222 C54.2222222,9.65866067 51.4364384,12.4444444 48,12.4444444 C44.5635616,12.4444444 41.7777778,9.65866067 41.7777778,6.22222222 C41.7777778,2.78578378 44.5635616,-1.07175441e-13 48,-1.07175441e-13 Z" id="路径" stroke="#888888" fill="#141414" fill-rule="nonzero"></path>
                        <path d="M48,2.5 C49.0278633,2.5 49.9584188,2.91662391 50.6320086,3.59021365 C51.3055983,4.26380338 51.7222222,5.19435894 51.7222222,6.22222222 C51.7222222,7.25008551 51.3055983,8.18064106 50.6320086,8.8542308 C49.9584188,9.52782053 49.0278633,9.94444444 48,9.94444444 C46.9721367,9.94444444 46.0415812,9.52782053 45.3679914,8.8542308 C44.6944017,8.18064106 44.2777778,7.25008551 44.2777778,6.22222222 C44.2777778,5.19435894 44.6944017,4.26380338 45.3679914,3.59021365 C46.0415812,2.91662391 46.9721367,2.5 48,2.5 Z" id="路径" stroke="#888888" fill="#0044A4" fill-rule="nonzero"></path>
                        <path d="M38.1614435,15.1111111 C47.8860399,15.2345679 57.6106363,16.9629629 62.8376069,19.6790123 C70.4957266,23.6296296 73.7777778,31.9012345 73.7777778,47.4567902 C73.7777778,60.0493827 70.4957265,69.1851853 64.7825261,72.3950617 C57.3675214,76.0987655 50.6818613,77.3333333 38.1614435,77.3333333 C25.6410256,77.3333333 18.8338082,75.9753086 11.5403609,72.1481482 C5.8271605,68.9382716 2.66666667,59.8024692 2.66666667,47.2098765 C2.66666667,31.654321 5.94871794,23.2592593 13.6068376,19.4320987 C18.7122507,16.8395062 28.4368471,15.1111111 38.1614435,15.1111111 Z" id="路径" stroke="#888888" fill="#141414" fill-rule="nonzero"></path>
                        <path d="M38.1678081,18.6111516 C47.5173994,18.7301732 56.6795597,20.4234657 61.2224846,22.7840723 C64.3905228,24.418388 66.6867032,27.0451145 68.1748631,31.1495678 C69.5962648,35.0698972 70.2777778,40.3615711 70.277774,47.4587387 L70.2757061,47.9883705 C70.1886556,59.1180703 67.3266983,66.7539368 63.2764516,69.2217333 C56.1505424,72.7241723 50.0156974,73.8333333 38.1604978,73.8333324 L37.5183041,73.8321169 C26.1778371,73.7887313 20.0289538,72.5747753 13.5350816,69.2401932 C11.2233052,67.9360304 9.33714949,65.2535332 8.05721392,61.3605049 C6.84407566,57.670646 6.16666667,52.8862888 6.16666667,47.2098765 C6.16666667,40.1017196 6.85254203,34.7849902 8.26852889,30.859092 C9.75368135,26.7414285 12.0397102,24.1280046 15.1686005,22.5643469 C19.7104498,20.2580328 28.9526073,18.6111111 38.1678081,18.6111516 Z" id="路径" stroke="#888888" fill="#272E47" fill-rule="nonzero"></path>
                        <path d="M37.6322243,23.6129512 C46.7346332,23.7280601 55.1187535,25.2471659 58.9196622,27.2221996 C61.0996194,28.3468 62.6918673,30.2960816 63.7404361,33.5671157 C64.7733335,36.789263 65.2777778,41.263858 65.2777923,47.4529732 C65.2034954,57.1852756 63.1551838,63.3690078 60.7424678,64.9096347 C54.6683319,67.876323 49.2157743,68.8333333 38.1623406,68.8333341 L37.5546343,68.8322447 C27.0156595,68.7939775 21.5730634,67.7462952 15.8204106,64.7924031 C13.222673,63.2482877 11.1666667,56.8867766 11.1666667,47.2098765 C11.1666667,41.0199953 11.6734763,36.5313946 12.6919049,33.3085283 C13.7275298,30.0312434 15.2893415,28.0936104 17.4094982,27.0340464 C21.159549,25.1299035 29.3707742,23.6723207 37.6322243,23.6129512 Z" id="路径" stroke="#272E47" fill="#0044A4" fill-rule="nonzero"></path>
                        <g id="code-logo备份" transform="translate(16.8889, 33.7778)" fill="#FFFFFF">
                            <rect id="矩形" opacity="0" x="0" y="0" width="28.4444444" height="28.4444444"></rect>
                            <path d="M26.6666667,24 L26.6666667,24.8888889 C26.6666667,25.3798087 26.2686976,25.7777778 25.7777778,25.7777778 L16.8888889,25.7777778 C16.3979691,25.7777778 16,25.3798087 16,24.8888889 L16,24 C16,23.5090802 16.3979691,23.1111111 16.8888889,23.1111111 L25.7777778,23.1111111 C26.2686976,23.1111111 26.6666667,23.5090802 26.6666667,24 Z M6.08641882,4.16939966 L11.8359538,10.04485 C12.1741062,10.390408 12.1740521,10.9428724 11.835832,11.2883642 L6.08390671,17.1639553 C5.74876348,17.5063041 5.20259914,17.5214585 4.84898793,17.1982205 L4.22130915,16.6244559 C3.85896369,16.293234 3.83373311,15.7309865 4.16495509,15.368641 C4.16787969,15.3654416 4.17082765,15.3622636 4.17379875,15.3591073 L8.01747338,11.2758483 C8.33963903,10.9336014 8.3396751,10.399698 8.0175557,10.0574075 L4.17520723,5.97445206 C3.83876826,5.61694536 3.85584703,5.05439123 4.21335374,4.71795226 C4.21655724,4.71493754 4.21978307,4.71194665 4.22303097,4.70897983 L4.85160932,4.13479898 C5.20529454,3.81172186 5.75138031,3.82702377 6.08641882,4.16939966 Z" id="形状结合" fill-rule="nonzero"></path>
                        </g>
                    </g>
                </g>
            </g>
        </g>
    </g>
</svg>