<svg xmlns="http://www.w3.org/2000/svg" viewBox="0 0 1024 1024" width="16" height="16"><path d="M855.673849 554.023043c-5.716593 2.797482-11.676446 5.230075-17.39304 8.027557-11.919705 5.716593-23.839411 8.392446-35.880746 0.851407l0.243259-0.243259c13.500891-3.770519 27.4883-8.149186 41.840599-11.433187 3.284-0.851408 7.297779 1.581185 11.189928 2.797482zM580.912475 834.37938c2.554223 6.81126 10.703409 17.757928 8.270817 25.177337-4.378667 12.892743-19.095855 10.46015-30.164153 8.635705-18.244447-2.797482-36.124005-7.297779-54.246823-11.311557-7.662668-4.500297-15.446965-9.243853-23.352892-13.98741 16.541632 0 32.475116 0.973037 48.28697-0.243259 15.933484-1.337926 31.745338-4.986816 51.206081-8.270816zM548.31573 787.308706c5.230075 5.959853 8.878964 13.257632 13.987409 21.406818-47.192303 6.081482-91.343865 2.797482-133.306093-17.14978-12.284594-5.838223-23.961041-13.257632-36.002375-19.947262-4.257038-9.973631-16.541632-33.448153-20.9203-43.665043 27.4883 12.162965 52.544008 25.907115 79.42416 34.29956 26.880152 8.392446 55.706378 11.311557 83.437938 17.14978 5.108445 1.216296 9.852001 4.013778 13.379261 7.905927zM537.97721 711.411807c-1.946074 10.46015-3.892149 20.312151-5.838223 30.407411-1.337926 0.364889-2.675852 1.581185-3.892149 1.337927-64.950232-12.284594-122.724314-39.043117-170.038247-87.330087-2.189334-2.189334-4.257038-5.838223-4.257037-8.757335-0.486519-21.041929-0.12163-42.205488-0.12163-63.490676 1.581185-0.243259 3.284-0.729778 4.865186-0.973037 36.245635 76.991567 103.020311 109.466683 179.2821 128.805797zM547.585952 686.720988c-2.189334 0.486519-7.176149 3.284-9.365483 1.824445-39.772895-25.420596-82.221642-47.070673-112.507423-85.627272-18.974225-24.08267-28.218078-52.422378-32.718375-82.70816-1.459556-9.365483 1.702815-15.203706 9.365482-18.730965 12.041335-5.594964 24.2043-10.703409 37.461932-16.420003 7.662668 20.433781 13.74415 39.529635 22.258225 57.774083 15.446965 33.204894 31.258819 66.409787 49.260007 98.398384 8.878964 16.055113 22.866374 29.069486 36.245635 45.489488z"  ></path><path d="M856.403626 554.266302c-0.243259 14.595558 1.702815 29.677634-1.337926 43.665044-7.05452 33.204894-22.501485 63.855565-44.881339 89.276161-27.123411 30.89393-63.369046 31.745338-94.749496 14.473928-23.352892-12.892743-43.786673-31.502079-65.801639-47.800452-6.081482 9.852001-15.082076 22.501485-22.258225 36.245635-6.689631 13.014372 3.162371 19.217484 16.420002 25.907115-15.690224-0.364889-22.379855-8.392446-25.907115-18.001188-6.93289-18.974225-17.757928-36.367265-31.745338-50.962822-20.190521-21.406818-12.041335-44.638081 0.851408-67.504454-11.311557-4.865186-22.258225-9.243853-32.718375-14.352298-14.717187-7.05452-24.325929-17.757928-23.961041-36.002376 0.608148-26.028745 0.12163-52.057489 0.12163-80.275567-17.27141 4.013778-36.610524 7.541038-55.34149 13.379261-32.231857 9.973631-64.828602 19.582373-95.844162 32.840005-35.637487 15.203706-71.883122 10.46015-108.372015 8.514075-2.919112-0.12163-7.541038-4.500297-8.027557-7.662668-8.514075-38.191709-30.042523-67.382825-57.895712-93.04668-18.244447-16.906521-31.13719-37.218672-37.097042-62.517638-7.662668-32.596745 1.702815-59.355268 23.96104-82.343272 3.770519-3.892149 10.581779-6.324742 16.176743-6.446371 39.772895-0.973037 76.991567 9.852001 112.385794 28.096449 8.392446 4.378667 17.14978 7.784297 25.663856 11.676446 0.729778-1.459556 1.337926-2.797482 1.946074-4.257038-29.191115-14.838817-58.382231-29.799264-85.627272-43.786673 15.325336-19.217484 31.258819-39.894524 48.043711-59.963416 18.609336-22.136596 42.448747-18.001188 66.166528-12.041335 50.719563 12.527854 97.182088 35.637487 142.428317 61.422972 29.069486 16.541632 57.652453 33.813042 85.748901 51.81423 18.730966 12.041335 30.407412 30.285782 37.218672 51.814229 8.514075 27.123411 17.14978 54.125193 26.880152 85.019124v-18.730966c6.324742 1.581185 12.041335 3.040741 19.825633 4.865186-1.946074-3.162371-2.554223-5.594964-4.135408-6.446371-18.487706-9.730372-24.325929-26.758522-27.245041-46.219266-2.189334-14.352298-4.986816-28.704597-9.365483-42.448747-2.554223-8.270816-7.05452-17.39304-13.500891-22.866374-16.176743-13.987409-33.813042-26.272004-51.084452-39.408006 13.86578-25.298967 53.152156-45.976007 81.370234-32.231856 4.257038 2.067704 10.825039-1.337926 16.176744-0.608148 5.351704 0.729778 11.676446 2.310963 15.325335 5.838223 24.934078 24.812448 49.746526 50.111415 62.882528 83.681197 4.621927 11.676446 5.108445 26.880152 2.675852 39.408006-3.648889 18.730966-10.946668 37.097042-17.879558 55.09823-6.81126 17.14978 1.459556 32.353486 4.865186 48.16534 0.12163 0.973037 4.865186 0.973037 7.541038 1.459556 3.770519 11.798076 7.662668 23.961041 12.284594 38.434968 14.838817 10.095261 19.582373 28.704597 23.352892 48.651859-10.33852-0.729778-19.095855-1.094667-28.461337-1.824444-0.486519 4.500297-0.851408 8.392446-0.851408 8.635705l12.527854 8.878964c-4.865186 0.851408-9.608742 1.824445-15.568595 3.040741 7.297779 4.500297 14.838817 9.000594 22.501485 13.62252-29.556004-9.973631-40.016154-7.419408-49.746526 13.014373 7.176149-3.284 14.838817-6.93289 22.623115-10.58178 0.729778 0.973037 1.459556 2.067704 2.067704 2.919112-5.838223 9.365483-11.554816 18.730966-18.730966 30.407412 15.446965-5.473334 18.609336-27.73156 40.502673-20.67704-7.784297 14.838817-15.082076 28.461337-23.109633 43.908302 19.460744-13.74415 29.556004-31.258819 36.002375-51.814229 1.581185-5.108445 6.324742-9.122224 9.973631-13.500891 0.973037 10.21689 9.000594 12.527854 16.663262 12.162965 16.055113-0.243259 30.407412-5.108445 37.705191-21.528448v-0.12163l0.364888-0.364889zM560.478695 339.225086c-0.243259 0.973037-0.486519 1.946074-0.608148 3.040741-10.33852 4.621927-20.67704 9.122224-31.015561 13.622521-0.12163 1.459556-0.12163 3.040741-0.243259 4.500297 44.638081-10.095261 64.463713 19.947262 83.802827 51.6926-6.81126-21.528448-15.690224-41.597339-23.474522-62.15275-6.081482-16.055113-18.852595-24.569189-33.569782-25.663855-24.812448-2.067704-49.868155-0.608148-74.923863-0.608149-0.12163 0.486519-0.12163 1.094667-0.12163 1.581186 26.758522 4.743556 53.395415 9.365483 80.153938 13.987409z m163.835135 3.040741c-4.257038-35.272598-12.406224-70.666825-44.151562-95.114384 14.838817 32.231857 29.920893 64.463713 44.151562 95.114384z m-11.919706 207.378549c-2.797482-9.122224-5.838223-18.366077-9.243853-29.191116-16.663262-5.351704-34.299561-0.851408-50.233044 11.919706 11.798076 3.892149 13.86578 10.581779 9.365482 25.177337 18.244447-3.040741 36.245635-5.838223 50.111415-7.905927z m-28.704597-75.410381c-23.474522-4.013778-33.204894 2.189334-32.110226 19.339113 10.21689-6.203112 20.79867-12.527854 32.110226-19.339113z"  ></path><path d="M856.160367 554.266302c-7.297779 16.420002-21.650077 21.285188-37.70519 21.528448-7.662668 0.243259-15.568595-1.946074-16.663262-12.162965l0.608148-0.729778c12.162965 7.541038 23.961041 4.865186 35.880746-0.851407 5.716593-2.797482 11.676446-5.230075 17.39304-8.027557l0.486518 0.243259zM680.162268 247.151443c31.623708 24.447559 39.894524 59.841786 44.151562 95.114384-14.230669-30.650671-29.312745-62.882528-44.151562-95.114384zM703.271901 520.45326c3.40563 10.825039 6.324742 20.068892 9.243853 29.191116-13.86578 2.067704-31.866968 4.986816-50.111415 7.905927 4.500297-14.595558 2.432593-21.285188-9.365483-25.177337 15.811854-12.771113 33.448153-17.27141 50.233045-11.919706zM700.352789 836.325454l-0.486519 0.364889c-0.12163 0-0.12163 0-0.243259-0.121629 0.364889-0.12163 0.608148-0.243259 0.729778-0.24326zM651.579301 493.573108c-1.094667-17.14978 8.635705-23.352892 32.110226-19.339113-11.311557 6.81126-21.893337 13.136002-32.110226 19.339113z"  ></path><path d="M647.079004 716.763511c16.298373 0 25.177337-7.905927 33.691412-22.014966-12.284594 7.905927-22.136596 14.352298-33.691412 22.014966z m-3.284001-0.851407c-13.379261-6.689631-23.109633-12.892743-16.420002-25.907115 7.05452-13.74415 16.176743-26.393633 22.258225-36.245635 22.136596 16.298373 42.448747 35.029338 65.801639 47.800451 31.258819 17.27141 67.504454 16.420002 94.749496-14.473928 22.501485-25.420596 37.94845-56.192897 44.881339-89.276161 3.040741-13.987409 1.094667-29.069486 1.337926-43.665043l-0.243259-0.12163v0.12163l-0.486518-0.24326c-3.892149-1.216296-8.027557-3.648889-11.311558-2.797481-14.352298 3.284-28.339708 7.662668-41.840598 11.433186 0 0.12163-0.12163 0.12163-0.24326 0.24326l-0.608148 0.729778c-3.648889 4.378667-8.514075 8.392446-9.973631 13.50089-6.324742 20.67704-16.541632 38.191709-36.002375 51.81423 8.027557-15.446965 15.325336-29.069486 23.109633-43.908302-22.014966-7.05452-25.055707 15.203706-40.502673 20.67704 7.05452-11.554816 12.892743-20.920299 18.730966-30.407412-0.729778-0.851408-1.459556-1.824445-2.067704-2.919112-7.784297 3.648889-15.446965 7.176149-22.623115 10.58178 9.608742-20.433781 20.068892-22.988003 49.746526-13.014373-7.662668-4.621927-15.203706-9.122224-22.501485-13.62252 5.959853-1.216296 10.825039-2.189334 15.568595-3.040741l-12.527854-8.878965c0-0.243259 0.486519-4.135408 0.851408-8.635705 9.365483 0.729778 18.122817 1.216296 28.461337 1.824445-3.770519-19.947262-8.514075-38.556598-23.352892-48.651859-4.743556-14.473928-8.514075-26.636893-12.284594-38.434968-2.675852-0.486519-7.419408-0.486519-7.541038-1.459556-3.40563-15.811854-11.554816-30.89393-4.865186-48.16534 6.93289-17.879558 14.109039-36.245635 17.879558-55.098231 2.432593-12.527854 1.946074-27.73156-2.675852-39.408005-13.136002-33.569783-37.94845-58.868749-62.882528-83.681198-3.648889-3.52726-9.852001-5.108445-15.325335-5.838223-5.351704-0.729778-11.919705 2.554223-16.176744 0.608149-28.339708-13.74415-67.504454 6.93289-81.370234 32.231856 17.27141 13.136002 35.029338 25.420596 51.084452 39.408006 6.324742 5.473334 10.946668 14.595558 13.500891 22.866373 4.378667 13.74415 7.176149 28.218078 9.365483 42.448747 2.797482 19.460744 8.635705 36.610524 27.245041 46.219266 1.581185 0.851408 2.189334 3.284 4.135408 6.446372-7.784297-1.824445-13.500891-3.284-19.825633-4.865186V420.838579c-9.730372-30.772301-18.366077-57.774082-26.880152-85.019123-6.81126-21.528448-18.609336-39.894524-37.218672-51.81423-28.218078-18.122817-56.801045-35.394227-85.748901-51.814229-45.367858-25.663856-91.708754-48.895118-142.428317-61.422972-23.596152-6.081482-47.557192-10.095261-66.166528 12.041335-16.784891 20.068892-32.718375 40.745932-48.043711 59.963416 27.366671 13.987409 56.436156 28.947856 85.627272 43.786673-0.729778 1.459556-1.337926 2.797482-1.946074 4.257038-8.514075-3.892149-17.27141-7.419408-25.663856-11.676447-35.394227-18.244447-72.612899-29.069486-112.385794-28.096448-5.473334 0.12163-12.284594 2.554223-16.176743 6.446371-22.258225 22.988003-31.623708 49.746526-23.96104 82.343271 5.959853 25.298967 18.852595 45.611118 37.097042 62.517639 27.853189 25.663856 49.381637 54.854971 57.895712 93.04668 0.608148 3.162371 5.108445 7.541038 8.027557 7.662668 36.367265 1.824445 72.612899 6.689631 108.372015-8.514075 31.01556-13.136002 63.612305-22.866374 95.844162-32.840005 18.730966-5.959853 38.07008-9.365483 55.34149-13.379261 0 28.339708 0.486519 54.368452-0.12163 80.275567-0.364889 18.244447 9.243853 28.947856 23.961041 36.002375 10.46015 5.108445 21.406818 9.365483 32.718375 14.352299-12.892743 22.866374-21.163559 46.097636-0.851408 67.504454 13.987409 14.595558 24.812448 31.988597 31.745338 50.962822 3.52726 10.095261 10.095261 18.122817 25.907115 18.487707z m-269.531298 29.312745c-21.528448-53.517045-33.204894-108.250386-22.014966-166.267728 5.351704-28.218078 17.028151-53.273785 39.408005-77.599715-8.514075 2.554223-13.136002 3.770519-17.757928 5.351704-34.664449 11.676446-70.058677 13.257632-105.817793 7.541038-5.108445-0.851408-11.919705-6.203112-13.622521-11.068297-12.406224-34.664449-28.582967-66.166528-55.949637-91.708754C183.913307 397.850576 172.48012 380.579166 161.533452 363.672645c-13.379261-21.163559-16.055113-44.638081-6.446371-68.355862C161.411822 279.748189 168.101453 263.936334 176.372269 249.340777c7.05452-12.527854 17.636299-17.879558 33.691412-15.203706 18.366077 3.040741 36.853783 0.12163 50.962822-15.811854 16.663262-18.609336 35.029338-35.880746 51.327711-54.733341 10.21689-12.041335 21.528448-13.257632 35.637487-11.433187 54.246823 7.176149 103.628459 27.974819 151.428911 54.368452 19.582373 10.825039 39.043117 22.014966 58.017342 33.934672 8.514075 5.351704 14.838817 3.770519 21.528447-2.189334 2.554223-2.310963 5.230075-4.378667 7.662668-6.689631 46.462525-43.543414 107.398979-39.164746 144.982539 12.649484 17.39304 23.961041 30.529041 51.327711 44.638081 77.599715 2.554223 4.865186 1.459556 13.014372-0.12163 18.974225-6.689631 24.569189-14.352298 49.016748-21.041929 73.707566-2.432593 8.635705 1.702815 15.325336 6.203112 23.596151 16.420002 29.312745 30.407412 59.963416 44.273192 90.614087 2.675852 5.959853 0.486519 13.987409 0.486519 25.298967 10.46015-5.108445 18.730966-8.514075 26.880152-12.892742 9.365483-5.108445 18.730966-10.946668 28.826226-2.919112 10.33852 8.270816 14.230669 18.974225 10.946668 32.231856-6.203112 25.298967-11.433187 50.962822-18.244447 76.14016-7.176149 26.636893-23.839411 47.070673-44.75971 64.220453-32.596745 26.272004-66.531417 19.582373-100.952607 4.865186-6.081482-2.554223-11.676446-6.446371-19.217485-10.703409-3.648889 4.378667-6.93289 9.000594-10.946668 13.014373-19.582373 19.947262-60.936453 16.055113-72.24801-12.771113-7.176149-18.244447-28.218078-21.041929-44.273192-7.419409 12.041335 21.771707 26.636893 40.624302 52.787267 46.584155-18.122817 5.230075-37.94845-2.310963-61.179712-23.109633-8.514075 29.799264 10.21689 46.584155 56.192897 50.476304 0.12163 1.337926 0.243259 2.432593 0.364888 3.770519-11.798076 1.337926-23.596152 2.432593-35.394227 3.648889 3.284 22.623114 8.878964 28.947856 32.961635 32.961635-7.419408 2.797482-12.284594 4.500297-17.27141 6.324741-0.364889 1.094667-0.729778 2.310963-1.094667 3.52726 5.594964 2.310963 11.189928 6.324742 16.906521 6.689631 27.001782 1.459556 54.003563 1.581185 81.005345 2.919111 4.257038 0.12163 8.514075 3.162371 12.649483 4.986816-28.218078 9.000594-56.922675 16.420002-84.289345 27.60993-38.556598 15.568595-74.558974 9.852001-110.43972-6.93289-0.12163 0-0.12163-0.12163-0.243259-0.12163 18.122817 3.892149 36.002376 8.514075 54.246822 11.311557 11.068298 1.702815 25.785485 4.135408 30.164153-8.635705 2.554223-7.419408-5.594964-18.366077-8.270816-25.177337-19.582373 3.162371-35.272598 6.93289-51.206082 8.270816-15.811854 1.337926-31.745338 0.243259-48.28697 0.24326 7.905927 4.865186 15.690224 9.487112 23.352893 13.987409h-0.12163c0.12163 0 0.243259 0.12163 0.364889 0.12163 0.12163 0 0.12163 0.12163 0.243259 0.121629-44.516451-15.203706-80.153938-43.056895-110.19646-79.05927-1.216296-1.581185-1.216296-4.378667-1.946075-6.689631 12.041335 6.689631 23.596152 14.109039 36.002376 19.947262 42.083858 19.947262 86.23542 23.231263 133.306093 17.14978-5.108445-8.149186-8.757335-15.446965-13.987409-21.406818-3.648889-3.892149-8.270816-6.689631-13.500891-7.905927-27.73156-5.959853-56.436156-8.878964-83.437938-17.14978-26.880152-8.392446-51.935859-22.136596-79.424159-34.29956 4.378667 10.21689 16.784891 33.691412 20.920299 43.665043-3.892149-4.378667-16.906521-21.528448-18.974225-26.393633z m-20.312151-161.645802c0 21.285188-0.243259 42.327117 0.121629 63.490676 0 3.040741 2.067704 6.689631 4.257038 8.757335 47.313933 48.28697 105.088015 75.045492 170.038247 87.330087 1.094667 0.243259 2.554223-0.851408 3.892149-1.337927 1.946074-10.095261 3.770519-19.947262 5.838223-30.407411C461.715421 692.072693 394.940745 659.597577 358.69511 582.60601c-1.581185 0.243259-3.284 0.729778-4.743556 0.973037z m184.147286 104.966386c2.310963 1.459556 7.176149-1.459556 9.365483-1.824445-13.379261-16.420002-27.366671-29.434375-36.245635-45.367858-18.001188-31.988597-33.813042-65.193491-49.260007-98.398385-8.392446-18.244447-14.595558-37.461931-22.258226-57.774082-13.257632 5.838223-25.420596 10.825039-37.461931 16.420002-7.662668 3.648889-10.825039 9.365483-9.365483 18.730966 4.500297 30.164153 13.74415 58.50386 32.718375 82.70816 30.285782 38.434969 72.734529 60.206675 112.507424 85.505642z"  ></path><path d="M559.870547 342.265827c0.12163-0.973037 0.364889-1.946074 0.608148-3.040741-26.758522-4.621927-53.395415-9.243853-80.153938-13.987409 0-0.486519 0-1.094667 0.12163-1.581186 25.055707 0 50.111415-1.459556 74.923863 0.608149 14.717187 1.216296 27.4883 9.730372 33.569782 25.663855 7.784297 20.55541 16.663262 40.624302 23.474522 62.15275-19.339114-31.745338-39.286376-61.787861-83.802827-51.6926 0.12163-1.459556 0.12163-3.040741 0.243259-4.500297 10.33852-4.500297 20.67704-9.000594 31.015561-13.622521zM505.015576 857.124124c-0.12163 0-0.243259-0.12163-0.364889-0.12163h0.121629s0.12163 0.12163 0.24326 0.12163z"  ></path></svg>