<svg xmlns="http://www.w3.org/2000/svg" viewBox="0 0 1024 1024" width="16" height="16"><path d="M196.266667 315.733333C64 413.866667 21.333333 580.266667 102.4 691.2c81.066667 110.933333 256 119.466667 384 21.333333l12.8-12.8 64-384c-81.066667-89.6-243.2-93.866667-366.933333 0z m226.133333 298.666667c-29.866667 25.6-64 38.4-102.4 34.133333s-72.533333-17.066667-98.133333-46.933333c-17.066667-29.866667-25.6-68.266667-12.8-106.666667 8.533333-34.133333 29.866667-68.266667 64-85.333333 25.6-21.333333 59.733333-34.133333 98.133333-34.133333 38.4 0 72.533333 17.066667 98.133333 46.933333 17.066667 29.866667 25.6 68.266667 17.066667 106.666667-12.8 34.133333-34.133333 64-64 85.333333zM878.933333 503.466667c21.333333-12.8 42.666667-34.133333 55.466667-59.733334 12.8-21.333333 21.333333-51.2 21.333333-76.8 0-85.333333-98.133333-98.133333-98.133333-98.133333h-238.933333l-89.6 503.466667h247.466666c46.933333 0 93.866667-17.066667 128-51.2 34.133333-34.133333 55.466667-76.8 55.466667-123.733334 0-21.333333-8.533333-42.666667-21.333333-59.733333-17.066667-21.333333-34.133333-29.866667-59.733334-34.133333z m-149.333333-128h64c8.533333 0 17.066667 8.533333 25.6 17.066666 4.266667 8.533333 8.533333 17.066667 8.533333 29.866667 0 12.8-4.266667 25.6-12.8 34.133333-8.533333 8.533333-17.066667 17.066667-29.866666 25.6h-72.533334l17.066667-106.666666z m29.866667 294.4h-89.6l17.066666-102.4H768s55.466667 0 55.466667 46.933333-55.466667 55.466667-64 55.466667z"  ></path></svg>