<svg xmlns="http://www.w3.org/2000/svg" viewBox="0 0 1024 1024" width="16" height="16"><path d="M566 179m-45 0a45 45 0 1 0 90 0 45 45 0 1 0-90 0Z"  ></path><path d="M561.5 399.5m-49.5 0a49.5 49.5 0 1 0 99 0 49.5 49.5 0 1 0-99 0Z"  ></path><path d="M674 287m-45 0a45 45 0 1 0 90 0 45 45 0 1 0-90 0Z"  ></path><path d="M786.5 399.5m-49.5 0a49.5 49.5 0 1 0 99 0 49.5 49.5 0 1 0-99 0Z"  ></path><path d="M894.5 516.5m-58.5 0a58.5 58.5 0 1 0 117 0 58.5 58.5 0 1 0-117 0Z"  ></path><path d="M674 512m-54 0a54 54 0 1 0 108 0 54 54 0 1 0-108 0Z"  ></path><path d="M786.5 624.5m-58.5 0a58.5 58.5 0 1 0 117 0 58.5 58.5 0 1 0-117 0Z"  ></path><path d="M449 287m-45 0a45 45 0 1 0 90 0 45 45 0 1 0-90 0Z"  ></path><path d="M336.5 174.5m-40.5 0a40.5 40.5 0 1 0 81 0 40.5 40.5 0 1 0-81 0Z"  ></path><path d="M336.5 624.5m-40.5 0a40.5 40.5 0 1 0 81 0 40.5 40.5 0 1 0-81 0Z"  ></path><path d="M444.5 732.5m-40.5 0a40.5 40.5 0 1 0 81 0 40.5 40.5 0 1 0-81 0Z"  ></path><path d="M561.5 849.5m-40.5 0a40.5 40.5 0 1 0 81 0 40.5 40.5 0 1 0-81 0Z"  ></path><path d="M228.5 732.5m-40.5 0a40.5 40.5 0 1 0 81 0 40.5 40.5 0 1 0-81 0Z"  ></path><path d="M336.5 849.5m-40.5 0a40.5 40.5 0 1 0 81 0 40.5 40.5 0 1 0-81 0Z"  ></path><path d="M111.5 849.5m-40.5 0a40.5 40.5 0 1 0 81 0 40.5 40.5 0 1 0-81 0Z"  ></path><path d="M116 179m-36 0a36 36 0 1 0 72 0 36 36 0 1 0-72 0Z"  ></path><path d="M228.5 291.5m-40.5 0a40.5 40.5 0 1 0 81 0 40.5 40.5 0 1 0-81 0Z"  ></path><path d="M336.5 399.5m-40.5 0a40.5 40.5 0 1 0 81 0 40.5 40.5 0 1 0-81 0Z"  ></path><path d="M449 512m-54 0a54 54 0 1 0 108 0 54 54 0 1 0-108 0Z"  ></path><path d="M557 620m-54 0a54 54 0 1 0 108 0 54 54 0 1 0-108 0Z"  ></path><path d="M669.5 732.5m-58.5 0a58.5 58.5 0 1 0 117 0 58.5 58.5 0 1 0-117 0Z"  ></path></svg>