<svg xmlns="http://www.w3.org/2000/svg" xmlns:xlink="http://www.w3.org/1999/xlink" width="512" height="512" viewBox="0 0 512 512" fill="none">
<path d="M252 265.76L193.24 336.27L134.47 406.78C128.802 413.582 119.637 413.582 113.97 406.78L100.25 390.35C94.592 383.56 94.5753 372.546 100.22 365.74L193.36 253.44L100.22 141.15C94.5753 134.344 94.592 123.33 100.25 116.54L113.97 100.1C119.638 93.2982 128.803 93.2982 134.47 100.1L252 241.12C257.668 247.921 257.668 258.958 252 265.76ZM416.01 398.58L416.01 375.37C416.01 365.751 403.015 357.95 395 357.95L284.67 357.95C276.655 357.95 270.15 365.751 270.15 375.37L270.15 398.58C270.15 408.199 276.655 416 284.67 416L395 416C403.015 416 416.01 408.199 416.01 398.58Z" fill-rule="evenodd"  fill="#43CF7C" >
</path>
</svg>
