<?xml version="1.0" encoding="UTF-8"?>
<svg width="16px" height="16px" viewBox="0 0 16 16" version="1.1" xmlns="http://www.w3.org/2000/svg" xmlns:xlink="http://www.w3.org/1999/xlink">
    <title>reload time</title>
    <g id="页面-1" stroke="none" stroke-width="1" fill="none" fill-rule="evenodd">
        <g id="icon" transform="translate(-468, -252)" fill-rule="nonzero">
            <g id="reload-time" transform="translate(468, 252)">
                <rect id="矩形备份-2" fill="#000000" opacity="0" x="0" y="0" width="16" height="16"></rect>
                <path d="M8.21193947,0.999979324 C10.5217895,0.998353302 12.5781603,2.05160869 13.8992737,3.68928245 L12.895429,4.45114261 C12.747706,4.26718919 12.5865537,4.09300322 12.4153293,3.92532887 C11.8697616,3.39625931 11.2335456,2.97951529 10.5268255,2.68974797 C9.79492535,2.3885853 9.01770111,2.23719001 8.21529681,2.23719001 C7.41289252,2.23719001 6.63398961,2.3885853 5.9054468,2.68974797 C5.1987267,2.97951529 4.56251074,3.39625931 4.01694297,3.92532887 C3.46969653,4.45439842 3.04163566,5.07137492 2.74283239,5.75672348 C2.43227842,6.46649063 2.27616211,7.22183917 2.27616211,7.99997932 C2.27616211,8.77811761 2.43227842,9.53346614 2.73947505,10.2416054 C3.03995699,10.926954 3.46801786,11.5439304 4.01358563,12.073 C4.5591534,12.6020696 5.19536936,13.0188136 5.90208946,13.3085809 C6.63398961,13.6097436 7.41121385,13.7611389 8.21361814,13.7611389 C9.01602244,13.7611389 9.79324668,13.6081157 10.5251468,13.3085809 C11.2318669,13.0188136 11.8680829,12.6020696 12.4136507,12.073 C12.9608971,11.5439304 13.388958,10.926954 13.6877612,10.2416054 C13.7230133,10.1602101 13.7565867,10.0788148 13.7884814,9.99579154 C13.8136615,9.92904738 13.8892016,9.89486134 13.9580271,9.91765203 L14.9098331,10.2350938 C14.9803372,10.2595124 15.0172679,10.336024 14.9920879,10.404396 C13.9815285,13.0855577 11.3292298,14.9999793 8.21529681,14.9999793 C4.25531412,14.9999793 1.04066093,11.9053256 1.00037285,8.07160626 C0.960084771,4.16951481 4.18984599,1.00160911 8.21193947,0.999979324 Z M8.40498653,4.10928228 C8.47884801,4.10928228 8.53928014,4.16788691 8.53928014,4.23951479 L8.53928014,8.26858293 L10.9330637,9.94695435 C10.9934958,9.987652 11.0069251,10.0690473 10.961601,10.1292799 L10.4815014,10.7641633 C10.437856,10.8227679 10.3539225,10.8341633 10.2934904,10.7918377 L7.51864873,8.8269548 C7.48339666,8.8025362 7.46325262,8.76346645 7.46325262,8.72114089 L7.46325262,4.23951479 C7.46325262,4.16788691 7.52368474,4.10928228 7.59754623,4.10928228 Z M14.6899273,3.09998036 C14.7772181,3.0316083 14.9064757,3.09346874 14.9064757,3.20253846 L14.8930463,5.83160717 C14.8930463,5.91463039 14.8107915,5.97649083 14.726858,5.95695595 L12.0947033,5.33346783 C11.9855898,5.30742133 11.9553737,5.17230511 12.0443432,5.10393304 Z" id="形状结合" fill="#FFFFFF"></path>
            </g>
        </g>
    </g>
</svg>