<?xml version="1.0" encoding="UTF-8"?>
<svg width="24px" height="24px" viewBox="0 0 24 24" version="1.1" xmlns="http://www.w3.org/2000/svg" xmlns:xlink="http://www.w3.org/1999/xlink">
    <title>key</title>
    <g id="页面-1" stroke="none" stroke-width="1" fill-rule="evenodd">
        <g id="icon" transform="translate(-832, -108)">
            <g id="key" transform="translate(832, 108)">
                <rect id="矩形" opacity="0" x="0" y="0" width="24" height="24"></rect>
                <path d="M14.641306,1 C10.0247774,1 6.28261209,4.74216529 6.28261209,9.35869395 C6.28261209,11.2916419 6.93975941,13.070614 8.03958756,14.4866427 L6.90951414,15.6167161 L5.19653179,13.9037338 C5.11129511,13.8184971 4.97106702,13.8184971 4.88308077,13.9037338 L3.78875176,14.9980628 C3.70351508,15.0832995 3.70351508,15.2235276 3.78875176,15.3115138 L5.5017341,17.0244962 L4.267177,18.2590533 L2.55419466,16.5460709 C2.46895798,16.4608342 2.32872989,16.4608342 2.24074363,16.5460709 L1.14641462,17.6403999 C1.06117794,17.7256366 1.06117794,17.8658647 1.14641462,17.953851 L2.85939697,19.6668333 L1.06392751,21.4623028 C0.97869083,21.5475394 0.97869083,21.6877675 1.06392751,21.7730042 L2.22699578,22.9360725 C2.31223246,23.0213092 2.45246055,23.0213092 2.53769723,22.9360725 L9.51060772,15.963162 C10.929386,17.0602406 12.7083581,17.7173879 14.641306,17.7173879 C19.2578347,17.7173879 23,13.9752226 23,9.35869395 C23,4.74216529 19.2578347,1 14.641306,1 Z M19.0736135,13.7910014 C17.8912982,14.9760662 16.3157944,15.6277144 14.641306,15.6277144 C12.9668177,15.6277144 11.3913139,14.9760662 10.2089986,13.7910014 C9.02393376,12.6086861 8.37228558,11.0331823 8.37228558,9.35869395 C8.37228558,7.68420559 9.02393376,6.10870177 10.2089986,4.9263865 C11.3913139,3.74132167 12.9668177,3.08967349 14.641306,3.08967349 C16.3157944,3.08967349 17.8912982,3.74132167 19.0736135,4.9263865 C20.2586783,6.10870177 20.9103265,7.68420559 20.9103265,9.35869395 C20.9103265,11.0331823 20.2586783,12.6086861 19.0736135,13.7910014 Z" id="形状" fill-rule="nonzero"></path>
            </g>
        </g>
    </g>
</svg>