<svg width="24" height="24" viewBox="0 0 24 24" fill="none" xmlns="http://www.w3.org/2000/svg">
  <path d="M12 14C13.66 14 15 12.66 15 11V5C15 3.34 13.66 2 12 2C10.34 2 9 3.34 9 5V11C9 12.66 10.34 14 12 14Z" stroke="currentColor" stroke-width="2" stroke-linecap="round" stroke-linejoin="round"/>
  <path d="M19 10V11C19 15.42 15.42 19 11 19H13C17.42 19 21 15.42 21 11V10" stroke="currentColor" stroke-width="2" stroke-linecap="round" stroke-linejoin="round"/>
  <path d="M5 10V11C5 15.42 8.58 19 13 19H11C6.58 19 3 15.42 3 11V10" stroke="currentColor" stroke-width="2" stroke-linecap="round" stroke-linejoin="round"/>
  <path d="M12 19V22" stroke="currentColor" stroke-width="2" stroke-linecap="round" stroke-linejoin="round"/>
  <path d="M8 22H16" stroke="currentColor" stroke-width="2" stroke-linecap="round" stroke-linejoin="round"/>
</svg> 