<?xml version="1.0" standalone="no"?><!DOCTYPE svg PUBLIC "-//W3C//DTD SVG 1.1//EN" "http://www.w3.org/Graphics/SVG/1.1/DTD/svg11.dtd"><svg t="1752030587877" class="icon" viewBox="0 0 1024 1024" version="1.1" xmlns="http://www.w3.org/2000/svg" p-id="1456" width="200" height="200" xmlns:xlink="http://www.w3.org/1999/xlink"><path d="M384.698182 788.340364c20.945455 0 34.722909-14.149818 34.722909-34.071273a34.164364 34.164364 0 0 0-10.24-24.436364l-82.990546-80.709818-56.552727-47.569454 74.565818 3.258181h401.454546c80.384 0 114.455273-36.305455 114.455273-115.106909V299.101091c0-80.337455-34.071273-114.408727-114.455273-114.408727h-178.362182a34.676364 34.676364 0 0 0-35.700364 35.002181c0 19.316364 14.429091 35.048727 35.700364 35.048728h176.779636c32.768 0 46.592 13.824 46.592 46.312727v186.414545c0 33.093818-14.149818 46.917818-46.592 46.917819h-399.825454l-74.612364 3.537454 56.552727-47.895273L409.134545 409.367273a33.047273 33.047273 0 0 0 10.286546-24.436364c0-19.921455-13.824-34.071273-34.722909-34.071273a37.003636 37.003636 0 0 0-25.367273 10.938182l-184.506182 181.573818a36.538182 36.538182 0 0 0-11.264 26.391273c0 9.309091 3.863273 18.944 11.264 26.065455l184.506182 181.899636c7.074909 6.749091 16.709818 10.612364 25.367273 10.612364z" fill="#08c414" p-id="1457"></path></svg>