<?xml version="1.0" encoding="UTF-8"?>
<svg width="24px" height="24px" viewBox="0 0 24 24" version="1.1" xmlns="http://www.w3.org/2000/svg" xmlns:xlink="http://www.w3.org/1999/xlink">
    <title>icon-发送</title>
    <g id="页面-1" stroke="none" stroke-width="1" fill="none" fill-rule="evenodd">
        <g id="1-2-4AI对话" transform="translate(-668, -748)">
            <g id="编组备份" transform="translate(376, 664)">
                <g id="icon-发送" transform="translate(292, 84)">
                    <rect id="矩形" fill="#1677FF" x="0" y="0" width="24" height="24" rx="12"></rect>
                    <polygon id="路径" fill="#202425" fill-rule="nonzero" opacity="0.01" points="4 4 20 4 20 20 4 20"></polygon>
                    <path d="M11.2458667,5.91253333 C11.6623998,5.49612594 12.3376002,5.49612594 12.7541333,5.91253333 L17.5541333,10.7125333 C17.8314205,10.9803461 17.9426271,11.3769365 17.8450106,11.7498746 C17.7473942,12.1228128 17.4561461,12.4140608 17.083208,12.5116773 C16.7102698,12.6092937 16.3136794,12.4980872 16.0458667,12.2208 L13.0666667,9.2416 L13.0666667,17.3333333 C13.0666667,17.9224371 12.5891037,18.4 12,18.4 C11.4108963,18.4 10.9333333,17.9224371 10.9333333,17.3333333 L10.9333333,9.2416 L7.95413333,12.2208 C7.6863206,12.4980872 7.28973019,12.6092937 6.91679203,12.5116773 C6.54385386,12.4140608 6.25260582,12.1228128 6.15498937,11.7498746 C6.05737293,11.3769365 6.16857947,10.9803461 6.44586667,10.7125333 L11.2458667,5.91253333 Z" id="路径" fill="#FFFFFF" fill-rule="nonzero"></path>
                </g>
            </g>
        </g>
    </g>
</svg>