<?xml version="1.0" standalone="no"?><!DOCTYPE svg PUBLIC "-//W3C//DTD SVG 1.1//EN" "http://www.w3.org/Graphics/SVG/1.1/DTD/svg11.dtd"><svg t="1764234164225" class="icon" viewBox="0 0 1024 1024" version="1.1" xmlns="http://www.w3.org/2000/svg" p-id="3877" width="64" height="64" xmlns:xlink="http://www.w3.org/1999/xlink"><path d="M512 1024a512.576 512.576 0 0 1-512-512 512.576 512.576 0 0 1 512-512 512.576 512.576 0 0 1 512 512 512.576 512.576 0 0 1-512 512zM438.848 329.216a109.76 109.76 0 0 0-109.696 109.632v146.304a109.824 109.824 0 0 0 109.696 109.696h146.304a109.824 109.824 0 0 0 109.696-109.696V438.848a109.76 109.76 0 0 0-109.696-109.632z" fill="#333333" p-id="3878"></path></svg>