<?xml version="1.0" standalone="no"?><!DOCTYPE svg PUBLIC "-//W3C//DTD SVG 1.1//EN" "http://www.w3.org/Graphics/SVG/1.1/DTD/svg11.dtd"><svg t="1749112283798" class="icon" viewBox="0 0 1024 1024" version="1.1" xmlns="http://www.w3.org/2000/svg" p-id="10539" width="64" height="64" xmlns:xlink="http://www.w3.org/1999/xlink"><path d="M512 96a482.24 482.24 0 0 0 288.768 381.248A482.24 482.24 0 0 0 928 512a482.24 482.24 0 0 0-381.248 288.768A482.24 482.24 0 0 0 512 928a482.24 482.24 0 0 0-288.768-381.248A482.24 482.24 0 0 0 96 512a482.24 482.24 0 0 0 381.248-288.768A482.24 482.24 0 0 0 512 96z m0 203.2a550.208 550.208 0 0 1-92.032 120.768A550.208 550.208 0 0 1 299.232 512a550.208 550.208 0 0 1 120.736 92.032A550.208 550.208 0 0 1 512 724.768a550.208 550.208 0 0 1 92.032-120.736A550.208 550.208 0 0 1 724.768 512a550.208 550.208 0 0 1-120.736-92.032A550.208 550.208 0 0 1 512 299.232z" p-id="10540" fill="#ffffff"></path><path d="M800 96a148.48 148.48 0 0 0 128 128 148.48 148.48 0 0 0-128 128 148.48 148.48 0 0 0-128-128 148.48 148.48 0 0 0 128-128zM224 672a148.48 148.48 0 0 0 128 128 148.48 148.48 0 0 0-128 128 148.48 148.48 0 0 0-128-128 148.48 148.48 0 0 0 128-128z" p-id="10541" fill="#ffffff"></path></svg>