<?xml version="1.0" standalone="no"?><!DOCTYPE svg PUBLIC "-//W3C//DTD SVG 1.1//EN" "http://www.w3.org/Graphics/SVG/1.1/DTD/svg11.dtd"><svg t="1756435479734" class="icon" viewBox="0 0 1024 1024" version="1.1" xmlns="http://www.w3.org/2000/svg" p-id="33692" width="128" height="128" xmlns:xlink="http://www.w3.org/1999/xlink"><path d="M898.048 256H441.344C386.048 256 366.08 105.472 283.648 102.4H125.952A75.264 75.264 0 0 0 51.2 177.152v669.696A75.264 75.264 0 0 0 125.952 921.6h772.096A75.264 75.264 0 0 0 972.8 846.848V330.752A75.264 75.264 0 0 0 898.048 256zM921.6 846.848a24.064 24.064 0 0 1-23.552 23.552H125.952a24.064 24.064 0 0 1-23.552-23.552V177.152A24.064 24.064 0 0 1 125.952 153.6h153.6c16.896 0 37.376 36.864 51.2 62.976C358.4 259.072 386.56 307.2 441.344 307.2h456.704a24.064 24.064 0 0 1 23.552 23.552z" p-id="33693" fill="#cdcdcd"></path><path d="M528.896 415.744a25.6 25.6 0 0 0-33.28 0l-179.2 153.6a25.6 25.6 0 0 0 33.28 38.912L486.4 491.008v302.592a25.6 25.6 0 0 0 51.2 0V491.008l136.704 117.248a25.6 25.6 0 1 0 33.28-38.912z" p-id="33694" fill="#cdcdcd"></path></svg>
