<?xml version="1.0" encoding="UTF-8"?>
<svg width="24px" height="24px" viewBox="0 0 24 24" version="1.1" xmlns="http://www.w3.org/2000/svg" xmlns:xlink="http://www.w3.org/1999/xlink">
    <title>aichat</title>
    <g id="页面-1" stroke="none" stroke-width="1" fill="none" fill-rule="evenodd">
        <g id="icon" transform="translate(-496, -108)" fill="#FFFFFF">
            <g id="aichat" transform="translate(496, 108)">
                <rect id="矩形" opacity="0" x="0" y="0" width="24" height="24"></rect>
                <path d="M11.9999899,1 C18.0653,1 23,5.9345663 23,12 C23,18.0654337 18.0655343,23 11.9999899,23 L2.00027909,23 C1.62879966,23 1.28825731,22.7944517 1.11505648,22.4653868 C0.942077981,22.1368733 0.965546382,21.7395271 1.17599317,21.4336608 L3.16416988,18.540984 C1.76379786,16.6523768 1,14.3578292 1,12 C1,5.9345663 5.93467993,1 11.9999899,1 Z M11.9999899,2.99993608 C7.03763402,2.99993608 3.00010956,7.03754288 3.00010956,12 C3.00010956,14.1396246 3.76955246,16.2164362 5.16711201,17.8467603 C5.46195184,18.1910596 5.4889046,18.6905163 5.23203302,19.0641127 L3.90103508,21.0000639 L11.9999899,21.0000639 C16.9623459,21.0000639 20.9998703,16.9624571 20.9998703,12 C20.9998703,7.03754288 16.9623459,2.99993608 11.9999899,2.99993608 Z M10.078125,7.26367188 C10.3203125,7.26367188 10.5224609,7.30957031 10.6845703,7.40136719 C10.8466797,7.49316406 10.9775391,7.61132812 11.0771484,7.75585938 C11.1767578,7.90039062 11.2607422,8.05566406 11.3291016,8.22167969 C11.3974609,8.38769531 11.484375,8.609375 11.5898438,8.88671875 L13.8339844,14.4296875 C14.0097656,14.8515625 14.0976562,15.1582031 14.0976562,15.3496094 C14.0976562,15.5488281 14.0146484,15.7314453 13.8486328,15.8974609 C13.6826172,16.0634766 13.4824219,16.1464844 13.2480469,16.1464844 C13.1113281,16.1464844 12.9941406,16.1220703 12.8964844,16.0732422 C12.7988281,16.0244141 12.7167969,15.9580078 12.6503906,15.8740234 C12.5839844,15.7900391 12.5126953,15.6611328 12.4365234,15.4873047 C12.3603516,15.3134766 12.2949219,15.1601562 12.2402344,15.0273438 L11.8300781,13.9492188 L8.33789062,13.9492188 L7.92773438,15.0507813 C7.76757813,15.4804687 7.63085938,15.7705078 7.51757812,15.9208984 C7.40429687,16.0712891 7.21875,16.1464844 6.9609375,16.1464844 C6.7421875,16.1464844 6.54882812,16.0664062 6.38085938,15.90625 C6.21289062,15.7460938 6.12890625,15.5644531 6.12890625,15.3613281 C6.12890625,15.2441406 6.1484375,15.1230469 6.1875,14.9980469 C6.2265625,14.8730469 6.29101562,14.6992188 6.38085938,14.4765625 L8.578125,8.8984375 C8.640625,8.73828125 8.71582031,8.54589844 8.80371094,8.32128906 C8.89160156,8.09667969 8.98535156,7.91015625 9.08496094,7.76171875 C9.18457031,7.61328125 9.31542969,7.49316406 9.47753906,7.40136719 C9.63964844,7.30957031 9.83984375,7.26367188 10.078125,7.26367188 Z M16.3066406,7.26367188 C16.5683594,7.26367188 16.7802734,7.35058594 16.9423828,7.52441406 C17.1044922,7.69824219 17.1855469,7.96289062 17.1855469,8.31835937 L17.1855469,15.0859375 C17.1855469,15.4414063 17.1044922,15.7070312 16.9423828,15.8828125 C16.7802734,16.0585938 16.5683594,16.1464844 16.3066406,16.1464844 C16.0566406,16.1464844 15.8505859,16.0576172 15.6884766,15.8798828 C15.5263672,15.7021484 15.4453125,15.4375 15.4453125,15.0859375 L15.4453125,8.31835937 C15.4453125,7.96679688 15.5253906,7.703125 15.6855469,7.52734375 C15.8457031,7.3515625 16.0527344,7.26367188 16.3066406,7.26367188 Z M10.0664062,9.09765625 L8.79492188,12.6425781 L11.3613281,12.6425781 L10.0664062,9.09765625 Z" id="形状结合" fill-rule="nonzero"></path>
            </g>
        </g>
    </g>
</svg>