<svg xmlns="http://www.w3.org/2000/svg" xmlns:xlink="http://www.w3.org/1999/xlink" width="24" height="24" viewBox="0 0 24 24" fill="none">
<path d="M22.1914 10.8344C22.1808 10.8341 22.1703 10.8337 22.1598 10.833C22.1493 10.8322 22.1388 10.8313 22.1284 10.8301C22.1179 10.8289 22.1075 10.8274 22.0971 10.8257C22.0867 10.824 22.0763 10.8221 22.066 10.8198C22.0557 10.8177 22.0455 10.8152 22.0353 10.8125C22.0251 10.8098 22.015 10.8069 22.005 10.8038C21.9949 10.8006 21.9849 10.7972 21.9751 10.7936C21.9652 10.7899 21.9554 10.7861 21.9457 10.7819C21.936 10.7778 21.9264 10.7735 21.9169 10.769C21.9074 10.7644 21.898 10.7596 21.8888 10.7546C21.8795 10.7496 21.8703 10.7444 21.8613 10.7389C21.8523 10.7335 21.8434 10.7279 21.8347 10.722C21.8259 10.7161 21.8173 10.7101 21.8088 10.7038C21.8004 10.6975 21.7921 10.6911 21.7839 10.6844C21.7758 10.6777 21.7678 10.6709 21.7599 10.6638C21.7521 10.6568 21.7444 10.6496 21.7369 10.6421C21.7294 10.6347 21.7222 10.6272 21.715 10.6194C21.7079 10.6117 21.701 10.6037 21.6942 10.5956C21.6875 10.5876 21.6809 10.5793 21.6746 10.5709C21.6682 10.5625 21.662 10.554 21.6561 10.5453C21.6501 10.5366 21.6444 10.5278 21.6388 10.5188C21.6333 10.5099 21.628 10.5008 21.6229 10.4916C21.6178 10.4823 21.6129 10.473 21.6083 10.4636C21.6036 10.4541 21.5992 10.4446 21.595 10.4349C21.5907 10.4253 21.5868 10.4155 21.583 10.4057C21.5793 10.3958 21.5758 10.3859 21.5725 10.3759C21.5692 10.3659 21.5662 10.3558 21.5634 10.3456C21.5606 10.3355 21.5581 10.3252 21.5558 10.315C21.5535 10.3047 21.5514 10.2944 21.5496 10.284C21.5478 10.2736 21.5462 10.2632 21.5449 10.2528C21.5436 10.2423 21.5425 10.2318 21.5417 10.2213C21.5408 10.2108 21.5403 10.2003 21.54 10.1898L21.54 7.22236C21.54 7.21029 21.5398 7.19822 21.5395 7.18614C21.5391 7.17407 21.5386 7.16203 21.5378 7.14998C21.5371 7.13793 21.5361 7.12591 21.5349 7.11389C21.5337 7.10186 21.5324 7.08989 21.5308 7.07791C21.5292 7.06596 21.5274 7.05403 21.5254 7.04212C21.5234 7.03021 21.5213 7.01833 21.5189 7.0065C21.5165 6.99466 21.5139 6.98289 21.5111 6.97115C21.5083 6.95941 21.5053 6.94771 21.5021 6.93607C21.4989 6.92442 21.4955 6.91284 21.492 6.90131C21.4884 6.88978 21.4846 6.87832 21.4807 6.86693C21.4767 6.85551 21.4725 6.84419 21.4682 6.83294C21.4638 6.82167 21.4593 6.81049 21.4546 6.79938C21.4498 6.78829 21.4449 6.77728 21.4398 6.76633C21.4347 6.75539 21.4294 6.74456 21.4239 6.7338C21.4184 6.72304 21.4128 6.71238 21.4069 6.70181C21.4011 6.69124 21.3951 6.68079 21.3889 6.67043C21.3827 6.66007 21.3763 6.64982 21.3698 6.63968C21.3632 6.62953 21.3565 6.6195 21.3496 6.60958C21.3428 6.59967 21.3357 6.58987 21.3285 6.58019C21.3213 6.57051 21.3139 6.56095 21.3064 6.55153C21.2988 6.54211 21.2911 6.5328 21.2833 6.52364C21.2754 6.51447 21.2674 6.50545 21.2592 6.49657C21.2511 6.48766 21.2428 6.47889 21.2343 6.47029C21.2258 6.46169 21.2172 6.45323 21.2085 6.44491C21.1998 6.43659 21.1909 6.42843 21.1819 6.42039C21.1728 6.41238 21.1637 6.40453 21.1544 6.39682C21.1451 6.38911 21.1357 6.38156 21.1261 6.37418C21.1166 6.36679 21.1069 6.35957 21.0971 6.35252C21.0873 6.34546 21.0774 6.33857 21.0674 6.33185C21.0574 6.32512 21.0472 6.31858 21.037 6.31221C21.0267 6.30583 21.0164 6.29962 21.0059 6.2936C20.9955 6.28757 20.9849 6.28174 20.9742 6.27607L12.6257 1.45721C12.6151 1.45065 12.6045 1.44428 12.5937 1.4381C12.5829 1.43191 12.5721 1.42591 12.5611 1.4201C12.5501 1.4143 12.539 1.40868 12.5279 1.40326C12.5167 1.39784 12.5054 1.39261 12.4941 1.38758C12.4827 1.38255 12.4713 1.37771 12.4598 1.37308C12.4482 1.36845 12.4367 1.36401 12.425 1.35978C12.4133 1.35555 12.4016 1.35153 12.3897 1.3477C12.3779 1.34388 12.3661 1.34027 12.3541 1.33686C12.3422 1.33345 12.3302 1.33025 12.3181 1.32725C12.3061 1.32426 12.294 1.32148 12.2818 1.31891C12.2697 1.31634 12.2575 1.31398 12.2453 1.31183C12.233 1.30968 12.2208 1.30775 12.2085 1.30603C12.1962 1.30431 12.1838 1.3028 12.1715 1.30151C12.1591 1.30021 12.1468 1.29914 12.1344 1.29827C12.122 1.29741 12.1096 1.29676 12.0972 1.29633C12.0848 1.2959 12.0724 1.29569 12.06 1.29569C12.0475 1.29569 12.0351 1.2959 12.0227 1.29633C12.0103 1.29676 11.9979 1.29741 11.9855 1.29827C11.9731 1.29914 11.9607 1.30021 11.9484 1.30151C11.936 1.3028 11.9237 1.30431 11.9114 1.30603C11.8991 1.30775 11.8869 1.30968 11.8747 1.31183C11.8624 1.31398 11.8502 1.31634 11.8381 1.31891C11.8259 1.32148 11.8138 1.32426 11.8018 1.32725C11.7897 1.33025 11.7777 1.33345 11.7658 1.33686C11.7538 1.34027 11.742 1.34388 11.7302 1.3477C11.7184 1.35153 11.7066 1.35555 11.6949 1.35978C11.6832 1.36401 11.6716 1.36845 11.6601 1.37308C11.6486 1.37771 11.6372 1.38255 11.6258 1.38758C11.6145 1.39261 11.6032 1.39784 11.5921 1.40326C11.5809 1.40868 11.5698 1.4143 11.5588 1.4201C11.5478 1.42591 11.537 1.43191 11.5262 1.4381C11.5154 1.44428 11.5048 1.45065 11.4942 1.45721L3.10625 6.2332C3.09579 6.23913 3.08546 6.24525 3.07521 6.25153C3.06497 6.25779 3.05482 6.26423 3.04479 6.27082C3.03476 6.2774 3.02482 6.28418 3.01503 6.29109C3.00518 6.298 2.99548 6.30506 2.98592 6.3123C2.97631 6.31952 2.96684 6.3269 2.95749 6.33443C2.94814 6.34195 2.9389 6.34964 2.92981 6.35749C2.92069 6.36532 2.91171 6.37329 2.90288 6.38139C2.89402 6.38953 2.8853 6.39778 2.87672 6.40617C2.86814 6.41458 2.85968 6.42311 2.85139 6.43179C2.84307 6.44046 2.83491 6.44925 2.82689 6.45818C2.81886 6.46711 2.81098 6.47618 2.80325 6.48536C2.79551 6.49455 2.78792 6.50386 2.78049 6.5133C2.77306 6.52272 2.76577 6.53226 2.75864 6.54194C2.75152 6.5516 2.74454 6.56137 2.73774 6.57126C2.73092 6.58115 2.72426 6.59116 2.71779 6.60126C2.7113 6.61136 2.70497 6.62158 2.69881 6.63187C2.69264 6.64218 2.68664 6.65259 2.68083 6.66309C2.675 6.67359 2.66935 6.68418 2.66386 6.69487C2.65838 6.70553 2.65306 6.71632 2.64793 6.72717C2.64277 6.73802 2.6378 6.74896 2.63302 6.75996C2.62824 6.77097 2.62362 6.78206 2.61919 6.79324C2.61476 6.80439 2.61052 6.81562 2.60644 6.82692C2.60236 6.83821 2.5985 6.84958 2.59479 6.861C2.59109 6.87241 2.58755 6.88389 2.58422 6.89545C2.58089 6.90698 2.57773 6.91856 2.57478 6.93021C2.57182 6.94186 2.56904 6.95353 2.56646 6.96525C2.56388 6.97699 2.56149 6.98875 2.55929 7.00054C2.55706 7.01236 2.55504 7.02419 2.55321 7.03605C2.55139 7.04793 2.54977 7.05982 2.54832 7.07175C2.54686 7.08368 2.54562 7.09561 2.54457 7.10758C2.54349 7.11953 2.54262 7.13151 2.54196 7.14351C2.54129 7.15549 2.54082 7.16749 2.54054 7.17949L2.54054 8.8132C2.54054 9.15607 2.23538 9.45778 1.88909 9.45778C1.87856 9.45757 1.86804 9.45712 1.85753 9.45639C1.84702 9.45567 1.83654 9.45471 1.82607 9.45351C1.81561 9.45232 1.80518 9.45084 1.79479 9.44913C1.78439 9.44742 1.77404 9.44547 1.76375 9.44329C1.75344 9.44109 1.7432 9.43865 1.73301 9.43596C1.72283 9.43326 1.71271 9.43036 1.70267 9.42719C1.69262 9.42403 1.68266 9.42063 1.67277 9.417C1.66289 9.41336 1.65309 9.40947 1.64339 9.40537C1.63369 9.40127 1.62409 9.39696 1.6146 9.39239C1.6051 9.38782 1.59572 9.38303 1.58646 9.37804C1.57719 9.37305 1.56804 9.36782 1.55902 9.36236C1.55 9.35693 1.54112 9.35128 1.53237 9.34542C1.52361 9.33956 1.51501 9.33349 1.50654 9.32723C1.49808 9.32097 1.48977 9.3145 1.48161 9.30782C1.47346 9.30114 1.46546 9.2943 1.45764 9.28727C1.4498 9.28022 1.44214 9.273 1.43466 9.26559C1.42717 9.25818 1.41986 9.25059 1.41274 9.24283C1.40561 9.23507 1.39867 9.22715 1.39192 9.21907C1.38517 9.21098 1.37861 9.20275 1.37226 9.19436C1.36589 9.18595 1.35974 9.17742 1.35379 9.16872C1.34783 9.16003 1.34209 9.15121 1.33656 9.14224C1.33102 9.13329 1.3257 9.12419 1.3206 9.11498C1.3155 9.10577 1.31062 9.09644 1.30596 9.087C1.3013 9.07755 1.29687 9.06799 1.29266 9.05833C1.28846 9.04868 1.28448 9.03893 1.28074 9.02908C1.277 9.01924 1.27349 9.0093 1.27022 8.99929C1.26695 8.98929 1.26392 8.97918 1.26113 8.96904C1.25834 8.95889 1.25579 8.94867 1.25348 8.9384C1.25118 8.92811 1.24911 8.9178 1.2473 8.90742C1.24549 8.89704 1.24392 8.88663 1.2426 8.87618C1.24127 8.86572 1.2402 8.85525 1.23938 8.84475C1.23856 8.83425 1.23798 8.82372 1.23766 8.8132L1.23766 7.17949C1.23791 7.15336 1.23858 7.1272 1.23968 7.10107C1.24078 7.07493 1.24231 7.04885 1.24427 7.02276C1.24622 6.99668 1.2486 6.97064 1.25141 6.94462C1.25421 6.91863 1.25744 6.89268 1.2611 6.86679C1.26475 6.84089 1.26883 6.81504 1.27333 6.78928C1.27782 6.76352 1.28274 6.73786 1.28808 6.71224C1.29342 6.68662 1.29917 6.66112 1.30535 6.63572C1.31152 6.61029 1.31811 6.58497 1.3251 6.55978C1.3321 6.53458 1.33951 6.5095 1.34733 6.48454C1.35515 6.45958 1.36338 6.43476 1.37201 6.41008C1.38064 6.3854 1.38967 6.36086 1.39911 6.33646C1.40854 6.31207 1.41837 6.28783 1.42859 6.26376C1.43882 6.23969 1.44944 6.21579 1.46044 6.19207C1.47145 6.16835 1.48284 6.14482 1.49462 6.12145C1.50639 6.09811 1.51855 6.07495 1.53108 6.05198C1.54361 6.02904 1.55652 6.00628 1.5698 5.98375C1.58307 5.96123 1.59671 5.93892 1.61072 5.91682C1.62473 5.89474 1.63909 5.87289 1.65381 5.85126C1.66853 5.82965 1.6836 5.80828 1.69902 5.78716C1.71444 5.76604 1.7302 5.74516 1.7463 5.72456C1.7624 5.70396 1.77884 5.68361 1.7956 5.66353C1.81237 5.64347 1.82946 5.62368 1.84687 5.60416C1.86429 5.58464 1.88201 5.56542 1.90006 5.54648C1.9181 5.52754 1.93645 5.50891 1.9551 5.49058C1.97375 5.47223 1.99269 5.45421 2.01193 5.43651C2.03117 5.41879 2.0507 5.4014 2.07051 5.38432C2.09032 5.36723 2.1104 5.3505 2.13076 5.33407C2.15111 5.31764 2.17173 5.30156 2.19261 5.28581C2.2135 5.27008 2.23463 5.25468 2.25602 5.23961C2.2774 5.22457 2.29903 5.20987 2.3209 5.1955C2.34277 5.18116 2.36487 5.16717 2.38718 5.15355C2.4095 5.13993 2.43204 5.12667 2.45482 5.11378L10.8411 0.339495C11.58 -0.0890765 12.5382 -0.0890765 13.2754 0.339495L21.6668 5.11378C22.4074 5.54407 22.884 6.31893 22.884 7.17949L22.884 10.1452C22.8411 10.5344 22.5805 10.8344 22.1897 10.8344L22.1914 10.8344ZM12.06 23.9965C11.6262 23.9965 11.2337 23.911 10.8428 23.6949L2.45138 18.8778C2.42864 18.8649 2.40612 18.8516 2.38381 18.838C2.3615 18.8244 2.33941 18.8104 2.31756 18.7961C2.2957 18.7818 2.27409 18.7671 2.25272 18.752C2.23135 18.737 2.21023 18.7216 2.18936 18.7059C2.16849 18.6901 2.14788 18.6741 2.12753 18.6577C2.10719 18.6413 2.08712 18.6245 2.06732 18.6074C2.04752 18.5904 2.02801 18.573 2.00878 18.5553C1.98955 18.5376 1.97061 18.5196 1.95197 18.5013C1.93333 18.483 1.91499 18.4643 1.89696 18.4454C1.87892 18.4265 1.8612 18.4073 1.84379 18.3878C1.82639 18.3683 1.80931 18.3485 1.79255 18.3285C1.77579 18.3084 1.75936 18.2881 1.74326 18.2675C1.72716 18.2469 1.71141 18.2261 1.696 18.205C1.68058 18.1839 1.66551 18.1625 1.6508 18.1409C1.63608 18.1193 1.62172 18.0975 1.60771 18.0754C1.59371 18.0534 1.58007 18.0311 1.56679 18.0086C1.55352 17.986 1.54061 17.9633 1.52808 17.9404C1.51555 17.9174 1.50339 17.8943 1.49161 17.871C1.47983 17.8477 1.46844 17.8241 1.45743 17.8004C1.44642 17.7767 1.4358 17.7528 1.42557 17.7288C1.41534 17.7047 1.40551 17.6805 1.39607 17.6562C1.38663 17.6318 1.37759 17.6073 1.36896 17.5826C1.36032 17.5579 1.35209 17.5331 1.34426 17.5082C1.33643 17.4832 1.32902 17.4582 1.32201 17.433C1.315 17.4078 1.3084 17.3825 1.30222 17.3572C1.29604 17.3318 1.29027 17.3063 1.28492 17.2807C1.27957 17.2551 1.27464 17.2294 1.27013 17.2037C1.26562 17.1779 1.26153 17.1521 1.25786 17.1263C1.25419 17.1004 1.25095 17.0745 1.24813 17.0485C1.24531 17.0225 1.24291 16.9965 1.24094 16.9704C1.23897 16.9443 1.23743 16.9183 1.23631 16.8922C1.23519 16.866 1.2345 16.8399 1.23423 16.8138L1.23423 14.0606C1.23423 13.7178 1.53938 13.4161 1.88566 13.4161C2.23366 13.4161 2.53709 13.7161 2.53709 14.0606L2.53709 16.8138C2.53709 17.1995 2.75654 17.5869 3.10282 17.7601L11.496 22.5344C11.5065 22.5409 11.5171 22.5472 11.5279 22.5534C11.5386 22.5596 11.5495 22.5655 11.5605 22.5713C11.5714 22.5771 11.5825 22.5827 11.5936 22.5881C11.6048 22.5935 11.616 22.5987 11.6274 22.6038C11.6387 22.6088 11.6501 22.6136 11.6616 22.6182C11.6731 22.6228 11.6847 22.6272 11.6964 22.6315C11.708 22.6357 11.7198 22.6397 11.7316 22.6435C11.7434 22.6473 11.7552 22.6509 11.7671 22.6543C11.779 22.6577 11.791 22.6609 11.8031 22.6639C11.8151 22.6669 11.8272 22.6696 11.8393 22.6722C11.8514 22.6747 11.8636 22.6771 11.8758 22.6792C11.888 22.6814 11.9003 22.6833 11.9126 22.685C11.9248 22.6867 11.9371 22.6882 11.9495 22.6895C11.9618 22.6908 11.9741 22.6919 11.9865 22.6928C11.9989 22.6936 12.0113 22.6943 12.0236 22.6947C12.036 22.6951 12.0484 22.6953 12.0608 22.6953C12.0732 22.6953 12.0856 22.6951 12.098 22.6947C12.1104 22.6943 12.1227 22.6936 12.1351 22.6928C12.1475 22.6919 12.1598 22.6908 12.1722 22.6895C12.1845 22.6882 12.1968 22.6867 12.2091 22.685C12.2213 22.6833 12.2336 22.6814 12.2458 22.6792C12.258 22.6771 12.2702 22.6747 12.2823 22.6722C12.2944 22.6696 12.3065 22.6669 12.3186 22.6639C12.3306 22.6609 12.3426 22.6577 12.3545 22.6543C12.3664 22.6509 12.3783 22.6473 12.3901 22.6435C12.4019 22.6397 12.4136 22.6357 12.4253 22.6315C12.4369 22.6272 12.4485 22.6228 12.46 22.6182C12.4715 22.6136 12.4829 22.6088 12.4943 22.6038C12.5056 22.5987 12.5168 22.5935 12.528 22.5881C12.5391 22.5827 12.5502 22.5771 12.5612 22.5713C12.5721 22.5655 12.583 22.5596 12.5937 22.5534C12.6045 22.5472 12.6151 22.5409 12.6257 22.5344L21.0171 17.7601C21.0275 17.7541 21.0379 17.748 21.0481 17.7418C21.0584 17.7355 21.0685 17.7291 21.0785 17.7224C21.0886 17.7159 21.0985 17.7091 21.1083 17.7022C21.1181 17.6953 21.1278 17.6882 21.1374 17.681C21.147 17.6737 21.1565 17.6664 21.1658 17.6588C21.1752 17.6513 21.1844 17.6436 21.1935 17.6358C21.2026 17.628 21.2116 17.62 21.2205 17.6119C21.2293 17.6038 21.238 17.5955 21.2466 17.5871C21.2552 17.5787 21.2636 17.5702 21.2719 17.5615C21.2802 17.5528 21.2884 17.544 21.2965 17.5351C21.3045 17.5262 21.3124 17.5171 21.3201 17.5079C21.3278 17.4987 21.3354 17.4894 21.3428 17.48C21.3503 17.4705 21.3576 17.461 21.3647 17.4513C21.3718 17.4417 21.3788 17.4319 21.3856 17.422C21.3924 17.4121 21.3991 17.4021 21.4055 17.392C21.412 17.3819 21.4184 17.3717 21.4245 17.3614C21.4307 17.3511 21.4367 17.3407 21.4425 17.3302C21.4483 17.3197 21.454 17.3091 21.4595 17.2984C21.465 17.2877 21.4703 17.2769 21.4754 17.2661C21.4805 17.2552 21.4855 17.2443 21.4903 17.2333C21.4951 17.2223 21.4997 17.2112 21.5041 17.2001C21.5086 17.1889 21.5128 17.1776 21.5169 17.1663C21.5209 17.1551 21.5248 17.1437 21.5286 17.1323C21.5323 17.1209 21.5358 17.1094 21.5391 17.0978C21.5424 17.0863 21.5456 17.0747 21.5486 17.0631C21.5515 17.0514 21.5543 17.0398 21.5569 17.028C21.5595 17.0163 21.5618 17.0045 21.5641 16.9927C21.5663 16.9809 21.5683 16.9691 21.5701 16.9572C21.5719 16.9453 21.5736 16.9334 21.575 16.9215C21.5764 16.9096 21.5777 16.8977 21.5788 16.8857C21.5798 16.8737 21.5807 16.8618 21.5814 16.8498C21.582 16.8378 21.5825 16.8258 21.5828 16.8138L21.5828 15.0069C21.5828 14.6641 21.8862 14.3624 22.2342 14.3624C22.5822 14.3624 22.8428 14.6195 22.8428 15.0069L22.8428 16.8138C22.8425 16.8399 22.8419 16.866 22.8407 16.8922C22.8396 16.9183 22.8381 16.9443 22.8361 16.9704C22.8341 16.9965 22.8317 17.0225 22.8289 17.0485C22.8261 17.0745 22.8228 17.1004 22.8192 17.1263C22.8155 17.1521 22.8114 17.1779 22.8069 17.2037C22.8024 17.2294 22.7975 17.2551 22.7921 17.2807C22.7868 17.3063 22.781 17.3318 22.7748 17.3572C22.7686 17.3826 22.762 17.4078 22.7551 17.433C22.748 17.4582 22.7406 17.4832 22.7328 17.5082C22.725 17.5331 22.7167 17.5579 22.7081 17.5826C22.6995 17.6073 22.6904 17.6318 22.681 17.6561C22.6715 17.6805 22.6617 17.7047 22.6515 17.7288C22.6412 17.7528 22.6306 17.7767 22.6196 17.8004C22.6086 17.8241 22.5972 17.8477 22.5854 17.871C22.5736 17.8943 22.5615 17.9174 22.549 17.9404C22.5364 17.9633 22.5235 17.986 22.5102 18.0086C22.497 18.0311 22.4833 18.0534 22.4693 18.0754C22.4553 18.0975 22.441 18.1193 22.4262 18.1409C22.4115 18.1625 22.3965 18.1839 22.3811 18.205C22.3656 18.2261 22.3499 18.2469 22.3338 18.2675C22.3177 18.2881 22.3013 18.3084 22.2845 18.3285C22.2677 18.3485 22.2507 18.3683 22.2333 18.3878C22.2158 18.4073 22.1981 18.4265 22.1801 18.4454C22.1621 18.4643 22.1437 18.483 22.1251 18.5013C22.1064 18.5196 22.0875 18.5376 22.0683 18.5553C22.049 18.573 22.0295 18.5904 22.0097 18.6074C21.9899 18.6245 21.9699 18.6412 21.9495 18.6577C21.9292 18.6741 21.9086 18.6901 21.8877 18.7059C21.8668 18.7216 21.8457 18.737 21.8243 18.752C21.8029 18.7671 21.7813 18.7818 21.7595 18.7961C21.7376 18.8104 21.7156 18.8244 21.6932 18.838C21.6709 18.8516 21.6484 18.8649 21.6257 18.8778L13.2771 23.652C12.8862 23.8662 12.4525 23.9949 12.06 23.9949L12.06 23.9965ZM14.148 15.3515L12.2794 15.3515L11.6674 13.5429L8.75309 13.5429L8.14625 15.3498L6.27767 15.3498L9.18853 7.43664L11.1891 7.43664L14.1462 15.3515L14.148 15.3515ZM11.3211 12.2109L10.4091 9.45778C10.3531 9.23095 10.3091 9.0018 10.2771 8.77036L10.2342 8.77036C10.2342 8.98464 10.1485 9.24349 10.104 9.45778L9.19025 12.2109L11.3211 12.2109ZM16.8857 7.39378L16.8857 15.3086L15.1902 15.3086L15.1902 7.39378L16.8874 7.39378L16.8857 7.39378ZM0.0170898 12.8126C0.0170898 13.7864 0.814234 14.5766 1.79995 14.5766C2.78396 14.5766 3.58282 13.7881 3.58282 12.8126C3.58282 11.8389 2.78396 11.0504 1.79995 11.0504C0.814234 11.0504 0.0170899 11.8389 0.0170899 12.8126L0.0170898 12.8126ZM20.3657 10.8772C20.3657 11.8509 21.1628 12.6412 22.1485 12.6412C23.1325 12.6412 23.9313 11.8526 23.9313 10.8772C23.9313 9.90349 23.1325 9.11493 22.1485 9.11493C21.1628 9.11493 20.3657 9.90349 20.3657 10.8772Z"   fill="#2A82E4" >
</path>
</svg>
