<?xml version="1.0" standalone="no"?><!DOCTYPE svg PUBLIC "-//W3C//DTD SVG 1.1//EN" "http://www.w3.org/Graphics/SVG/1.1/DTD/svg11.dtd"><svg t="1770127470966" class="icon" viewBox="0 0 1024 1024" version="1.1" xmlns="http://www.w3.org/2000/svg" p-id="22112" width="128" height="128" xmlns:xlink="http://www.w3.org/1999/xlink"><path d="M0 0h1024v1024H0z" fill="#ffffff" fill-opacity="0" p-id="22113"></path><path d="M828.416 564.6336H195.584a131.584 131.584 0 0 0-131.584 131.584v132.1984a131.584 131.584 0 0 0 131.584 131.584h632.832a131.584 131.584 0 0 0 131.584-131.584v-132.1984a131.584 131.584 0 0 0-131.584-131.584z m-632.832 76.8h632.832c30.208 0 54.784 24.5248 54.784 54.784v132.1984c0 30.208-24.576 54.784-54.784 54.784H195.584c-30.208 0-54.784-24.576-54.784-54.784v-132.1984c0-30.2592 24.576-54.784 54.784-54.784zM420.9664 86.7328a38.4 38.4 0 0 1 5.2224 76.4928l-5.2224 0.3072H193.4336c-27.136 0-49.4592 20.5312-52.3264 46.8992l-0.3072 5.7344V352.768c0 27.136 20.48 49.4592 46.8992 52.3264l5.7344 0.3072h227.5328a38.4 38.4 0 0 1 5.2224 76.4416l-5.2224 0.3584H193.4336a129.4336 129.4336 0 0 1-129.1776-120.9344L64 352.768V216.1664A129.4336 129.4336 0 0 1 184.9344 87.04l8.4992-0.3072h227.5328zM914.9952 323.5328a49.152 49.152 0 0 1-22.0672-40.7552c0-16.1792 8.192-31.3344 21.7088-40.448l15.8208-10.752-6.5536-17.6128A203.3152 203.3152 0 0 0 884.736 148.48l-12.4928-13.9776-17.2032 7.8848c-6.7584 2.9696-13.8752 4.608-21.3504 4.608a49.8688 49.8688 0 0 1-50.4832-44.8l-1.792-18.4832-18.7392-3.4816a218.8288 218.8288 0 0 0-77.6704 0l-18.7392 3.4816-1.792 18.4832a49.8688 49.8688 0 0 1-50.4832 44.8c-7.3216 0-14.6944-1.6384-21.3504-4.608l-17.2032-7.8848-12.288 13.8752c-17.152 19.3536-30.208 41.472-39.1168 65.3824l-6.5536 17.6128 15.7696 10.752a49.152 49.152 0 0 1 21.76 40.4992 48.9984 48.9984 0 0 1-22.1184 40.7552l-15.7696 10.496 6.2976 17.7152c8.5504 23.9616 21.504 46.08 38.4512 65.536l12.5952 14.4384 17.5616-8.3456a49.9712 49.9712 0 0 1 22.1184-4.8128c26.624 0 48.7936 20.224 50.5856 46.08l1.28 18.944 19.2512 3.4816a216.832 216.832 0 0 0 77.4144 0l19.2512-3.4816 1.28-18.944a50.2784 50.2784 0 0 1 50.5856-46.08c7.8336 0 15.2064 1.6896 22.0672 4.8128l17.6128 8.3456 12.544-14.4384c16.9984-19.456 29.952-41.5744 38.5024-65.536l6.2976-17.7152-15.8208-10.3936z m-56.9856 48.9472a105.728 105.728 0 0 0-24.2176-2.7648c-45.7216 0-84.992 30.1056-97.1264 71.5264a186.1632 186.1632 0 0 1-25.3952 0 100.9664 100.9664 0 0 0-97.1264-71.5264c-8.3456 0-16.2816 0.9216-24.2176 2.7648a171.7248 171.7248 0 0 1-12.7488-21.504 97.28 97.28 0 0 0 28.16-68.096c0-25.2928-10.0864-49.408-27.5456-67.4304 3.7888-7.7824 8.192-15.0528 13.1584-22.016 7.5264 1.7408 15.36 2.56 23.1936 2.56 25.3952 0 49.664-9.1136 68.096-25.8048 13.4656-12.032 23.1936-27.0848 28.3136-43.7248 8.7552-0.7168 17.5616-0.7168 26.368 0 5.2224 16.64 14.9504 31.6928 28.2624 43.7248 18.7392 16.6912 42.8544 25.8048 68.096 25.8048 7.9872 0 15.616-0.8192 23.1936-2.56 4.9664 6.9632 9.3696 14.336 13.1584 22.016-17.408 18.176-27.5456 42.24-27.5456 67.4816 0 25.6512 10.3424 49.9712 28.16 68.0448-3.072 7.3728-7.3728 14.6944-12.2368 21.504zM724.0704 196.608c-49.2544 0-89.3952 39.0144-89.3952 87.1424 0 48.0768 39.9872 87.1936 89.3952 87.1936s89.3952-39.0144 89.3952-87.1936c0-48.128-40.2432-87.1424-89.3952-87.1424z m0 125.2352a38.7584 38.7584 0 0 1-39.168-38.1952c0-21.0432 17.5616-38.1952 39.168-38.1952s39.2192 17.152 39.2192 38.1952a38.7584 38.7584 0 0 1-39.2192 38.1952z" fill="#ffffff" p-id="22114"></path></svg>