<svg xmlns="http://www.w3.org/2000/svg" xmlns:xlink="http://www.w3.org/1999/xlink" width="24" height="24" viewBox="0 0 24 24" fill="none">
<path d="M22.9001 20.733L18.3074 16.3015L18.3505 16.2475C19.5872 14.7162 20.2684 12.7881 20.2684 10.8196C20.2684 6.04493 16.3838 2.16 11.6103 2.16C6.83534 2.16 2.95001 6.04493 2.95001 10.8196C2.95001 15.5941 6.83534 19.4787 11.6103 19.4787C13.7025 19.4787 15.7238 18.7182 17.3019 17.3391L17.3537 17.2939L21.9354 21.6758L21.9813 21.6758L21.982 21.7138C22.098 21.7954 22.2286 21.8385 22.3707 21.8385C22.7499 21.8385 23.0576 21.5293 23.0576 21.1515C23.0576 21.0057 23.0052 20.8643 22.9001 20.733ZM11.6103 18.1027C7.59406 18.1027 4.32716 14.8358 4.32716 10.8196C4.32716 6.80372 7.59406 3.53753 11.6103 3.53753C15.6253 3.53753 18.8923 6.80372 18.8923 10.8196C18.8923 14.8358 15.6254 18.1027 11.6103 18.1027Z"   fill="#2A82E4" >
</path>
</svg>
