<?xml version="1.0" encoding="UTF-8"?>
<svg width="24px" height="24px" viewBox="0 0 24 24" version="1.1" xmlns="http://www.w3.org/2000/svg" xmlns:xlink="http://www.w3.org/1999/xlink">
    <title>ProductOutlined</title>
    <g id="页面-1" stroke="none" stroke-width="1" fill="none" fill-rule="evenodd">
        <g id="icon" transform="translate(-328, -108)" fill="#FFFFFF">
            <g id="ProductOutlined" transform="translate(328, 108)">
                <rect id="矩形" opacity="0" x="0" y="0" width="24" height="24"></rect>
                <path d="M10.6632317,2.20237286 C10.8995769,2.20237286 11.0913933,2.39421062 11.0913933,2.63058214 L11.0913933,10.7677005 C11.0913933,11.0041939 10.8996988,11.1959098 10.6632317,11.1959098 L2.52816159,11.1959098 C2.29169447,11.1959098 2.1,11.0041939 2.1,10.7677005 L2.1,2.63058214 C2.1,2.39421062 2.29181639,2.20237286 2.52816159,2.20237286 L10.6632317,2.20237286 Z M9.27142112,4.02368968 L3.92111394,4.02368968 L3.92111394,9.37687671 L9.2725629,9.37687671 L9.2725629,4.0225478 L9.27142112,4.02368968 Z M22.4747827,6.36913469 C22.6417391,6.53631761 22.6417391,6.80715421 22.4747827,6.97433714 L17.6302771,11.8193825 C17.4631128,11.9863575 17.1923063,11.9863575 17.025142,11.8193825 L12.1806364,6.97547904 C12.01368,6.80829611 12.01368,6.53745949 12.1806364,6.37027656 L17.025142,1.52523125 C17.1923063,1.35825625 17.4631128,1.35825625 17.6302771,1.52523125 L22.4747827,6.36913469 Z M20.2038136,6.6728778 L17.3265678,3.7953114 L14.4516054,6.6728778 L17.3277095,9.5493023 L20.2038136,6.6717359 L20.2038136,6.6728778 Z M10.6643735,12.907605 C10.9007187,12.907605 11.0925351,13.0994428 11.0925351,13.3369562 L11.0925351,21.4717907 C11.0925351,21.7082842 10.9008406,21.9 10.6643735,21.9 L2.52816159,21.9 C2.29169447,21.9 2.1,21.7082842 2.1,21.4717907 L2.1,13.3369562 C2.1,13.0994428 2.29181639,12.9087469 2.52816159,12.9087469 L10.6632317,12.9087469 L10.6643735,12.907605 Z M9.2725629,14.7277799 L3.92111394,14.7277799 L3.92111394,20.080967 L9.2725629,20.080967 L9.2725629,14.7277799 L9.2725629,14.7277799 Z M21.7965747,13.3369562 L21.7965747,21.4717907 C21.7965747,21.7082842 21.6048803,21.9 21.3684132,21.9 L13.233343,21.9 C12.9968759,21.9 12.8051814,21.7082842 12.8051814,21.4717907 L12.8051814,13.3369562 C12.8051814,13.0994428 12.9969978,12.9087469 13.233343,12.9087469 L21.3684132,12.9087469 C21.6047584,12.9087469 21.7965747,13.0994428 21.7965747,13.3369562 Z M19.9766026,14.7277799 L14.6251536,14.7277799 L14.6251536,20.080967 L19.9766026,20.080967 L19.9766026,14.7277799 Z" id="形状" fill-rule="nonzero"></path>
            </g>
        </g>
    </g>
</svg>