<?xml version="1.0" encoding="UTF-8"?>
<svg width="24px" height="24px" viewBox="0 0 24 24" version="1.1" xmlns="http://www.w3.org/2000/svg" xmlns:xlink="http://www.w3.org/1999/xlink">
    <title>folder-open备份</title>
    <g id="页面-1" stroke="none" stroke-width="1" fill="none" fill-rule="evenodd">
        <g id="icon" transform="translate(-244, -108)" fill="#FFFFFF">
            <g id="folder-open备份" transform="translate(244, 108)">
                <rect id="矩形" opacity="0" x="0" y="0" width="24" height="24"></rect>
                <path d="M22.2142857,9.73780488 L19.5625,9.73780488 L19.5625,6.79390244 C19.5625,6.33521341 19.2113839,5.96463415 18.7767857,5.96463415 L11.0424107,5.96463415 L8.16227679,3.0570122 C8.12544643,3.02073171 8.07633929,3 8.02723214,3 L1.78571429,3 C1.35111607,3 1,3.37057927 1,3.82926829 L1,19.1707317 C1,19.6294207 1.35111607,20 1.78571429,20 L18.9241071,20 C19.2433036,20 19.5330357,19.7952744 19.6533482,19.4817073 L22.9435268,10.8780488 C22.9803571,10.7795732 23,10.6733232 23,10.5670732 C23,10.1083841 22.6488839,9.73780488 22.2142857,9.73780488 Z M2.76785714,4.86585366 L7.39620536,4.86585366 L10.3328125,7.8304878 L17.7946429,7.8304878 L17.7946429,9.73780488 L5.27232143,9.73780488 C4.953125,9.73780488 4.66339286,9.94253049 4.54308036,10.2560976 L2.76785714,14.9 L2.76785714,4.86585366 Z M18.3667411,18.1341463 L3.33258929,18.1341463 L5.86897321,11.5 L20.9055804,11.5 L18.3667411,18.1341463 Z" id="形状" fill-rule="nonzero"></path>
            </g>
        </g>
    </g>
</svg>