<svg xmlns="http://www.w3.org/2000/svg" xmlns:xlink="http://www.w3.org/1999/xlink" width="24" height="24" viewBox="0 0 24 24" fill="none">
<path d="M23.5113 9.49126C23.5041 9.48172 23.4968 9.4723 23.4893 9.46297C23.4818 9.45364 23.4741 9.44443 23.4663 9.43534C23.4586 9.42622 23.4509 9.41724 23.4427 9.40836C23.4347 9.39948 23.4265 9.39073 23.4183 9.38209C23.41 9.37344 23.4016 9.36493 23.393 9.35654C23.3845 9.34815 23.3759 9.33988 23.3671 9.33172C23.3583 9.32359 23.3494 9.31557 23.3404 9.30767C23.3314 9.2998 23.3223 9.29204 23.3131 9.28442C23.3039 9.2768 23.2946 9.2693 23.2851 9.26195C23.2757 9.25459 23.2661 9.24737 23.2565 9.24029C23.2468 9.23321 23.2371 9.22627 23.2272 9.21948C23.2174 9.21268 23.2075 9.20602 23.1974 9.19953C23.1874 9.19302 23.1772 9.18666 23.167 9.18045C23.1568 9.17424 23.1465 9.16817 23.1361 9.16224C23.1257 9.15631 23.1152 9.15055 23.1046 9.14495C23.094 9.13934 23.0834 9.13388 23.0727 9.12856C23.0619 9.12327 23.0511 9.11811 23.0403 9.11312C23.0294 9.10813 23.0184 9.1033 23.0074 9.09863C22.9964 9.09395 22.9853 9.08942 22.9742 9.08509C22.963 9.08073 22.9518 9.07653 22.9406 9.0725C22.9293 9.06847 22.918 9.0646 22.9066 9.0609C22.8952 9.0572 22.8838 9.05366 22.8723 9.05028C22.8608 9.04691 22.8493 9.0437 22.8377 9.04067C22.8261 9.03762 22.8145 9.03474 22.8029 9.03205C22.7912 9.02935 22.7795 9.02682 22.7678 9.02445C22.7561 9.02209 22.7443 9.01991 22.7325 9.01787C22.7207 9.01585 22.7089 9.014 22.697 9.01231C22.6852 9.01062 22.6733 9.00912 22.6614 9.00779C22.6495 9.00645 22.6376 9.00528 22.6257 9.0043C22.6138 9.00329 22.6018 9.00247 22.5899 9.00181C22.5779 9.00118 22.566 9.00071 22.554 9.00041C22.542 9.0001 22.5301 8.99996 22.5181 9.00001L21 9.00001L21 6.25002C21 6.22955 20.9995 6.20912 20.9984 6.1887C20.9974 6.16827 20.9959 6.14787 20.9939 6.12753C20.9918 6.10716 20.9893 6.08689 20.9863 6.06666C20.9833 6.04644 20.9797 6.02628 20.9757 6.00624C20.9717 5.98618 20.9673 5.96623 20.9623 5.94641C20.9573 5.92658 20.9518 5.90687 20.9459 5.8873C20.9399 5.86773 20.9335 5.84832 20.9266 5.82908C20.9197 5.80984 20.9123 5.79076 20.9045 5.77187C20.8966 5.75298 20.8883 5.7343 20.8796 5.7158C20.8708 5.69731 20.8616 5.67905 20.852 5.66103C20.8423 5.64301 20.8323 5.62522 20.8217 5.60769C20.8112 5.59013 20.8003 5.57286 20.7889 5.55587C20.7775 5.53888 20.7658 5.52216 20.7536 5.50573C20.7414 5.4893 20.7288 5.4732 20.7158 5.45738C20.7029 5.44159 20.6895 5.42612 20.6758 5.41095C20.662 5.39579 20.6479 5.381 20.6335 5.36654C20.619 5.35208 20.6042 5.33797 20.589 5.32423C20.5739 5.3105 20.5584 5.29714 20.5426 5.28418C20.5268 5.2712 20.5107 5.25861 20.4943 5.24642C20.4778 5.23423 20.4611 5.22247 20.4441 5.2111C20.4271 5.19973 20.4099 5.18879 20.3923 5.17827C20.3748 5.16774 20.357 5.15766 20.339 5.14801C20.3209 5.13838 20.3027 5.12916 20.2842 5.12042C20.2657 5.11168 20.247 5.10338 20.2281 5.09553C20.2092 5.0877 20.1902 5.08034 20.1709 5.07343C20.1517 5.06652 20.1323 5.06009 20.1127 5.05414C20.0931 5.04819 20.0734 5.04273 20.0536 5.03773C20.0338 5.03274 20.0138 5.02827 19.9938 5.02426C19.9737 5.02025 19.9536 5.01673 19.9333 5.01371C19.9131 5.01069 19.8928 5.00818 19.8725 5.00616C19.8521 5.00413 19.8317 5.0026 19.8113 5.00157C19.7909 5.00056 19.7705 5.00002 19.75 5L10.8106 5C10.8024 5.00002 10.7943 4.99965 10.7861 4.99887C10.778 4.9981 10.7699 4.99691 10.7618 4.99531C10.7538 4.99374 10.7459 4.99175 10.738 4.98938C10.7302 4.98702 10.7225 4.98425 10.7149 4.98111C10.7073 4.97797 10.6999 4.97445 10.6927 4.97059C10.6855 4.96672 10.6785 4.96252 10.6717 4.95795C10.6649 4.95338 10.6583 4.94848 10.652 4.94328C10.6457 4.93806 10.6397 4.93255 10.6339 4.92673L8.07328 2.36609C8.05884 2.35159 8.04405 2.33745 8.02894 2.32367C8.01382 2.30989 7.99835 2.29649 7.98255 2.28348C7.96676 2.27046 7.95066 2.25785 7.93423 2.24563C7.91782 2.23341 7.90111 2.2216 7.88412 2.21021C7.86713 2.19882 7.84985 2.18785 7.8323 2.17732C7.81474 2.16678 7.79695 2.15668 7.77891 2.14702C7.76088 2.13736 7.7426 2.12815 7.72411 2.1194C7.70562 2.11064 7.68691 2.10235 7.668 2.09452C7.64909 2.08669 7.63001 2.07933 7.61072 2.07244C7.59145 2.06555 7.57202 2.05915 7.55243 2.05322C7.53286 2.04729 7.51312 2.04185 7.49327 2.0369C7.47342 2.03195 7.45345 2.02749 7.43337 2.02353C7.41328 2.01956 7.39313 2.0161 7.37288 2.01313C7.35265 2.01016 7.33233 2.0077 7.31196 2.00573C7.29159 2.00377 7.27118 2.00231 7.25074 2.00135C7.23028 2.0004 7.20984 1.99995 7.18938 2L1.25 2C1.22955 2.00003 1.20911 2.00055 1.18869 2.00158C1.16826 2.0026 1.14787 2.00413 1.12752 2.00615C1.10717 2.00818 1.08688 2.0107 1.06666 2.01372C1.04643 2.01674 1.02629 2.02025 1.00624 2.02426C0.98618 2.02826 0.966237 2.03276 0.946402 2.03774C0.926566 2.04273 0.906867 2.0482 0.887302 2.05415C0.867734 2.0601 0.848325 2.06652 0.829076 2.07342C0.809824 2.08033 0.790753 2.0877 0.771865 2.09553C0.752974 2.10337 0.734288 2.11166 0.715805 2.12042C0.697322 2.12917 0.679064 2.13837 0.661031 2.14802C0.643001 2.15767 0.625216 2.16775 0.607678 2.17827C0.59014 2.18879 0.572871 2.19973 0.55587 2.2111C0.538868 2.22247 0.522155 2.23424 0.505732 2.24643C0.489309 2.25861 0.473194 2.2712 0.457385 2.28417C0.441579 2.29715 0.426098 2.3105 0.410946 2.32424C0.395794 2.33797 0.380988 2.35207 0.366527 2.36654C0.352066 2.38099 0.337969 2.39579 0.324234 2.41095C0.310498 2.42611 0.297143 2.44158 0.284166 2.45738C0.271191 2.47319 0.258609 2.48931 0.246424 2.50573C0.234238 2.52215 0.222461 2.53887 0.211094 2.55586C0.199728 2.57288 0.188784 2.59015 0.178264 2.60769C0.167744 2.62522 0.15766 2.643 0.148012 2.66103C0.138364 2.67906 0.129163 2.69732 0.12041 2.7158C0.111657 2.73429 0.103363 2.75297 0.0955259 2.77186C0.0876891 2.79076 0.0803196 2.80983 0.0734177 2.82908C0.0665159 2.84833 0.0600898 2.86774 0.0541395 2.88732C0.0481891 2.90688 0.0427219 2.92658 0.0377374 2.9464C0.032753 2.96625 0.0282572 2.98619 0.0242505 3.00624C0.0202439 3.02629 0.016731 3.04643 0.0137118 3.06666C0.0106926 3.0869 0.00817069 3.10719 0.00614616 3.12753C0.00412162 3.14787 0.00259687 3.16826 0.0015719 3.1887C0.000546928 3.20912 2.296e-05 3.22956 0 3.25001L0 19.75C2.29352e-05 19.7705 0.000546879 19.7909 0.00157183 19.8113C0.00259678 19.8317 0.00412151 19.8521 0.00614602 19.8725C0.00817052 19.8928 0.0106924 19.9131 0.0137116 19.9333C0.0167308 19.9536 0.0202437 19.9737 0.0242503 19.9938C0.028257 20.0138 0.0327525 20.0338 0.037737 20.0536C0.0427214 20.0735 0.0481889 20.0931 0.0541392 20.1127C0.0600895 20.1323 0.0665156 20.1517 0.0734173 20.1709C0.0803191 20.1902 0.0876886 20.2092 0.0955254 20.2281C0.103362 20.247 0.111657 20.2657 0.12041 20.2842C0.129163 20.3027 0.138364 20.321 0.148012 20.339C0.15766 20.357 0.167744 20.3748 0.178264 20.3923C0.188784 20.4099 0.199727 20.4271 0.211094 20.4441C0.22246 20.4611 0.234236 20.4778 0.246422 20.4943C0.258607 20.5107 0.271188 20.5268 0.284166 20.5426C0.297143 20.5584 0.310498 20.5739 0.324232 20.5891C0.337969 20.6042 0.352066 20.619 0.366527 20.6335C0.380988 20.648 0.395794 20.662 0.410946 20.6758C0.426098 20.6895 0.441579 20.7029 0.457385 20.7159C0.473191 20.7288 0.489307 20.7414 0.505732 20.7536C0.522155 20.7658 0.538868 20.7775 0.55587 20.7889C0.572869 20.8003 0.590137 20.8112 0.607676 20.8217C0.625214 20.8323 0.643001 20.8423 0.661031 20.852C0.679064 20.8616 0.697322 20.8708 0.715805 20.8796C0.734288 20.8884 0.752974 20.8966 0.771863 20.9045C0.790753 20.9123 0.809824 20.9197 0.829076 20.9266C0.848325 20.9335 0.867734 20.9399 0.887302 20.9459C0.906867 20.9518 0.926566 20.9573 0.946402 20.9623C0.966237 20.9673 0.98618 20.9717 1.00624 20.9757C1.02629 20.9798 1.04643 20.9833 1.06666 20.9863C1.08688 20.9893 1.10717 20.9918 1.12752 20.9939C1.14787 20.9959 1.16826 20.9974 1.18869 20.9984C1.20911 20.9995 1.22955 21 1.25 21L19.9272 21C19.9442 21 19.9612 20.9996 19.9781 20.9989C19.9951 20.9982 20.012 20.9971 20.029 20.9957C20.0459 20.9942 20.0628 20.9925 20.0797 20.9904C20.0965 20.9883 20.1133 20.9859 20.1301 20.9831C20.1469 20.9803 20.1635 20.9772 20.1802 20.9737C20.1968 20.9702 20.2134 20.9664 20.2298 20.9623C20.2463 20.9582 20.2627 20.9537 20.279 20.9489C20.2953 20.9441 20.3115 20.939 20.3276 20.9335C20.3437 20.9281 20.3596 20.9223 20.3755 20.9161C20.3913 20.91 20.4071 20.9036 20.4226 20.8969C20.4382 20.8901 20.4537 20.8831 20.469 20.8757C20.4843 20.8683 20.4994 20.8606 20.5144 20.8526C20.5294 20.8446 20.5442 20.8363 20.5589 20.8277C20.5735 20.8191 20.588 20.8102 20.6023 20.801C20.6166 20.7919 20.6307 20.7824 20.6446 20.7726C20.6585 20.7628 20.6722 20.7528 20.6857 20.7425C20.6992 20.7322 20.7124 20.7216 20.7255 20.7107C20.7386 20.6999 20.7514 20.6888 20.764 20.6774C20.7766 20.666 20.789 20.6544 20.8012 20.6425C20.8133 20.6306 20.8252 20.6185 20.8369 20.6061C20.8485 20.5937 20.8599 20.5811 20.871 20.5683C20.8822 20.5555 20.893 20.5424 20.9036 20.5292C20.9142 20.5159 20.9246 20.5024 20.9346 20.4887C20.9447 20.475 20.9544 20.4611 20.9639 20.447C20.9734 20.433 20.9826 20.4187 20.9915 20.4042C21.0004 20.3897 21.009 20.3751 21.0174 20.3603C21.0257 20.3455 21.0337 20.3305 21.0414 20.3154C21.0491 20.3002 21.0565 20.2849 21.0636 20.2695C21.0706 20.254 21.0774 20.2385 21.0839 20.2227C21.0903 20.207 21.0964 20.1912 21.1022 20.1752C21.108 20.1593 21.1135 20.1432 21.1187 20.127C21.1238 20.1108 21.1286 20.0945 21.1331 20.0781L23.7241 10.5781C23.7272 10.5666 23.7302 10.555 23.733 10.5434C23.7359 10.5318 23.7387 10.5202 23.7412 10.5085C23.7438 10.4968 23.7459 10.485 23.748 10.4733C23.7502 10.4615 23.7523 10.4497 23.7541 10.4379C23.756 10.4261 23.7577 10.4143 23.7591 10.4024C23.7607 10.3905 23.7619 10.3786 23.763 10.3667C23.7642 10.3548 23.7654 10.3429 23.7661 10.331C23.7668 10.319 23.7675 10.3071 23.768 10.2952C23.7684 10.2832 23.7687 10.2713 23.7687 10.2593C23.7689 10.2473 23.7687 10.2354 23.7684 10.2234C23.7682 10.2115 23.768 10.1995 23.7673 10.1876C23.7666 10.1756 23.7659 10.1637 23.7652 10.1518C23.7642 10.1398 23.763 10.1279 23.7616 10.1161C23.7605 10.1042 23.7591 10.0923 23.7574 10.0804C23.7558 10.0686 23.7541 10.0568 23.752 10.045C23.7502 10.0332 23.748 10.0214 23.7457 10.0097C23.7434 9.99793 23.7408 9.98621 23.7382 9.97456C23.7356 9.96289 23.733 9.95127 23.73 9.93969C23.727 9.92811 23.7239 9.91658 23.7204 9.90507C23.7171 9.89356 23.7136 9.88212 23.7101 9.87073C23.7066 9.85934 23.7026 9.848 23.6986 9.83673C23.6946 9.82545 23.6906 9.81423 23.6864 9.80305C23.682 9.79189 23.6775 9.7808 23.673 9.76977C23.6684 9.75873 23.6637 9.74776 23.6588 9.73686C23.6538 9.72596 23.6487 9.71513 23.6435 9.70437C23.6381 9.69362 23.6327 9.68295 23.6273 9.67236C23.6217 9.66177 23.6161 9.65127 23.6102 9.64084C23.6044 9.63041 23.5983 9.62005 23.5922 9.6098C23.5859 9.59954 23.5795 9.58937 23.5732 9.57929C23.5669 9.56923 23.5603 9.55925 23.5535 9.54936C23.5467 9.53947 23.5399 9.5297 23.5329 9.52002C23.5259 9.51034 23.5186 9.50075 23.5113 9.49126ZM1.25 3.00001L7.18938 3.00001C7.19756 2.99997 7.20574 3.00036 7.2139 3.00115C7.22203 3.00193 7.23014 3.00312 7.23818 3.00469C7.24622 3.00629 7.25414 3.00827 7.26199 3.01065C7.26982 3.01302 7.27753 3.01577 7.2851 3.0189C7.29267 3.02204 7.30005 3.02555 7.30727 3.02942C7.31449 3.03329 7.3215 3.03751 7.3283 3.04208C7.33509 3.04664 7.34166 3.05153 7.34796 3.05675C7.35427 3.06197 7.36031 3.06748 7.3661 3.07329L9.92672 5.63391C9.94116 5.64842 9.95595 5.66258 9.97106 5.67634C9.98618 5.69012 10.0016 5.70352 10.0174 5.71653C10.0332 5.72954 10.0493 5.74217 10.0658 5.75438C10.0822 5.76659 10.0989 5.77841 10.1159 5.7898C10.1329 5.80119 10.1502 5.81216 10.1677 5.8227C10.1853 5.83323 10.203 5.84333 10.2211 5.85298C10.2391 5.86266 10.2574 5.87187 10.2759 5.88062C10.2944 5.88936 10.3131 5.89766 10.332 5.90548C10.3509 5.91334 10.37 5.9207 10.3893 5.92756C10.4085 5.93445 10.428 5.94088 10.4476 5.94681C10.4671 5.95273 10.4869 5.95817 10.5067 5.96312C10.5266 5.96806 10.5465 5.97252 10.5666 5.97648C10.5867 5.98044 10.6069 5.98391 10.6271 5.98688C10.6474 5.98986 10.6677 5.99232 10.688 5.99429C10.7084 5.99623 10.7288 5.99769 10.7493 5.99865C10.7697 5.99961 10.7902 6.00008 10.8106 6.00001L19.75 6.00001C19.7541 6.00001 19.7582 6.0001 19.7623 6.00031C19.7664 6.00052 19.7704 6.0008 19.7745 6.0012C19.7786 6.0016 19.7826 6.00212 19.7867 6.0027C19.7907 6.00331 19.7948 6.00402 19.7988 6.00481C19.8028 6.00561 19.8068 6.0065 19.8107 6.00751C19.8147 6.00849 19.8187 6.00957 19.8226 6.01077C19.8265 6.01196 19.8304 6.01325 19.8342 6.01463C19.8381 6.01602 19.8419 6.01747 19.8457 6.01904C19.8495 6.02061 19.8532 6.02225 19.8569 6.02401C19.8606 6.02577 19.8642 6.02759 19.8679 6.02952C19.8715 6.03146 19.875 6.03348 19.8785 6.03559C19.882 6.03767 19.8855 6.03988 19.8889 6.04215C19.8923 6.04442 19.8956 6.04677 19.8989 6.0492C19.9022 6.05164 19.9054 6.05415 19.9086 6.05675C19.9118 6.05935 19.9149 6.06202 19.9179 6.06477C19.9209 6.06751 19.9239 6.07034 19.9268 6.07323C19.9297 6.07611 19.9325 6.07909 19.9352 6.08211C19.938 6.08513 19.9406 6.08825 19.9433 6.09141C19.9459 6.09458 19.9484 6.09779 19.9508 6.10107C19.9532 6.10437 19.9556 6.10773 19.9579 6.11112C19.9601 6.11452 19.9623 6.11797 19.9644 6.12148C19.9665 6.12498 19.9685 6.12854 19.9705 6.13215C19.9724 6.13576 19.9742 6.13941 19.976 6.14312C19.9778 6.14682 19.9794 6.15057 19.981 6.15434C19.9825 6.15812 19.984 6.16194 19.9854 6.16578C19.9868 6.16965 19.988 6.17352 19.9892 6.17743C19.9904 6.18134 19.9915 6.1853 19.9925 6.18927C19.9935 6.19323 19.9944 6.19723 19.9952 6.20124C19.996 6.20525 19.9967 6.20928 19.9973 6.21334C19.9979 6.21739 19.9984 6.22145 19.9988 6.2255C19.9992 6.22958 19.9995 6.23366 19.9997 6.23773C19.9999 6.24184 20 6.24591 20 6.25002L20 9.00001L4.0728 9.00001C4.05581 9.00003 4.03884 9.00041 4.02187 9.00113C4.00491 9.00186 3.98796 9.00294 3.97102 9.00434C3.95409 9.00575 3.9372 9.00751 3.92034 9.00962C3.90349 9.0117 3.88666 9.01414 3.86991 9.01693C3.85315 9.01972 3.83646 9.02284 3.81982 9.0263C3.8032 9.02977 3.78663 9.03357 3.77016 9.03769C3.75368 9.04184 3.7373 9.0463 3.72101 9.0511C3.70472 9.05591 3.68852 9.06104 3.67245 9.0665C3.65634 9.07196 3.64038 9.07775 3.62454 9.08387C3.60867 9.08998 3.59295 9.09641 3.57736 9.10316C3.56177 9.10991 3.54633 9.11696 3.53102 9.12434C3.51572 9.13173 3.50058 9.13941 3.4856 9.14741C3.4706 9.1554 3.45579 9.1637 3.44114 9.1723C3.42649 9.1809 3.41201 9.18978 3.39773 9.19897C3.38344 9.20816 3.36933 9.21762 3.35543 9.2274C3.34153 9.23717 3.32782 9.2472 3.31432 9.25751C3.30084 9.26783 3.28755 9.27842 3.27448 9.28927C3.26142 9.30013 3.24858 9.31126 3.23597 9.32263C3.22336 9.33399 3.21098 9.34564 3.19884 9.35752C3.1867 9.36941 3.1748 9.38155 3.16315 9.3939C3.1515 9.40627 3.14011 9.41888 3.12898 9.4317C3.11784 9.44452 3.10699 9.45758 3.09637 9.47084C3.08578 9.48413 3.07545 9.49761 3.06539 9.5113C3.05534 9.52498 3.04556 9.53888 3.03607 9.55297C3.02658 9.56705 3.01739 9.58135 3.00848 9.59581C2.99955 9.61027 2.99095 9.6249 2.98263 9.63973C2.97431 9.65455 2.96632 9.66952 2.95861 9.68466C2.9509 9.6998 2.94352 9.71509 2.93644 9.73053C2.92936 9.74598 2.92259 9.76154 2.91614 9.77727C2.9097 9.79299 2.90355 9.80884 2.89777 9.8248C2.89195 9.84076 2.88647 9.85684 2.88134 9.87303C2.87618 9.88923 2.87135 9.90549 2.86687 9.92188L1 16.7664L1 3.25001C1 3.24592 1.0001 3.24183 1.0003 3.23773C1.0005 3.23365 1.0008 3.22958 1.0012 3.2255C1.0016 3.22144 1.00211 3.21738 1.00271 3.21333C1.00331 3.20929 1.004 3.20525 1.0048 3.20124C1.0056 3.19723 1.0065 3.19323 1.00749 3.18926C1.00849 3.1853 1.00958 3.18135 1.01077 3.17743C1.01195 3.17352 1.01324 3.16964 1.01461 3.16578C1.01599 3.16194 1.01746 3.15812 1.01903 3.15434C1.0206 3.15056 1.02225 3.14682 1.024 3.14311C1.02575 3.13941 1.02759 3.13576 1.02952 3.13215C1.03145 3.12855 1.03346 3.125 1.03557 3.12148C1.03767 3.11797 1.03986 3.11451 1.04213 3.11112C1.04441 3.10772 1.04676 3.10437 1.0492 3.10109C1.05164 3.09779 1.05415 3.09457 1.05675 3.09141C1.05934 3.08824 1.06201 3.08514 1.06476 3.08211C1.06751 3.07908 1.07033 3.07611 1.07322 3.07322C1.07612 3.07033 1.07908 3.06751 1.08211 3.06476C1.08514 3.06201 1.08824 3.05934 1.0914 3.05675C1.09456 3.05415 1.09779 3.05164 1.10108 3.0492C1.10436 3.04676 1.10771 3.04441 1.11111 3.04215C1.11451 3.03987 1.11797 3.03768 1.12147 3.03558C1.12498 3.03347 1.12854 3.03146 1.13215 3.02954C1.13576 3.0276 1.13941 3.02576 1.14311 3.02401C1.14681 3.02225 1.15055 3.0206 1.15433 3.01904C1.15811 3.01747 1.16193 3.01601 1.16578 3.01463C1.16963 3.01324 1.17351 3.01195 1.17743 3.01076C1.18134 3.00957 1.18529 3.00849 1.18925 3.00751C1.19322 3.0065 1.19721 3.00561 1.20123 3.00481C1.20524 3.00401 1.20927 3.00331 1.21332 3.0027C1.21736 3.00211 1.22142 3.00161 1.2255 3.0012C1.22957 3.00081 1.23365 3.00051 1.23773 3.00031C1.24182 3.00011 1.24591 3.00001 1.25 3.00001ZM22.7592 10.3158L20.1683 19.8158C20.1674 19.8191 20.1664 19.8223 20.1654 19.8256C20.1644 19.8288 20.1633 19.832 20.1621 19.8352C20.161 19.8384 20.1597 19.8416 20.1585 19.8447C20.1572 19.8479 20.1558 19.851 20.1544 19.8541C20.153 19.8571 20.1515 19.8602 20.15 19.8632C20.1484 19.8663 20.1469 19.8693 20.1452 19.8722C20.1435 19.8752 20.1418 19.8781 20.14 19.881C20.1383 19.8839 20.1364 19.8867 20.1345 19.8896C20.1326 19.8924 20.1307 19.8952 20.1286 19.8979C20.1266 19.9006 20.1246 19.9033 20.1225 19.906C20.1203 19.9086 20.1182 19.9113 20.1159 19.9138C20.1137 19.9164 20.1114 19.9189 20.1091 19.9214C20.1068 19.9239 20.1044 19.9263 20.102 19.9287C20.0996 19.931 20.0971 19.9334 20.0945 19.9356C20.092 19.9379 20.0895 19.9401 20.0869 19.9423C20.0842 19.9445 20.0816 19.9466 20.0789 19.9486C20.0762 19.9507 20.0734 19.9527 20.0707 19.9547C20.0679 19.9566 20.0651 19.9585 20.0622 19.9603C20.0593 19.9622 20.0565 19.964 20.0535 19.9657C20.0506 19.9674 20.0476 19.9691 20.0446 19.9707C20.0416 19.9722 20.0386 19.9738 20.0355 19.9753C20.0325 19.9767 20.0294 19.9782 20.0263 19.9795C20.0231 19.9808 20.02 19.9821 20.0168 19.9833C20.0137 19.9846 20.0105 19.9857 20.0073 19.9868C20.004 19.9879 20.0008 19.9889 19.9975 19.9899C19.9943 19.9908 19.991 19.9917 19.9877 19.9925C19.9844 19.9934 19.9811 19.9941 19.9778 19.9948C19.9744 19.9955 19.9711 19.9961 19.9678 19.9967C19.9644 19.9972 19.961 19.9977 19.9577 19.9981C19.9543 19.9985 19.9509 19.9989 19.9475 19.9992C19.9441 19.9994 19.9408 19.9996 19.9374 19.9998C19.934 19.9999 19.9306 20 19.9272 20L1.48188 20C1.47709 20 1.47231 19.9999 1.46753 19.9996C1.46276 19.9993 1.45799 19.9989 1.45324 19.9984C1.44849 19.9978 1.44375 19.9971 1.43904 19.9963C1.43433 19.9955 1.42964 19.9945 1.42498 19.9934C1.42033 19.9923 1.4157 19.9911 1.41112 19.9898C1.40653 19.9884 1.40198 19.9869 1.39748 19.9853C1.39298 19.9837 1.38852 19.9819 1.38412 19.9801C1.37972 19.9782 1.37537 19.9762 1.37108 19.9741C1.3668 19.9719 1.36257 19.9697 1.35841 19.9674C1.35425 19.965 1.35017 19.9625 1.34615 19.9599C1.34213 19.9573 1.33819 19.9546 1.33433 19.9518C1.33047 19.9489 1.3267 19.946 1.323 19.943C1.31931 19.9399 1.31571 19.9368 1.3122 19.9335C1.30868 19.9303 1.30527 19.9269 1.30195 19.9235C1.29863 19.92 1.29541 19.9165 1.29229 19.9129C1.28918 19.9092 1.28617 19.9055 1.28327 19.9017C1.28036 19.8979 1.27757 19.894 1.27489 19.8901C1.27221 19.8861 1.26964 19.8821 1.2672 19.878C1.26475 19.8739 1.26242 19.8697 1.26021 19.8654C1.258 19.8612 1.25592 19.8569 1.25396 19.8525C1.25199 19.8481 1.25016 19.8437 1.24845 19.8393C1.24674 19.8348 1.24516 19.8303 1.24371 19.8257C1.24226 19.8212 1.24095 19.8166 1.23976 19.8119C1.23858 19.8073 1.23753 19.8026 1.23661 19.7979C1.23569 19.7932 1.23491 19.7885 1.23426 19.7838C1.23362 19.779 1.23311 19.7743 1.23274 19.7695C1.23236 19.7648 1.23213 19.76 1.23203 19.7552C1.23193 19.7504 1.23196 19.7456 1.23214 19.7409C1.23232 19.7361 1.23263 19.7313 1.23308 19.7265C1.23353 19.7218 1.23411 19.717 1.23484 19.7123C1.23556 19.7076 1.23641 19.7029 1.2374 19.6982C1.2384 19.6935 1.23952 19.6888 1.24078 19.6842L3.83173 10.1842C3.83262 10.181 3.83358 10.1777 3.83461 10.1745C3.83562 10.1712 3.83672 10.168 3.83787 10.1648C3.83902 10.1616 3.84026 10.1585 3.84155 10.1553C3.84284 10.1521 3.84417 10.149 3.8456 10.146C3.84701 10.1429 3.84848 10.1398 3.85003 10.1368C3.85155 10.1337 3.85315 10.1307 3.85481 10.1278C3.85648 10.1248 3.85821 10.1219 3.85997 10.119C3.86175 10.1161 3.8636 10.1133 3.8655 10.1105C3.8674 10.1076 3.86934 10.1049 3.87136 10.1021C3.87335 10.0994 3.87541 10.0967 3.87755 10.094C3.87968 10.0914 3.88184 10.0887 3.88406 10.0862C3.88629 10.0836 3.88859 10.0811 3.89091 10.0786C3.89323 10.0762 3.89562 10.0737 3.89803 10.0714C3.90045 10.069 3.90293 10.0666 3.90546 10.0644C3.90797 10.0621 3.91055 10.0599 3.91315 10.0577C3.91577 10.0555 3.91842 10.0534 3.92112 10.0514C3.92381 10.0493 3.92655 10.0473 3.92934 10.0453C3.93213 10.0434 3.93495 10.0415 3.9378 10.0397C3.94066 10.0378 3.94355 10.036 3.94648 10.0343C3.94941 10.0326 3.95238 10.031 3.95538 10.0294C3.95838 10.0278 3.96141 10.0262 3.96445 10.0247C3.96752 10.0233 3.97062 10.0219 3.97373 10.0205C3.97685 10.0192 3.97999 10.0179 3.98316 10.0167C3.98632 10.0155 3.98953 10.0143 3.99274 10.0132C3.99595 10.0121 3.99921 10.0111 4.00247 10.0101C4.00573 10.0092 4.00898 10.0083 4.01229 10.0075C4.01559 10.0066 4.0189 10.0059 4.02223 10.0052C4.02555 10.0045 4.02888 10.0039 4.03223 10.0033C4.03559 10.0028 4.03896 10.0023 4.04231 10.0019C4.04569 10.0015 4.04906 10.0011 4.05246 10.0008C4.05586 10.0006 4.05923 10.0004 4.06263 10.0002C4.06603 10.0001 4.06941 10 4.0728 10L22.5181 10C22.5229 10 22.5277 10.0002 22.5325 10.0004C22.5372 10.0007 22.542 10.0011 22.5468 10.0017C22.5515 10.0022 22.5562 10.0029 22.561 10.0037C22.5657 10.0045 22.5704 10.0055 22.575 10.0066C22.5797 10.0077 22.5843 10.0089 22.5889 10.0103C22.5935 10.0116 22.598 10.0131 22.6025 10.0147C22.607 10.0163 22.6115 10.0181 22.6159 10.02C22.6203 10.0218 22.6246 10.0238 22.6289 10.0259C22.6332 10.0281 22.6374 10.0303 22.6416 10.0327C22.6457 10.035 22.6498 10.0375 22.6538 10.0401C22.6579 10.0427 22.6618 10.0454 22.6657 10.0483C22.6695 10.0511 22.6733 10.054 22.677 10.0571C22.6807 10.0601 22.6843 10.0632 22.6878 10.0665C22.6913 10.0697 22.6947 10.0731 22.698 10.0765C22.7014 10.08 22.7046 10.0835 22.7077 10.0872C22.7108 10.0908 22.7138 10.0945 22.7167 10.0983C22.7196 10.1021 22.7224 10.106 22.7251 10.1099C22.7278 10.1139 22.7303 10.118 22.7328 10.1221C22.7353 10.1262 22.7376 10.1304 22.7398 10.1346C22.742 10.1388 22.7441 10.1431 22.746 10.1475C22.748 10.1519 22.7498 10.1563 22.7516 10.1608C22.7533 10.1652 22.7548 10.1697 22.7563 10.1743C22.7577 10.1789 22.7591 10.1835 22.7602 10.1881C22.7614 10.1927 22.7625 10.1974 22.7634 10.2021C22.7643 10.2068 22.7651 10.2115 22.7657 10.2162C22.7664 10.221 22.7669 10.2257 22.7673 10.2305C22.7676 10.2353 22.7679 10.24 22.768 10.2448C22.7681 10.2496 22.768 10.2544 22.7679 10.2592C22.7677 10.2639 22.7674 10.2687 22.7669 10.2735C22.7665 10.2782 22.7659 10.283 22.7652 10.2877C22.7644 10.2925 22.7636 10.2972 22.7626 10.3018C22.7616 10.3065 22.7605 10.3112 22.7592 10.3158Z"   fill="#C4C4C4" >
</path>
</svg>
