<svg xmlns="http://www.w3.org/2000/svg" xmlns:xlink="http://www.w3.org/1999/xlink" width="24" height="24" viewBox="0 0 24 24" fill="none">
<path d="M4.068 1.75205L5.268 1.75205L5.268 4.94405L4.068 4.94405L4.068 1.75205ZM6.78 1.75205L7.98 1.75205L7.98 4.94405L6.78 4.94405L6.78 1.75205ZM16.452 3.36005C16.452 3.3844 16.4526 3.40875 16.4538 3.43306C16.455 3.45738 16.4568 3.48166 16.4592 3.5059C16.4615 3.53013 16.4645 3.5543 16.4681 3.57839C16.4717 3.60246 16.4758 3.62646 16.4806 3.65034C16.4854 3.67423 16.4907 3.69797 16.4966 3.72159C16.5025 3.74522 16.509 3.76868 16.5161 3.792C16.5231 3.8153 16.5308 3.83841 16.539 3.86133C16.5472 3.88427 16.5559 3.90699 16.5653 3.92949C16.5746 3.95199 16.5844 3.97425 16.5949 3.99626C16.6053 4.01827 16.6162 4.04002 16.6277 4.06149C16.6392 4.08298 16.6512 4.10414 16.6637 4.12502C16.6762 4.14591 16.6893 4.16649 16.7028 4.18674C16.7163 4.20698 16.7303 4.22688 16.7448 4.24645C16.7593 4.26602 16.7743 4.2852 16.7898 4.30402C16.8052 4.32284 16.8211 4.34128 16.8375 4.35933C16.8538 4.37738 16.8706 4.395 16.8878 4.41223C16.905 4.42945 16.9227 4.44624 16.9407 4.46257C16.9588 4.47893 16.9772 4.49484 16.996 4.51029C17.0149 4.52574 17.034 4.54071 17.0536 4.55522C17.0732 4.56973 17.0931 4.58374 17.1133 4.59727C17.1336 4.61079 17.1541 4.62382 17.175 4.63634C17.1959 4.64888 17.2171 4.66088 17.2386 4.67234C17.26 4.68382 17.2818 4.69477 17.3038 4.70517C17.3258 4.7156 17.3481 4.72547 17.3706 4.73477C17.3931 4.7441 17.4158 4.75287 17.4387 4.76107C17.4616 4.76927 17.4847 4.77692 17.508 4.78397C17.5314 4.79105 17.5548 4.79754 17.5785 4.80345C17.6021 4.80938 17.6258 4.8147 17.6497 4.81945C17.6736 4.82421 17.6976 4.82836 17.7217 4.83195C17.7457 4.83553 17.7699 4.83851 17.7941 4.84088C17.8184 4.84327 17.8427 4.84507 17.867 4.84627C17.8913 4.84746 17.9156 4.84805 17.94 4.84805C17.9644 4.84805 17.9887 4.84746 18.013 4.84627C18.0373 4.84507 18.0616 4.84327 18.0859 4.84088C18.1101 4.83851 18.1342 4.83553 18.1583 4.83195C18.1824 4.82836 18.2064 4.82421 18.2303 4.81945C18.2542 4.8147 18.2779 4.80938 18.3015 4.80345C18.3252 4.79754 18.3486 4.79105 18.372 4.78397C18.3952 4.77692 18.4184 4.76927 18.4413 4.76107C18.4642 4.75287 18.4869 4.7441 18.5094 4.73477C18.5319 4.72547 18.5542 4.7156 18.5762 4.70517C18.5982 4.69477 18.62 4.68382 18.6414 4.67234C18.6629 4.66088 18.6841 4.64888 18.705 4.63634C18.7259 4.62382 18.7464 4.61079 18.7667 4.59727C18.7869 4.58374 18.8068 4.56973 18.8264 4.55522C18.846 4.54071 18.8651 4.52574 18.884 4.51029C18.9028 4.49484 18.9212 4.47893 18.9393 4.46257C18.9573 4.44624 18.975 4.42945 18.9922 4.41223C19.0094 4.395 19.0262 4.37738 19.0425 4.35933C19.0589 4.34128 19.0748 4.32284 19.0902 4.30402C19.1057 4.2852 19.1207 4.26602 19.1352 4.24645C19.1497 4.22688 19.1637 4.20698 19.1772 4.18674C19.1907 4.16649 19.2038 4.14591 19.2163 4.12502C19.2288 4.10414 19.2408 4.08298 19.2523 4.06149C19.2638 4.04002 19.2747 4.01827 19.2851 3.99626C19.2956 3.97425 19.3054 3.95199 19.3147 3.92949C19.3241 3.90699 19.3328 3.88427 19.341 3.86133C19.3492 3.83841 19.3569 3.8153 19.3639 3.792C19.371 3.76868 19.3775 3.74522 19.3834 3.72159C19.3893 3.69797 19.3946 3.67423 19.3994 3.65034C19.4042 3.62646 19.4083 3.60246 19.4119 3.57839C19.4155 3.5543 19.4185 3.53013 19.4208 3.5059C19.4232 3.48166 19.425 3.45738 19.4262 3.43306C19.4274 3.40875 19.428 3.3844 19.428 3.36005C19.428 3.3357 19.4274 3.31134 19.4262 3.28704C19.425 3.26271 19.4232 3.23843 19.4208 3.2142C19.4184 3.18996 19.4155 3.1658 19.4119 3.1417C19.4083 3.11763 19.4042 3.09363 19.3994 3.06975C19.3946 3.04587 19.3893 3.0221 19.3834 2.9985C19.3775 2.97488 19.371 2.95142 19.3639 2.92809C19.3569 2.9048 19.3492 2.88169 19.341 2.85877C19.3328 2.83582 19.3241 2.81311 19.3147 2.79061C19.3054 2.76811 19.2956 2.74584 19.2851 2.72384C19.2747 2.70183 19.2638 2.68008 19.2523 2.65861C19.2408 2.63712 19.2288 2.61595 19.2163 2.59507C19.2038 2.57419 19.1907 2.55361 19.1772 2.53336C19.1637 2.51311 19.1497 2.49321 19.1352 2.47364C19.1207 2.45407 19.1057 2.4349 19.0902 2.41608C19.0748 2.39726 19.0589 2.37881 19.0425 2.36077C19.0262 2.34272 19.0094 2.32509 18.9922 2.30787C18.975 2.29065 18.9573 2.27386 18.9393 2.25751C18.9212 2.24116 18.9028 2.22526 18.884 2.20981C18.8651 2.19436 18.846 2.17938 18.8264 2.16488C18.8068 2.15037 18.7869 2.13635 18.7667 2.12282C18.7464 2.10929 18.7259 2.09627 18.705 2.08375C18.6841 2.07123 18.6629 2.05923 18.6414 2.04775C18.62 2.03627 18.5982 2.02532 18.5762 2.01491C18.5542 2.0045 18.5319 1.99464 18.5094 1.98531C18.4869 1.976 18.4642 1.96723 18.4413 1.95903C18.4184 1.95083 18.3952 1.94319 18.372 1.93612C18.3486 1.92905 18.3252 1.92256 18.3015 1.91664C18.2779 1.91072 18.2542 1.90539 18.2303 1.90064C18.2064 1.89589 18.1824 1.89173 18.1583 1.88815C18.1342 1.88458 18.1101 1.8816 18.0859 1.87921C18.0616 1.87682 18.0373 1.87503 18.013 1.87384C17.9887 1.87265 17.9644 1.87205 17.94 1.87205C17.9156 1.87205 17.8913 1.87265 17.867 1.87384C17.8427 1.87503 17.8184 1.87682 17.7941 1.87921C17.7699 1.8816 17.7457 1.88458 17.7217 1.88815C17.6976 1.89173 17.6736 1.89589 17.6497 1.90064C17.6258 1.90539 17.6021 1.91072 17.5785 1.91664C17.5548 1.92256 17.5314 1.92905 17.508 1.93612C17.4847 1.94319 17.4616 1.95083 17.4387 1.95903C17.4158 1.96723 17.3931 1.976 17.3706 1.98531C17.3481 1.99464 17.3258 2.0045 17.3038 2.01491C17.2818 2.02532 17.26 2.03627 17.2386 2.04775C17.2171 2.05923 17.1959 2.07123 17.175 2.08375C17.1541 2.09627 17.1336 2.10929 17.1133 2.12282C17.0931 2.13635 17.0732 2.15037 17.0536 2.16488C17.034 2.17938 17.0149 2.19436 16.996 2.20981C16.9772 2.22526 16.9588 2.24116 16.9407 2.25751C16.9227 2.27386 16.905 2.29065 16.8878 2.30787C16.8706 2.32509 16.8538 2.34272 16.8375 2.36077C16.8211 2.37881 16.8052 2.39726 16.7898 2.41608C16.7743 2.4349 16.7593 2.45407 16.7448 2.47364C16.7303 2.49321 16.7163 2.51311 16.7028 2.53336C16.6893 2.55361 16.6762 2.57419 16.6637 2.59507C16.6512 2.61595 16.6392 2.63712 16.6277 2.65861C16.6162 2.68008 16.6053 2.70183 16.5949 2.72384C16.5844 2.74584 16.5746 2.76811 16.5653 2.79061C16.5559 2.81311 16.5472 2.83582 16.539 2.85877C16.5308 2.88169 16.5231 2.9048 16.5161 2.92809C16.509 2.95142 16.5025 2.97488 16.4966 2.9985C16.4907 3.0221 16.4854 3.04587 16.4806 3.06975C16.4758 3.09363 16.4717 3.11763 16.4681 3.1417C16.4645 3.1658 16.4616 3.18996 16.4592 3.2142C16.4568 3.23843 16.455 3.26271 16.4538 3.28704C16.4526 3.31134 16.452 3.3357 16.452 3.36005ZM21.228 0.0240479L2.652 0.0240479C2.004 0.0240479 1.5 0.552048 1.5 1.20005L1.5 5.52005C1.5 6.16805 2.028 6.67205 2.652 6.67205L21.228 6.67205C21.876 6.67205 22.38 6.14405 22.38 5.52005L22.38 1.20005C22.38 0.552048 21.852 0.0240479 21.228 0.0240479ZM21.396 5.52005C21.396 5.61605 21.324 5.68805 21.228 5.68805L2.652 5.68805C2.556 5.68805 2.484 5.61605 2.484 5.52005L2.484 1.20005C2.484 1.10405 2.556 1.03205 2.652 1.03205L21.228 1.03205C21.324 1.03205 21.396 1.10405 21.396 1.20005L21.396 5.52005ZM4.068 10.368L5.268 10.368L5.268 13.56L4.068 13.56L4.068 10.368ZM6.78 10.368L7.98 10.368L7.98 13.56L6.78 13.56L6.78 10.368ZM16.452 11.952C16.452 11.9764 16.4526 12.0008 16.4538 12.0251C16.455 12.0494 16.4568 12.0737 16.4592 12.0979C16.4615 12.1221 16.4645 12.1463 16.4681 12.1704C16.4717 12.1945 16.4758 12.2185 16.4806 12.2423C16.4854 12.2662 16.4907 12.29 16.4966 12.3136C16.5025 12.3372 16.509 12.3607 16.5161 12.384C16.5231 12.4073 16.5308 12.4304 16.539 12.4533C16.5472 12.4763 16.5559 12.499 16.5653 12.5215C16.5746 12.544 16.5844 12.5662 16.5949 12.5882C16.6053 12.6102 16.6162 12.632 16.6277 12.6535C16.6392 12.675 16.6512 12.6961 16.6637 12.717C16.6762 12.7379 16.6893 12.7585 16.7028 12.7787C16.7163 12.799 16.7303 12.8189 16.7448 12.8385C16.7593 12.858 16.7743 12.8772 16.7898 12.896C16.8052 12.9148 16.8211 12.9333 16.8375 12.9513C16.8538 12.9694 16.8706 12.987 16.8878 13.0042C16.905 13.0215 16.9227 13.0382 16.9407 13.0546C16.9588 13.0709 16.9772 13.0868 16.996 13.1023C17.0149 13.1177 17.034 13.1327 17.0536 13.1472C17.0732 13.1617 17.0931 13.1757 17.1133 13.1893C17.1336 13.2028 17.1541 13.2158 17.175 13.2283C17.1959 13.2409 17.2171 13.2529 17.2386 13.2643C17.26 13.2758 17.2818 13.2868 17.3038 13.2972C17.3258 13.3076 17.3481 13.3175 17.3706 13.3268C17.3931 13.3361 17.4158 13.3449 17.4387 13.3531C17.4616 13.3613 17.4847 13.3689 17.508 13.376C17.5314 13.383 17.5548 13.3895 17.5785 13.3954C17.6021 13.4014 17.6258 13.4067 17.6497 13.4115C17.6736 13.4162 17.6976 13.4204 17.7217 13.4239C17.7457 13.4275 17.7699 13.4305 17.7941 13.4329C17.8184 13.4353 17.8427 13.4371 17.867 13.4383C17.8913 13.4395 17.9156 13.44 17.94 13.44C17.9644 13.44 17.9887 13.4395 18.013 13.4383C18.0373 13.4371 18.0616 13.4353 18.0859 13.4329C18.1101 13.4305 18.1342 13.4275 18.1583 13.4239C18.1824 13.4204 18.2064 13.4162 18.2303 13.4115C18.2542 13.4067 18.2779 13.4014 18.3015 13.3954C18.3252 13.3895 18.3486 13.383 18.372 13.376C18.3952 13.3689 18.4184 13.3613 18.4413 13.3531C18.4642 13.3449 18.4869 13.3361 18.5094 13.3268C18.5319 13.3175 18.5542 13.3076 18.5762 13.2972C18.5982 13.2868 18.62 13.2758 18.6414 13.2643C18.6629 13.2529 18.6841 13.2409 18.705 13.2283C18.7259 13.2158 18.7464 13.2028 18.7667 13.1893C18.7869 13.1757 18.8068 13.1617 18.8264 13.1472C18.846 13.1327 18.8651 13.1177 18.884 13.1023C18.9028 13.0868 18.9212 13.0709 18.9393 13.0546C18.9573 13.0382 18.975 13.0215 18.9922 13.0042C19.0094 12.987 19.0262 12.9694 19.0425 12.9513C19.0589 12.9333 19.0748 12.9148 19.0902 12.896C19.1057 12.8772 19.1207 12.858 19.1352 12.8385C19.1497 12.8189 19.1637 12.799 19.1772 12.7787C19.1907 12.7585 19.2038 12.7379 19.2163 12.717C19.2288 12.6961 19.2408 12.675 19.2523 12.6535C19.2638 12.632 19.2747 12.6102 19.2851 12.5882C19.2956 12.5662 19.3054 12.544 19.3147 12.5215C19.3241 12.499 19.3328 12.4763 19.341 12.4533C19.3492 12.4304 19.3569 12.4073 19.3639 12.384C19.371 12.3607 19.3775 12.3372 19.3834 12.3136C19.3893 12.29 19.3946 12.2662 19.3994 12.2423C19.4042 12.2185 19.4083 12.1945 19.4119 12.1704C19.4155 12.1463 19.4185 12.1221 19.4208 12.0979C19.4232 12.0737 19.425 12.0494 19.4262 12.0251C19.4274 12.0008 19.428 11.9764 19.428 11.952C19.428 11.9277 19.4274 11.9033 19.4262 11.879C19.425 11.8547 19.4232 11.8304 19.4208 11.8062C19.4184 11.782 19.4155 11.7578 19.4119 11.7337C19.4083 11.7096 19.4042 11.6856 19.3994 11.6618C19.3946 11.6379 19.3893 11.6141 19.3834 11.5905C19.3775 11.5669 19.371 11.5434 19.3639 11.5201C19.3569 11.4968 19.3492 11.4737 19.341 11.4507C19.3328 11.4278 19.3241 11.4051 19.3147 11.3826C19.3054 11.3601 19.2956 11.3378 19.2851 11.3158C19.2747 11.2938 19.2638 11.2721 19.2523 11.2506C19.2408 11.2291 19.2288 11.208 19.2163 11.1871C19.2038 11.1662 19.1907 11.1456 19.1772 11.1254C19.1637 11.1051 19.1497 11.0852 19.1352 11.0656C19.1207 11.0461 19.1057 11.0269 19.0902 11.0081C19.0748 10.9893 19.0589 10.9708 19.0425 10.9528C19.0262 10.9347 19.0094 10.9171 18.9922 10.8999C18.975 10.8826 18.9573 10.8659 18.9393 10.8495C18.9212 10.8332 18.9028 10.8173 18.884 10.8018C18.8651 10.7864 18.846 10.7714 18.8264 10.7569C18.8068 10.7424 18.7869 10.7284 18.7667 10.7148C18.7464 10.7013 18.7259 10.6883 18.705 10.6757C18.6841 10.6632 18.6629 10.6512 18.6414 10.6398C18.62 10.6283 18.5982 10.6173 18.5762 10.6069C18.5542 10.5965 18.5319 10.5866 18.5094 10.5773C18.4869 10.568 18.4642 10.5592 18.4413 10.551C18.4184 10.5428 18.3952 10.5352 18.372 10.5281C18.3486 10.521 18.3252 10.5146 18.3015 10.5086C18.2779 10.5027 18.2542 10.4974 18.2303 10.4926C18.2064 10.4879 18.1824 10.4837 18.1583 10.4801C18.1342 10.4766 18.1101 10.4736 18.0859 10.4712C18.0616 10.4688 18.0373 10.467 18.013 10.4658C17.9887 10.4646 17.9644 10.464 17.94 10.464C17.9156 10.464 17.8913 10.4646 17.867 10.4658C17.8427 10.467 17.8184 10.4688 17.7941 10.4712C17.7699 10.4736 17.7457 10.4766 17.7217 10.4801C17.6976 10.4837 17.6736 10.4879 17.6497 10.4926C17.6258 10.4974 17.6021 10.5027 17.5785 10.5086C17.5548 10.5146 17.5314 10.521 17.508 10.5281C17.4847 10.5352 17.4616 10.5428 17.4387 10.551C17.4158 10.5592 17.3931 10.568 17.3706 10.5773C17.3481 10.5866 17.3258 10.5965 17.3038 10.6069C17.2818 10.6173 17.26 10.6283 17.2386 10.6398C17.2171 10.6512 17.1959 10.6632 17.175 10.6757C17.1541 10.6883 17.1336 10.7013 17.1133 10.7148C17.0931 10.7284 17.0732 10.7424 17.0536 10.7569C17.034 10.7714 17.0149 10.7864 16.996 10.8018C16.9772 10.8173 16.9588 10.8332 16.9407 10.8495C16.9227 10.8659 16.905 10.8826 16.8878 10.8999C16.8706 10.9171 16.8538 10.9347 16.8375 10.9528C16.8211 10.9708 16.8052 10.9893 16.7898 11.0081C16.7743 11.0269 16.7593 11.0461 16.7448 11.0656C16.7303 11.0852 16.7163 11.1051 16.7028 11.1254C16.6893 11.1456 16.6762 11.1662 16.6637 11.1871C16.6512 11.208 16.6392 11.2291 16.6277 11.2506C16.6162 11.2721 16.6053 11.2938 16.5949 11.3158C16.5844 11.3378 16.5746 11.3601 16.5653 11.3826C16.5559 11.4051 16.5472 11.4278 16.539 11.4507C16.5308 11.4737 16.5231 11.4968 16.5161 11.5201C16.509 11.5434 16.5025 11.5669 16.4966 11.5905C16.4907 11.6141 16.4854 11.6379 16.4806 11.6618C16.4758 11.6856 16.4717 11.7096 16.4681 11.7337C16.4645 11.7578 16.4616 11.782 16.4592 11.8062C16.4568 11.8304 16.455 11.8547 16.4538 11.879C16.4526 11.9033 16.452 11.9277 16.452 11.952ZM21.228 8.64005L2.652 8.64005C2.004 8.64005 1.5 9.16805 1.5 9.79205L1.5 14.112C1.5 14.76 2.028 15.264 2.652 15.264L21.228 15.264C21.876 15.264 22.38 14.736 22.38 14.112L22.38 9.79205C22.38 9.16805 21.852 8.64005 21.228 8.64005ZM21.396 14.112C21.396 14.208 21.324 14.28 21.228 14.28L2.652 14.28C2.556 14.28 2.484 14.208 2.484 14.112L2.484 9.79205C2.484 9.69605 2.556 9.62405 2.652 9.62405L21.228 9.62405C21.324 9.62405 21.396 9.69605 21.396 9.79205L21.396 14.112ZM4.068 18.96L5.268 18.96L5.268 22.152L4.068 22.152L4.068 18.96ZM6.78 18.96L7.98 18.96L7.98 22.152L6.78 22.152L6.78 18.96ZM16.452 20.568C16.452 20.5924 16.4526 20.6168 16.4538 20.6411C16.455 20.6654 16.4568 20.6897 16.4592 20.7139C16.4615 20.7381 16.4645 20.7623 16.4681 20.7864C16.4717 20.8105 16.4758 20.8345 16.4806 20.8583C16.4854 20.8822 16.4907 20.906 16.4966 20.9296C16.5025 20.9532 16.509 20.9767 16.5161 21C16.5231 21.0233 16.5308 21.0464 16.539 21.0693C16.5472 21.0923 16.5559 21.115 16.5653 21.1375C16.5746 21.16 16.5844 21.1822 16.5949 21.2042C16.6053 21.2262 16.6162 21.248 16.6277 21.2695C16.6392 21.291 16.6512 21.3121 16.6637 21.333C16.6762 21.3539 16.6893 21.3745 16.7028 21.3947C16.7163 21.415 16.7303 21.4349 16.7448 21.4545C16.7593 21.474 16.7743 21.4932 16.7898 21.512C16.8052 21.5308 16.8211 21.5493 16.8375 21.5673C16.8538 21.5854 16.8706 21.603 16.8878 21.6202C16.905 21.6375 16.9227 21.6542 16.9407 21.6706C16.9588 21.6869 16.9772 21.7028 16.996 21.7183C17.0149 21.7337 17.034 21.7487 17.0536 21.7632C17.0732 21.7777 17.0931 21.7917 17.1133 21.8053C17.1336 21.8188 17.1541 21.8318 17.175 21.8443C17.1959 21.8569 17.2171 21.8689 17.2386 21.8803C17.26 21.8918 17.2818 21.9028 17.3038 21.9132C17.3258 21.9236 17.3481 21.9335 17.3706 21.9428C17.3931 21.9521 17.4158 21.9609 17.4387 21.9691C17.4616 21.9773 17.4847 21.9849 17.508 21.992C17.5314 21.999 17.5548 22.0055 17.5785 22.0114C17.6021 22.0174 17.6258 22.0227 17.6497 22.0275C17.6736 22.0322 17.6976 22.0364 17.7217 22.0399C17.7457 22.0435 17.7699 22.0465 17.7941 22.0489C17.8184 22.0513 17.8427 22.053 17.867 22.0542C17.8913 22.0554 17.9156 22.056 17.94 22.056C17.9644 22.056 17.9887 22.0554 18.013 22.0542C18.0373 22.053 18.0616 22.0513 18.0859 22.0489C18.1101 22.0465 18.1342 22.0435 18.1583 22.0399C18.1824 22.0364 18.2064 22.0322 18.2303 22.0275C18.2542 22.0227 18.2779 22.0174 18.3015 22.0114C18.3252 22.0055 18.3486 21.999 18.372 21.992C18.3952 21.9849 18.4184 21.9773 18.4413 21.9691C18.4642 21.9609 18.4869 21.9521 18.5094 21.9428C18.5319 21.9335 18.5542 21.9236 18.5762 21.9132C18.5982 21.9028 18.62 21.8918 18.6414 21.8803C18.6629 21.8689 18.6841 21.8569 18.705 21.8443C18.7259 21.8318 18.7464 21.8188 18.7667 21.8053C18.7869 21.7917 18.8068 21.7777 18.8264 21.7632C18.846 21.7487 18.8651 21.7337 18.884 21.7183C18.9028 21.7028 18.9212 21.6869 18.9393 21.6706C18.9573 21.6542 18.975 21.6375 18.9922 21.6202C19.0094 21.603 19.0262 21.5854 19.0425 21.5673C19.0589 21.5493 19.0748 21.5308 19.0902 21.512C19.1057 21.4932 19.1207 21.474 19.1352 21.4545C19.1497 21.4349 19.1637 21.415 19.1772 21.3947C19.1907 21.3745 19.2038 21.3539 19.2163 21.333C19.2288 21.3121 19.2408 21.291 19.2523 21.2695C19.2638 21.248 19.2747 21.2263 19.2851 21.2043C19.2956 21.1823 19.3054 21.16 19.3147 21.1375C19.3241 21.115 19.3328 21.0923 19.341 21.0693C19.3492 21.0464 19.3569 21.0233 19.3639 21C19.371 20.9767 19.3775 20.9532 19.3834 20.9296C19.3893 20.906 19.3946 20.8822 19.3994 20.8583C19.4042 20.8345 19.4083 20.8105 19.4119 20.7864C19.4155 20.7623 19.4185 20.7381 19.4208 20.7139C19.4232 20.6897 19.425 20.6654 19.4262 20.6411C19.4274 20.6168 19.428 20.5924 19.428 20.568C19.428 20.5437 19.4274 20.5193 19.4262 20.495C19.425 20.4707 19.4232 20.4464 19.4208 20.4222C19.4184 20.398 19.4155 20.3738 19.4119 20.3497C19.4083 20.3256 19.4042 20.3016 19.3994 20.2778C19.3946 20.2539 19.3893 20.2301 19.3834 20.2065C19.3775 20.1829 19.371 20.1594 19.3639 20.1361C19.3569 20.1128 19.3492 20.0897 19.341 20.0667C19.3328 20.0438 19.3241 20.0211 19.3147 19.9986C19.3054 19.9761 19.2956 19.9538 19.2851 19.9318C19.2747 19.9098 19.2638 19.8881 19.2523 19.8666C19.2408 19.8451 19.2288 19.824 19.2163 19.8031C19.2038 19.7822 19.1907 19.7616 19.1772 19.7414C19.1637 19.7211 19.1497 19.7012 19.1352 19.6816C19.1207 19.6621 19.1057 19.6429 19.0902 19.6241C19.0748 19.6053 19.0589 19.5868 19.0425 19.5688C19.0262 19.5507 19.0094 19.5331 18.9922 19.5159C18.975 19.4986 18.9573 19.4819 18.9393 19.4655C18.9212 19.4492 18.9028 19.4333 18.884 19.4178C18.8651 19.4024 18.846 19.3874 18.8264 19.3729C18.8068 19.3584 18.7869 19.3444 18.7667 19.3308C18.7464 19.3173 18.7259 19.3043 18.705 19.2917C18.6841 19.2792 18.6629 19.2672 18.6414 19.2558C18.62 19.2443 18.5982 19.2333 18.5762 19.2229C18.5542 19.2125 18.5319 19.2026 18.5094 19.1933C18.4869 19.184 18.4642 19.1752 18.4413 19.167C18.4184 19.1588 18.3952 19.1512 18.372 19.1441C18.3486 19.137 18.3252 19.1306 18.3015 19.1246C18.2779 19.1187 18.2542 19.1134 18.2303 19.1086C18.2064 19.1039 18.1824 19.0997 18.1583 19.0961C18.1342 19.0926 18.1101 19.0896 18.0859 19.0872C18.0616 19.0848 18.0373 19.083 18.013 19.0818C17.9887 19.0806 17.9644 19.08 17.94 19.08C17.9156 19.08 17.8913 19.0806 17.867 19.0818C17.8427 19.083 17.8184 19.0848 17.7941 19.0872C17.7699 19.0896 17.7457 19.0926 17.7217 19.0961C17.6976 19.0997 17.6736 19.1039 17.6497 19.1086C17.6258 19.1134 17.6021 19.1187 17.5785 19.1246C17.5548 19.1306 17.5314 19.137 17.508 19.1441C17.4847 19.1512 17.4616 19.1588 17.4387 19.167C17.4158 19.1752 17.3931 19.184 17.3706 19.1933C17.3481 19.2026 17.3258 19.2125 17.3038 19.2229C17.2818 19.2333 17.26 19.2443 17.2386 19.2558C17.2171 19.2672 17.1959 19.2792 17.175 19.2917C17.1541 19.3043 17.1336 19.3173 17.1133 19.3308C17.0931 19.3444 17.0732 19.3584 17.0536 19.3729C17.034 19.3874 17.0149 19.4024 16.996 19.4178C16.9772 19.4333 16.9588 19.4492 16.9407 19.4655C16.9227 19.4819 16.905 19.4986 16.8878 19.5159C16.8706 19.5331 16.8538 19.5507 16.8375 19.5688C16.8211 19.5868 16.8052 19.6053 16.7898 19.6241C16.7743 19.6429 16.7593 19.6621 16.7448 19.6816C16.7303 19.7012 16.7163 19.7211 16.7028 19.7414C16.6893 19.7616 16.6762 19.7822 16.6637 19.8031C16.6512 19.824 16.6392 19.8451 16.6277 19.8666C16.6162 19.8881 16.6053 19.9098 16.5949 19.9318C16.5844 19.9538 16.5746 19.9761 16.5653 19.9986C16.5559 20.0211 16.5472 20.0438 16.539 20.0667C16.5308 20.0897 16.5231 20.1128 16.5161 20.1361C16.509 20.1594 16.5025 20.1829 16.4966 20.2065C16.4907 20.2301 16.4854 20.2539 16.4806 20.2778C16.4758 20.3016 16.4717 20.3256 16.4681 20.3497C16.4645 20.3738 16.4616 20.398 16.4592 20.4222C16.4568 20.4464 16.455 20.4707 16.4538 20.495C16.4526 20.5193 16.452 20.5437 16.452 20.568ZM21.228 17.232L2.652 17.232C2.004 17.232 1.5 17.76 1.5 18.384L1.5 22.704C1.5 23.352 2.028 23.8562 2.652 23.8562L21.228 23.8562C21.876 23.8562 22.38 23.328 22.38 22.704L22.38 18.384C22.38 17.76 21.852 17.232 21.228 17.232ZM21.396 22.704C21.396 22.8 21.324 22.872 21.228 22.872L2.652 22.872C2.556 22.872 2.484 22.8 2.484 22.704L2.484 18.384C2.484 18.312 2.556 18.24 2.652 18.24L21.228 18.24C21.324 18.24 21.396 18.312 21.396 18.408L21.396 22.704Z"   fill="#2A82E4" >
</path>
</svg>
