<?xml version="1.0" encoding="UTF-8"?>
<svg width="24px" height="24px" viewBox="0 0 24 24" version="1.1" xmlns="http://www.w3.org/2000/svg" xmlns:xlink="http://www.w3.org/1999/xlink">
    <title>database</title>
    <g id="页面-1" stroke="none" stroke-width="1" fill="none" fill-rule="evenodd">
        <g id="icon" transform="translate(-160, -108)" fill="#FFFFFF">
            <g id="database" transform="translate(160, 108)">
                <rect id="矩形" opacity="0" x="0" y="0" width="24" height="24"></rect>
                <path d="M20.3333333,1 C21.25,1 22,1.76153846 22,2.69230769 L22,21.3076923 C22,22.2384615 21.25,23 20.3333333,23 L3.66666667,23 C2.75,23 2,22.2384615 2,21.3076923 L2,2.69230769 C2,1.76153846 2.75,1 3.66666667,1 Z M20.3333333,16.2307692 L3.66666667,16.2307692 L3.66666667,21.3076923 L20.3333333,21.3076923 L20.3333333,16.2307692 Z M6.16666667,17.9230769 C6.62690396,17.9230769 7,18.3019129 7,18.7692308 C7,19.2365486 6.62690396,19.6153846 6.16666667,19.6153846 C5.70642938,19.6153846 5.33333333,19.2365486 5.33333333,18.7692308 C5.33333333,18.3019129 5.70642938,17.9230769 6.16666667,17.9230769 Z M20.3333333,9.46153846 L3.66666667,9.46153846 L3.66666667,14.5384615 L20.3333333,14.5384615 L20.3333333,9.46153846 Z M6.16666667,11.1538462 C6.62690396,11.1538462 7,11.5326821 7,12 C7,12.4673179 6.62690396,12.8461538 6.16666667,12.8461538 C5.70642938,12.8461538 5.33333333,12.4673179 5.33333333,12 C5.33333333,11.5326821 5.70642938,11.1538462 6.16666667,11.1538462 Z M20.3333333,2.69230769 L3.66666667,2.69230769 L3.66666667,7.76923077 L20.3333333,7.76923077 L20.3333333,2.69230769 Z M6.16666667,4.38461538 C6.62690396,4.38461538 7,4.76345137 7,5.23076923 C7,5.6980871 6.62690396,6.07692308 6.16666667,6.07692308 C5.70642938,6.07692308 5.33333333,5.6980871 5.33333333,5.23076923 C5.33333333,4.76345137 5.70642938,4.38461538 6.16666667,4.38461538 Z" id="形状结合" fill-rule="nonzero"></path>
            </g>
        </g>
    </g>
</svg>