<?xml version="1.0" standalone="no"?><!DOCTYPE svg PUBLIC "-//W3C//DTD SVG 1.1//EN" "http://www.w3.org/Graphics/SVG/1.1/DTD/svg11.dtd"><svg t="1747727266932" class="icon" viewBox="0 0 1024 1024" version="1.1" xmlns="http://www.w3.org/2000/svg" p-id="21286" width="256" height="256" xmlns:xlink="http://www.w3.org/1999/xlink"><path d="M727.969 68.101c-43.285-6.834-86-5.126-128.146 5.126s-79.736 28.477-112.769 54.676-59.232 59.232-78.596 99.1-29.047 80.305-29.047 121.312c0 31.894 4.556 62.649 13.669 92.265L71.86 758.383l-6.834 23.921v146.941L95.78 960h191.365l34.172-30.755v-95.683H417l30.755-34.172v-95.683h64.928l23.921-10.252 51.259-61.51c25.06 9.113 52.398 13.669 82.014 13.669 68.345 0 129.286-21.643 182.822-64.928s87.14-97.961 100.809-164.027c9.113-50.119 6.834-99.669-6.835-148.65-13.669-48.98-40.437-91.696-80.305-128.146-39.868-36.451-86.001-60.371-138.399-71.762zM813.4 529.428c-43.285 34.172-91.126 51.259-143.524 51.259-27.338 0-54.676-4.556-82.014-13.669L553.69 577.27l-58.093 64.928h-78.596l-30.755 30.755v95.683h-99.1l-30.755 30.755v99.1H129.953V795.973l321.22-324.638 6.834-34.172c-11.391-27.338-15.947-55.815-13.669-85.431 0-52.398 17.086-99.1 51.259-140.107s76.318-67.206 126.438-78.596c38.729-6.834 76.318-5.126 112.769 5.126s68.345 29.047 95.683 56.384 46.133 59.232 56.384 95.683 11.96 74.04 5.126 112.769c-11.391 52.397-37.59 94.543-78.597 126.437z m-54.675-174.279c-11.391 13.669-25.06 22.212-41.007 25.629-15.947 3.417-31.325 0.57-46.133-8.543-14.808-9.113-23.921-22.212-27.338-39.298-3.417-17.086-0.57-33.603 8.543-49.55 4.556-9.113 11.96-16.517 22.212-22.212 10.252-5.695 21.643-7.974 34.172-6.834s23.351 5.126 32.464 11.96c9.113 6.834 16.517 15.378 22.212 25.629 5.695 10.252 7.974 21.073 6.835 32.464-1.139 11.39-5.126 21.642-11.96 30.755z" p-id="21287" fill="#ffffff"></path></svg>