<?xml version="1.0" standalone="no"?><!DOCTYPE svg PUBLIC "-//W3C//DTD SVG 1.1//EN" "http://www.w3.org/Graphics/SVG/1.1/DTD/svg11.dtd"><svg t="1767838932552" class="icon" viewBox="0 0 1024 1024" version="1.1" xmlns="http://www.w3.org/2000/svg" p-id="21656" width="128" height="128" xmlns:xlink="http://www.w3.org/1999/xlink"><path d="M1020.457143 892.685714L951.314286 649.142857V118.857143c0-20.228571-16.342857-36.571429-36.571429-36.571429h-804.571428c-20.228571 0-36.571429 16.342857-36.571429 36.571429v530.285714L4.457143 892.685714C-4.114286 916.571429 13.485714 941.714286 38.857143 941.714286h947.2c25.371429 0 42.971429-25.142857 34.4-49.028572zM155.885714 164.571429h713.142857v451.428571h-713.142857V164.571429z m260.914286 694.857142l9.257143-42.285714h171.771428l9.257143 42.285714H416.8z m256 0l-21.828571-99.085714c-0.914286-4.228571-4.685714-7.2-8.914286-7.2H381.942857c-4.342857 0-8 2.971429-8.914286 7.2L351.2 859.428571H99.428571l48.342858-170.285714h729.371428l48.342857 170.285714H672.8z" p-id="21657" fill="#ffffff"></path></svg>