<?xml version="1.0" encoding="UTF-8"?>
<svg width="16px" height="16px" viewBox="0 0 16 16" version="1.1" xmlns="http://www.w3.org/2000/svg" xmlns:xlink="http://www.w3.org/1999/xlink">
    <title>layout-left</title>
    <g id="页面-1" stroke="none" stroke-width="1" fill="none" fill-rule="evenodd">
        <g id="icon" transform="translate(-316, -356)" fill="#FFFFFF">
            <g id="layout-left" transform="translate(316, 356)">
                <rect id="矩形" opacity="0" x="0" y="0" width="16" height="16"></rect>
                <path d="M14.44,1 L1.56,1 C1.25025,1 1,1.25025 1,1.56 L1,14.44 C1,14.74975 1.25025,15 1.56,15 L14.44,15 C14.74975,15 15,14.74975 15,14.44 L15,1.56 C15,1.25025 14.74975,1 14.44,1 Z M2.26,2.26 L5.64,2.26 L5.64,13.74 L2.26,13.74 L2.26,2.26 Z M13.74,13.74 L6.76,13.74 L6.76,2.26 L13.74,2.26 L13.74,13.74 Z" id="形状" fill-rule="nonzero"></path>
            </g>
        </g>
    </g>
</svg>