<?xml version="1.0" standalone="no"?><!DOCTYPE svg PUBLIC "-//W3C//DTD SVG 1.1//EN" "http://www.w3.org/Graphics/SVG/1.1/DTD/svg11.dtd"><svg t="1754018948027" class="icon" viewBox="0 0 1024 1024" version="1.1" xmlns="http://www.w3.org/2000/svg" p-id="5263" width="32" height="32" xmlns:xlink="http://www.w3.org/1999/xlink"><path d="M709.973333 778.069333c56.547556-75.662222 51.2-183.011556-17.635555-251.790222a193.251556 193.251556 0 0 0-273.237334 273.294222 192.682667 192.682667 0 0 0 251.790223 17.578667l107.690666 107.633778 39.025778-39.025778-107.690667-107.690667z m-56.604444-17.521777a138.012444 138.012444 0 1 1-195.242667-195.242667 138.012444 138.012444 0 0 1 195.242667 195.242667z" fill="#4A4A4A" p-id="5264"></path><path d="M828.188444 658.716444v-342.471111c0-50.744889-41.244444-91.989333-91.989333-91.989333H271.928889c-50.688 0-91.989333 41.244444-91.989333 91.989333v451.299556c0 50.744889 41.301333 91.989333 91.989333 91.989333h113.379555a33.052444 33.052444 0 1 1 0 66.161778H271.872A158.321778 158.321778 0 0 1 113.777778 767.544889V316.245333a158.321778 158.321778 0 0 1 158.151111-158.151111h464.270222a158.321778 158.321778 0 0 1 158.151111 158.151111v345.031111c0 11.776-14.449778 26.624-32.995555 26.624-18.545778 0-33.166222-13.937778-33.166223-29.184zM166.855111 326.144h671.914667v66.161778H166.912V326.144z m93.923556-33.564444a33.052444 33.052444 0 0 1-33.052445-33.052445v-112.64a33.052444 33.052444 0 1 1 66.104889 0v112.64c0 18.204444-14.791111 32.995556-32.995555 32.995556z m470.129777 0a33.052444 33.052444 0 0 1-33.052444-33.052445v-112.64a33.052444 33.052444 0 1 1 66.104889 0v112.64c0 18.204444-14.791111 32.995556-33.052445 32.995556z" fill="#4A4A4A" p-id="5265"></path></svg>