<?xml version="1.0" encoding="UTF-8"?>
<svg width="24px" height="24px" viewBox="0 0 24 24" version="1.1" xmlns="http://www.w3.org/2000/svg" xmlns:xlink="http://www.w3.org/1999/xlink">
    <title>View</title>
    <g id="页面-1" stroke="none" stroke-width="1" fill="none" fill-rule="evenodd">
        <g id="icon" transform="translate(-412, -108)" fill="#FFFFFF">
            <g id="View" transform="translate(412, 108)">
                <rect id="矩形" opacity="0" x="0" y="0" width="24" height="24"></rect>
                <path d="M17.9058398,13.4535197 C20.1378527,13.4535197 21.8149316,14.6321404 22.8977893,16.9230842 C23.0328396,17.2079176 23.0328396,17.5344937 22.9002448,17.8168716 C21.8149316,20.10536 20.1378527,21.2864361 17.9058398,21.2864361 C15.673827,21.2864361 13.996748,20.1078154 12.9114349,17.819327 C12.77884,17.5369492 12.77884,17.2079176 12.9114349,16.9255397 C13.996748,14.6345958 15.673827,13.4535197 17.9058398,13.4535197 Z M17.9058398,15.0250139 C16.3809994,15.0250139 15.2662207,15.7616518 14.4411862,17.3699779 C15.2686761,18.978304 16.3809994,19.7149419 17.9058398,19.7149419 C19.4306803,19.7149419 20.545459,18.978304 21.3704934,17.3699779 C20.5430035,15.7616518 19.4306803,15.0250139 17.9058398,15.0250139 Z M17.9181171,16.0071978 C18.6775404,16.0071978 19.2931745,16.622832 19.2931745,17.3822552 C19.2931745,18.1416784 18.6775404,18.7573126 17.9181171,18.7573126 C17.1586939,18.7573126 16.5430597,18.1416784 16.5430597,17.3822552 C16.5430597,16.622832 17.1586939,16.0071978 17.9181171,16.0071978 Z M21.0365509,4 C21.4711673,4 21.822298,4.35113073 21.822298,4.78574709 L21.822298,11.9802439 L20.054367,11.9802439 L20.054367,5.76793096 L2.76793096,5.76793096 L2.76793096,16.5719535 L10.4289651,16.5719535 L10.4289651,18.3398845 L1.78574709,18.3398845 C1.35113073,18.3398845 1,17.9887537 1,17.5541374 L1,4.78574709 C1,4.35113073 1.35113073,4 1.78574709,4 Z M16.0470569,7.46956451 C16.1231761,7.39344526 16.2484046,7.39344526 16.3245238,7.46956451 L17.228133,8.37317367 C17.3067077,8.44929292 17.3067077,8.57452137 17.228133,8.65064062 L11.6714277,14.2122568 C11.5953085,14.288376 11.47008,14.288376 11.3939608,14.2122568 L9.27981001,12.0956505 L6.78015206,14.5953085 C6.70403281,14.6714277 6.57880437,14.6714277 6.50268512,14.5953085 L5.59907596,13.6916993 C5.52295671,13.6155801 5.52295671,13.4903516 5.59907596,13.4142324 L9.14230427,9.87100407 C9.21842352,9.79488482 9.34365196,9.79488482 9.41977121,9.87100407 L11.533922,11.9876103 Z" id="形状结合" fill-rule="nonzero"></path>
            </g>
        </g>
    </g>
</svg>