<svg xmlns="http://www.w3.org/2000/svg" xmlns:xlink="http://www.w3.org/1999/xlink" width="24" height="24" viewBox="0 0 24 24" fill="none">
<path d="M12 7.0791C10.0468 7.0791 8.21044 7.83974 6.82929 9.22089C5.44814 10.602 4.6875 12.4383 4.6875 14.3916C4.6875 14.8058 5.02329 15.1416 5.4375 15.1416C5.85171 15.1416 6.1875 14.8058 6.1875 14.3916C6.1875 12.839 6.79209 11.3794 7.88995 10.2815C8.98779 9.18369 10.4474 8.57908 12 8.57908C13.5526 8.57908 15.0122 9.18367 16.11 10.2815C17.2079 11.3794 17.8125 12.839 17.8125 14.3916C17.8125 14.8058 18.1483 15.1416 18.5625 15.1416C18.9767 15.1416 19.3125 14.8058 19.3125 14.3916C19.3125 12.4383 18.5519 10.602 17.1707 9.22087C15.7896 7.83972 13.9532 7.0791 12 7.0791Z"   fill="#C4C4C4" >
</path>
<path d="M12 3.70312C6.201 3.70312 1.5 8.40413 1.5 14.2031C1.5 16.3125 2.12215 18.2765 3.19275 19.9219L20.8073 19.9219C21.8779 18.2765 22.5 16.3125 22.5 14.2031C22.5 8.40413 17.799 3.70312 12 3.70312ZM19.9521 18.4219L4.04794 18.4219C3.3603 17.1284 3 15.685 3 14.2031C3 12.9875 3.23775 11.809 3.70664 10.7004C4.15985 9.62883 4.809 8.66618 5.63604 7.83916C6.46305 7.01213 7.4257 6.363 8.49724 5.90977C9.60586 5.44088 10.7843 5.20312 12 5.20312C13.2157 5.20312 14.3941 5.44088 15.5028 5.90977C16.5743 6.36298 17.5369 7.01213 18.364 7.83916C19.191 8.66618 19.8401 9.62883 20.2934 10.7004C20.7623 11.809 21 12.9875 21 14.2031C21 15.685 20.6397 17.1284 19.9521 18.4219Z"   fill="#C4C4C4" >
</path>
<path d="M12.4744 13.7452C12.4159 13.7452 12.3576 13.7479 12.2994 13.7534C12.2411 13.7588 12.1833 13.7669 12.1259 13.7778C12.0684 13.7887 12.0116 13.8022 11.9555 13.8184C11.8993 13.8346 11.844 13.8534 11.7896 13.8748L10.1704 12.2556C9.87745 11.9626 9.40259 11.9627 9.10969 12.2556C8.81679 12.5485 8.81679 13.0234 9.10969 13.3162L10.7289 14.9355C10.7075 14.9899 10.6888 15.0452 10.6725 15.1013C10.6564 15.1575 10.6428 15.2143 10.632 15.2718C10.6211 15.3292 10.6129 15.387 10.6075 15.4452C10.602 15.5034 10.5993 15.5618 10.5994 15.6203C10.5994 16.6558 11.4388 17.4953 12.4744 17.4953C13.5099 17.4953 14.3494 16.6558 14.3494 15.6203C14.3494 14.5847 13.5099 13.7452 12.4744 13.7452Z"   fill="#C4C4C4" >
</path>
</svg>
