<svg xmlns="http://www.w3.org/2000/svg" xmlns:xlink="http://www.w3.org/1999/xlink" width="24" height="24" viewBox="0 0 24 24" fill="none">
<path d="M22.6085 17.2623L20.029 11.7807L20.029 9.33069C20.029 4.90686 16.4302 1.30688 12.0051 1.30688C7.58004 1.30688 3.98133 4.90695 3.98133 9.33069L3.98133 11.7807L1.40145 17.2623C1.39251 17.2813 1.38417 17.3006 1.37643 17.3202C1.36869 17.3397 1.36158 17.3595 1.35509 17.3795C1.34859 17.3994 1.34273 17.4196 1.33751 17.4399C1.33228 17.4603 1.3277 17.4808 1.32377 17.5015C1.31983 17.5221 1.31655 17.5429 1.31392 17.5637C1.31129 17.5846 1.30931 17.6055 1.308 17.6265C1.30668 17.6474 1.30603 17.6684 1.30603 17.6894C1.30603 17.7104 1.3067 17.7314 1.30802 17.7524C1.30935 17.7734 1.31133 17.7943 1.31397 17.8151C1.31661 17.836 1.3199 17.8568 1.32384 17.8774C1.32778 17.898 1.33237 17.9185 1.3376 17.9389C1.34283 17.9592 1.3487 17.9794 1.3552 17.9994C1.3617 18.0194 1.36882 18.0391 1.37657 18.0587C1.38431 18.0782 1.39266 18.0975 1.40161 18.1165C1.41057 18.1355 1.42011 18.1542 1.43024 18.1726C1.44037 18.191 1.45107 18.2091 1.46234 18.2269C1.47361 18.2446 1.48542 18.262 1.49778 18.279C1.51015 18.296 1.52303 18.3125 1.53643 18.3287C1.54983 18.3449 1.56373 18.3607 1.57813 18.376C1.59252 18.3913 1.60738 18.4061 1.62271 18.4205C1.63803 18.4349 1.6538 18.4488 1.67 18.4622C1.6862 18.4756 1.7028 18.4884 1.71981 18.5008C1.73682 18.5131 1.7542 18.5249 1.77195 18.5361C1.7897 18.5474 1.80779 18.5581 1.82621 18.5682C1.84463 18.5783 1.86336 18.5878 1.88238 18.5968C1.9014 18.6057 1.92068 18.614 1.94023 18.6218C1.95977 18.6295 1.97954 18.6366 1.99953 18.6431C2.01952 18.6495 2.0397 18.6554 2.06006 18.6606C2.08042 18.6658 2.10092 18.6704 2.12157 18.6743C2.14221 18.6782 2.16296 18.6815 2.18381 18.6841C2.20466 18.6867 2.22558 18.6887 2.24655 18.69C2.26753 18.6913 2.28852 18.692 2.30954 18.692L7.01824 18.692C7.15861 20.2445 8.3074 22.7039 12.0051 22.7039C15.7027 22.7039 16.8514 20.2444 16.9919 18.6919L21.7004 18.6919C21.7215 18.6919 21.7425 18.6913 21.7634 18.69C21.7844 18.6887 21.8053 18.6867 21.8262 18.6841C21.847 18.6815 21.8678 18.6782 21.8884 18.6743C21.909 18.6703 21.9296 18.6658 21.9499 18.6606C21.9703 18.6553 21.9904 18.6495 22.0104 18.643C22.0304 18.6365 22.0502 18.6294 22.0698 18.6217C22.0893 18.614 22.1085 18.6057 22.1276 18.5967C22.1466 18.5878 22.1653 18.5783 22.1838 18.5681C22.2022 18.558 22.2202 18.5473 22.238 18.5361C22.2557 18.5248 22.2731 18.513 22.2901 18.5007C22.3071 18.4884 22.3237 18.4755 22.3399 18.4621C22.3561 18.4487 22.3719 18.4348 22.3872 18.4205C22.4025 18.4061 22.4174 18.3912 22.4318 18.3759C22.4462 18.3606 22.4601 18.3448 22.4735 18.3287C22.4869 18.3125 22.4998 18.2959 22.5121 18.2789C22.5245 18.2619 22.5363 18.2445 22.5476 18.2268C22.5588 18.209 22.5695 18.191 22.5796 18.1726C22.5898 18.1542 22.5993 18.1355 22.6083 18.1164C22.6172 18.0974 22.6256 18.0781 22.6333 18.0586C22.641 18.0391 22.6482 18.0193 22.6547 17.9993C22.6612 17.9793 22.667 17.9592 22.6723 17.9388C22.6775 17.9185 22.6821 17.898 22.686 17.8773C22.69 17.8567 22.6933 17.8359 22.6959 17.8151C22.6985 17.7943 22.7005 17.7733 22.7018 17.7524C22.7032 17.7314 22.7039 17.7104 22.7039 17.6894C22.7039 17.6684 22.7032 17.6474 22.7019 17.6264C22.7006 17.6054 22.6986 17.5845 22.696 17.5637C22.6933 17.5428 22.6901 17.5221 22.6861 17.5014C22.6822 17.4808 22.6776 17.4603 22.6724 17.4399C22.6671 17.4196 22.6613 17.3994 22.6548 17.3794C22.6483 17.3594 22.6412 17.3397 22.6334 17.3201C22.6257 17.3006 22.6174 17.2813 22.6084 17.2623L22.6085 17.2623ZM12.0051 20.6979C9.68346 20.6979 9.15658 19.3793 9.03748 18.6919L14.9725 18.6919C14.8521 19.3807 14.3266 20.6979 12.0051 20.6979ZM3.89013 16.6858L5.89214 12.4332C5.9078 12.3998 5.92158 12.3657 5.93348 12.3308C5.94537 12.2959 5.95533 12.2604 5.96334 12.2244C5.97131 12.1884 5.97731 12.1521 5.98132 12.1155C5.98528 12.0789 5.98725 12.0421 5.9872 12.0052L5.9872 9.33069C5.9872 6.01281 8.6872 3.31279 12.0051 3.31279C15.3243 3.31279 18.023 6.01281 18.023 9.33069L18.023 12.0053C18.023 12.0422 18.0249 12.0789 18.0289 12.1156C18.0329 12.1522 18.0389 12.1885 18.0469 12.2245C18.0548 12.2605 18.0648 12.296 18.0766 12.3309C18.0885 12.3658 18.1022 12.3999 18.1179 12.4333L20.1199 16.6858L3.89013 16.6858Z"   fill="#C4C4C4" >
</path>
</svg>
