<?xml version="1.0" encoding="UTF-8"?>
<svg width="24px" height="24px" viewBox="0 0 24 24" version="1.1" xmlns="http://www.w3.org/2000/svg" xmlns:xlink="http://www.w3.org/1999/xlink">
    <title>bell</title>
    <g id="页面-1" stroke="none" stroke-width="1" fill="none" fill-rule="evenodd">
        <g id="icon" transform="translate(-748, -108)" fill="#FFFFFF">
            <g id="bell" transform="translate(748, 108)">
                <rect id="矩形" opacity="0" x="0" y="0" width="24" height="24"></rect>
                <path d="M19.6904762,18.4 L19.0833333,18.4 L19.0833333,9.9 C19.0833333,6.3725 16.4447917,3.4575 13.0119048,2.9725 L13.0119048,2 C13.0119048,1.4475 12.5590774,1 12,1 C11.4409226,1 10.9880952,1.4475 10.9880952,2 L10.9880952,2.9725 C7.55520833,3.4575 4.91666667,6.3725 4.91666667,9.9 L4.91666667,18.4 L4.30952381,18.4 C3.86175595,18.4 3.5,18.7575 3.5,19.2 L3.5,20 C3.5,20.11 3.59107143,20.2 3.70238095,20.2 L9.16666667,20.2 C9.16666667,21.745 10.4366071,23 12,23 C13.5633929,23 14.8333333,21.745 14.8333333,20.2 L20.297619,20.2 C20.4089286,20.2 20.5,20.11 20.5,20 L20.5,19.2 C20.5,18.7575 20.138244,18.4 19.6904762,18.4 Z M12,21.4 C11.3296131,21.4 10.7857143,20.8625 10.7857143,20.2 L13.2142857,20.2 C13.2142857,20.8625 12.6703869,21.4 12,21.4 Z M6.73809524,18.4 L6.73809524,9.9 C6.73809524,8.51 7.28452381,7.205 8.27872024,6.2225 C9.27291667,5.24 10.5934524,4.7 12,4.7 C13.4065476,4.7 14.7270833,5.24 15.7212798,6.2225 C16.7154762,7.205 17.2619048,8.51 17.2619048,9.9 L17.2619048,18.4 L6.73809524,18.4 Z" id="形状" fill-rule="nonzero"></path>
            </g>
        </g>
    </g>
</svg>