<?xml version="1.0" encoding="UTF-8"?>
<svg width="24px" height="24px" viewBox="0 0 24 24" version="1.1" xmlns="http://www.w3.org/2000/svg" xmlns:xlink="http://www.w3.org/1999/xlink">
    <title>setting</title>
    <g id="页面-1" stroke="none" stroke-width="1" fill="none" fill-rule="evenodd">
        <g id="icon" transform="translate(-664, -108)" fill="#FFFFFF">
            <g id="setting" transform="translate(664, 108)">
                <rect id="矩形" opacity="0" x="0" y="0" width="24" height="24"></rect>
                <path d="M10.031673,1.17311234 C11.321608,0.942295887 12.678392,0.942295887 13.968327,1.17311234 L14.0351759,1.18538981 C14.3595166,1.24432167 14.6145325,1.49478207 14.6739537,1.81645181 L15.0626674,3.90362185 C15.958937,4.23756906 16.7883579,4.71393493 17.5311228,5.31798649 L19.5440157,4.60834868 C19.855977,4.50030694 20.2001248,4.59361572 20.4130507,4.84162063 L20.4576166,4.893186 C21.3192239,5.89993861 21.9827606,7.03928791 22.4308954,8.27931246 L22.4531784,8.34315531 C22.5645931,8.65254758 22.4729854,8.99631676 22.2229212,9.20748926 L20.6012178,10.582566 C20.6779702,11.0491099 20.7175843,11.5254758 20.7175843,12.0018416 C20.7175843,12.4782075 20.6779702,12.9545734 20.6012178,13.4211172 L22.2229212,14.796194 C22.4729854,15.009822 22.5645931,15.3535912 22.4531784,15.6556169 L22.4308954,15.7194598 C21.9827606,16.9570289 21.3192239,18.0963781 20.4576166,19.1055862 L20.4130507,19.1571516 C20.2001248,19.407612 19.8535011,19.4984653 19.5440157,19.3904236 L17.5311228,18.6807858 C16.7883579,19.2872928 15.958937,19.7612032 15.0626674,20.0951504 L14.6739537,22.1823204 C14.6145325,22.5039902 14.3595166,22.7544506 14.0351759,22.8133824 L13.968327,22.8256599 C13.3245974,22.9410681 12.6610608,23 12,23 C11.3389392,23 10.6778784,22.9410681 10.031673,22.8256599 L9.96482411,22.8133824 C9.64048343,22.7544506 9.38546747,22.5039902 9.32604628,22.1823204 L8.93485675,20.0853284 C8.04601472,19.7538367 7.22154566,19.2774708 6.4837325,18.6758748 L4.45598426,19.3904236 C4.14402299,19.4984653 3.79987524,19.4051565 3.5869493,19.1571516 L3.5423834,19.1055862 C2.68077609,18.0988336 2.01723943,16.9570289 1.56910459,15.7194598 L1.54682164,15.6556169 C1.4354069,15.3462247 1.52701458,15.0024555 1.77707877,14.791283 L3.41858925,13.4014733 C3.34183687,12.9422959 3.30469863,12.470841 3.30469863,11.9993861 C3.30469863,11.5303867 3.34183687,11.0589319 3.41858925,10.597299 L1.77707877,9.20748926 C1.52701458,8.99386126 1.4354069,8.65009208 1.54682164,8.34315531 L1.56910459,8.27931246 C2.01723943,7.0417434 2.68077609,5.90239411 3.5423834,4.893186 L3.5869493,4.84162063 C3.79987524,4.59116022 4.14649887,4.50030694 4.45598426,4.60834868 L6.4837325,5.32289748 C7.22154566,4.72130141 8.04601472,4.24739104 8.93485675,3.91344383 L9.32604628,1.81645181 C9.38546747,1.49478207 9.64048343,1.24432167 9.96482411,1.18538981 Z M13.0522503,2.8330264 C12.3540513,2.75445058 11.6434728,2.75445058 10.9477497,2.8330264 L10.5045666,5.21976673 L9.56620693,5.57090239 C8.86058026,5.83609576 8.20447124,6.21424187 7.61768695,6.69306323 L6.84025966,7.32903622 L4.52778487,6.51381215 C4.10688475,7.07612032 3.75283347,7.68017188 3.47305868,8.32105586 L5.3423504,9.9048496 L5.181418,10.8870473 C5.11952092,11.2529159 5.08981033,11.6286065 5.08981033,12.0042971 C5.08981033,12.3775322 5.12199681,12.7556783 5.181418,13.121547 L5.3423504,14.1037446 L3.47305868,15.6875384 C3.75530935,16.3259669 4.10688475,16.9324739 4.52778487,17.4947821 L6.84025966,16.679558 L7.61768695,17.315531 C8.20447124,17.7943524 8.86058026,18.1724985 9.56620693,18.4376918 L10.5020907,18.7937385 L10.9452738,21.1804788 C11.6434728,21.2590546 12.3540513,21.2590546 13.0497744,21.1804788 L13.4929575,18.7986495 L14.4362689,18.4475138 C15.1493233,18.1823204 15.8079082,17.8041743 16.3996442,17.3228975 L17.1770715,16.68938 L19.474691,17.4972376 C19.8955911,16.9349294 20.2496424,16.3308778 20.5294172,15.6899939 L18.6799325,14.1209331 L18.8433408,13.1362799 C18.9052379,12.7655003 18.9374244,12.3848987 18.9374244,12.0042971 C18.9374244,11.6236955 18.9052379,11.2430939 18.8433408,10.8723143 L18.6824084,9.89257213 L20.5318931,8.32351136 C20.2496424,7.68508287 19.898067,7.07857581 19.4771669,6.51626765 L17.1795474,7.32412523 L16.4021201,6.69060773 C15.8103841,6.20933088 15.1493233,5.83118478 14.4387448,5.56599141 L13.4954334,5.21485574 Z M12.0024759,7.43707796 C14.4090342,7.43707796 16.3600301,9.37200737 16.3600301,11.7587477 C16.3600301,14.145488 14.4090342,16.0804174 12.0024759,16.0804174 C9.59591753,16.0804174 7.64492166,14.145488 7.64492166,11.7587477 C7.64492166,9.37200737 9.59591753,7.43707796 12.0024759,7.43707796 Z M12.0024759,9.00859423 C11.2621868,9.00859423 10.5664637,9.29343155 10.0415765,9.81399632 C9.51916516,10.3345611 9.22948684,11.0245549 9.22948684,11.7587477 C9.22948684,12.4929405 9.51916516,13.1829343 10.0415765,13.7034991 C10.5664637,14.2216083 11.2621868,14.5089012 12.0024759,14.5089012 C12.7427649,14.5089012 13.4384881,14.2216083 13.9633753,13.7034991 C14.4857866,13.1829343 14.7754649,12.4929405 14.7754649,11.7587477 C14.7754649,11.0245549 14.4857866,10.3345611 13.9633753,9.81399632 C13.4384881,9.29343155 12.7427649,9.00859423 12.0024759,9.00859423 Z" id="形状结合" fill-rule="nonzero"></path>
            </g>
        </g>
    </g>
</svg>