<svg xmlns="http://www.w3.org/2000/svg" xmlns:xlink="http://www.w3.org/1999/xlink" width="24" height="24" viewBox="0 0 24 24" fill="none">
<path d="M21.675 14.6649L20.1398 13.3524C20.2125 12.9071 20.25 12.4524 20.25 11.9978C20.25 11.5431 20.2125 11.0884 20.1398 10.6431L21.675 9.33057C21.9117 9.129 21.9984 8.80088 21.8929 8.50557L21.8718 8.44463C21.4476 7.26103 20.8195 6.17354 20.0039 5.2126L19.9617 5.16338C19.7601 4.92666 19.4343 4.8376 19.139 4.94072L17.2336 5.61807C16.5304 5.0415 15.7453 4.58682 14.8968 4.26807L14.5289 2.27588C14.4726 1.96885 14.2312 1.72979 13.9242 1.67354L13.8609 1.66182C12.6398 1.4415 11.3554 1.4415 10.1343 1.66182L10.0711 1.67354C9.76402 1.72979 9.52262 1.96885 9.46637 2.27588L9.09605 4.27744C8.25465 4.59619 7.47418 5.04854 6.77574 5.62275L4.85621 4.94072C4.56324 4.8376 4.23512 4.92432 4.03356 5.16338L3.99137 5.2126C3.17574 6.17588 2.54762 7.26338 2.1234 8.44463L2.10231 8.50557C1.99684 8.79854 2.08356 9.12666 2.32027 9.33057L3.87418 10.6571C3.80152 11.0978 3.76637 11.5478 3.76637 11.9954C3.76637 12.4454 3.80152 12.8954 3.87418 13.3337L2.32027 14.6603C2.08356 14.8618 1.99684 15.1899 2.10231 15.4853L2.1234 15.5462C2.54762 16.7274 3.17574 17.8173 3.99137 18.7782L4.03356 18.8274C4.23512 19.0642 4.5609 19.1532 4.85621 19.0501L6.77574 18.3681C7.47418 18.9423 8.25465 19.397 9.09605 19.7134L9.46637 21.7149C9.52262 22.022 9.76402 22.261 10.0711 22.3173L10.1343 22.329C10.7461 22.4392 11.3718 22.4954 11.9976 22.4954C12.6234 22.4954 13.2515 22.4392 13.8609 22.329L13.9242 22.3173C14.2312 22.261 14.4726 22.022 14.5289 21.7149L14.8968 19.7228C15.7453 19.404 16.5304 18.9517 17.2336 18.3728L19.139 19.0501C19.432 19.1532 19.7601 19.0665 19.9617 18.8274L20.0039 18.7782C20.8195 17.8149 21.4476 16.7274 21.8718 15.5462L21.8929 15.4853C21.9984 15.197 21.9117 14.8688 21.675 14.6649ZM18.4757 10.9196C18.5343 11.2735 18.5648 11.6368 18.5648 12.0001C18.5648 12.3634 18.5343 12.7267 18.4757 13.0806L18.3211 14.0204L20.0718 15.5181C19.807 16.1298 19.4718 16.7063 19.0734 17.2431L16.8984 16.472L16.1625 17.0767C15.6023 17.536 14.9789 17.897 14.3039 18.1501L13.4109 18.4853L12.9914 20.7587C12.3328 20.8337 11.6601 20.8337 10.9992 20.7587L10.5796 18.4806L9.69371 18.1407C9.02574 17.8876 8.40465 17.5267 7.84918 17.0696L7.11324 16.4626L4.92418 17.2407C4.52574 16.704 4.19293 16.1251 3.92574 15.5157L5.69527 14.004L5.54293 13.0665C5.48668 12.7173 5.45621 12.3563 5.45621 12.0001C5.45621 11.6415 5.48433 11.2829 5.54293 10.9337L5.69527 9.99619L3.92574 8.48447C4.19059 7.87275 4.52574 7.29619 4.92418 6.75947L7.11324 7.5376L7.84918 6.93057C8.40465 6.47354 9.02574 6.1126 9.69371 5.85947L10.582 5.52432L11.0015 3.24619C11.6601 3.17119 12.3328 3.17119 12.9937 3.24619L13.4132 5.51963L14.3062 5.85478C14.9789 6.10791 15.6046 6.46885 16.1648 6.92822L16.9007 7.53291L19.0757 6.76182C19.4742 7.29854 19.807 7.87744 20.0742 8.48682L18.3234 9.98447L18.4757 10.9196ZM12 7.64072C9.72184 7.64072 7.87496 9.4876 7.87496 11.7657C7.87496 14.0438 9.72184 15.8907 12 15.8907C14.2781 15.8907 16.125 14.0438 16.125 11.7657C16.125 9.4876 14.2781 7.64072 12 7.64072ZM13.8562 13.622C13.3593 14.1165 12.7007 14.3907 12 14.3907C11.2992 14.3907 10.6406 14.1165 10.1437 13.622C9.64918 13.1251 9.37496 12.4665 9.37496 11.7657C9.37496 11.0649 9.64918 10.4063 10.1437 9.90947C10.6406 9.4126 11.2992 9.14072 12 9.14072C12.7007 9.14072 13.3593 9.4126 13.8562 9.90947C14.3507 10.4063 14.625 11.0649 14.625 11.7657C14.625 12.4665 14.3507 13.1251 13.8562 13.622Z"   fill="#2A82E4" >
</path>
</svg>
