<?xml version="1.0" standalone="no"?><!DOCTYPE svg PUBLIC "-//W3C//DTD SVG 1.1//EN" "http://www.w3.org/Graphics/SVG/1.1/DTD/svg11.dtd"><svg t="1764228840686" class="icon" viewBox="0 0 1024 1024" version="1.1" xmlns="http://www.w3.org/2000/svg" p-id="1623" xmlns:xlink="http://www.w3.org/1999/xlink" width="200" height="200"><path d="M804.571429 73.142857H219.428571c-80.457143 0-146.285714 65.828571-146.285714 146.285714v585.142858c0 80.457143 65.828571 146.285714 146.285714 146.285714h585.142858c80.457143 0 146.285714-65.828571 146.285714-146.285714V219.428571c0-80.457143-65.828571-146.285714-146.285714-146.285714z m73.142857 731.428572c0 40.228571-32.914286 73.142857-73.142857 73.142857H219.428571c-40.228571 0-73.142857-32.914286-73.142857-73.142857V219.428571c0-40.228571 32.914286-73.142857 73.142857-73.142857h585.142858c40.228571 0 73.142857 32.914286 73.142857 73.142857v585.142858z m-512-73.142858h292.571428V658.285714H365.714286v73.142857zM219.428571 658.285714h73.142858V585.142857H219.428571v73.142857z m0-365.714285v73.142857h73.142858V292.571429H219.428571z m146.285715 219.428571H292.571429v73.142857h73.142857V512zM292.571429 365.714286v73.142857h73.142857V365.714286H292.571429z m146.285714 73.142857H365.714286v73.142857h73.142857V438.857143z" fill="#ffffff" p-id="1624"></path></svg>
