<?xml version="1.0" standalone="no"?><!DOCTYPE svg PUBLIC "-//W3C//DTD SVG 1.1//EN" "http://www.w3.org/Graphics/SVG/1.1/DTD/svg11.dtd"><svg t="1767839721260" class="icon" viewBox="0 0 1024 1024" version="1.1" xmlns="http://www.w3.org/2000/svg" p-id="31692" width="128" height="128" xmlns:xlink="http://www.w3.org/1999/xlink"><path d="M877.714286 54.867809H754.325713V9.101969A9.158857 9.158857 0 0 0 745.166856 0h-63.998222a9.158857 9.158857 0 0 0-9.158856 9.130413V54.896253H498.332824V9.101969A9.158857 9.158857 0 0 0 489.173967 0h-63.998222a9.158857 9.158857 0 0 0-9.158857 9.130413V54.896253h-123.445459c-20.194995 0-36.550096 16.326658-36.550096 36.550096v137.155301H146.314158c-20.223438 0-36.578539 16.326658-36.57854 36.550096v722.269715c0 20.223438 16.355101 36.578539 36.57854 36.578539h585.142857c20.194995 0 36.550096-16.355101 36.550096-36.578539v-109.707175h109.707175c20.251882 0 36.578539-16.326658 36.578539-36.57854V91.417905c0-20.194995-16.326658-36.550096-36.578539-36.550096z m-191.994667 886.816255H192.02311V310.889142h249.166413v198.821144c0 25.286409 20.422544 45.737396 45.680508 45.737396h198.849588v386.264826z m0-459.421905h-171.401461V310.889142h0.227549l171.173912 171.173912v0.227549z m146.285714 313.164635h-63.998222V447.987556l-219.41435-219.41435h-210.283936V137.098414h77.708063v36.578539c0 5.034527 4.12433 9.158857 9.158857 9.158857h63.998222a9.158857 9.158857 0 0 0 9.130413-9.158857V137.126858h173.705398v36.578539c0 5.034527 4.12433 9.158857 9.158856 9.158857h63.998222a9.158857 9.158857 0 0 0 9.130414-9.158857V137.126858h77.708063v658.271492z" fill="#ffffff" fill-opacity=".65" p-id="31693"></path></svg>