<?xml version="1.0" standalone="no"?><!DOCTYPE svg PUBLIC "-//W3C//DTD SVG 1.1//EN" "http://www.w3.org/Graphics/SVG/1.1/DTD/svg11.dtd"><svg t="1770127025583" class="icon" viewBox="0 0 1024 1024" version="1.1" xmlns="http://www.w3.org/2000/svg" p-id="16988" width="128" height="128" xmlns:xlink="http://www.w3.org/1999/xlink"><path d="M928.3 726H534.5c-18.6 0-33.7 15.1-33.7 33.7v50.8H199.7V353.9h-67.5v490.4c0 18.5 15.2 33.2 33.8 33.2h334.8v50.9c0 18.6 15.1 33.7 33.7 33.7h393.8c18.6 0 33.7-15.1 33.7-33.7V759.7c0-18.6-15.1-33.7-33.7-33.7z m-33.8 168.6H568.2V793.4h326.3v101.2z" p-id="16989" fill="#ffffff"></path><path d="M928.3 399.2H534.5c-18.6 0-33.7 15.1-33.7 33.7v47.5H387.6V353.9h-67.5v160.2c0 18.5 15.2 33.7 33.7 33.7h146.9v53.7c0 18.6 15.1 33.7 33.7 33.7h393.8c18.6 0 33.7-15.1 33.7-33.7V432.9c0.1-18.6-15-33.7-33.6-33.7z m-33.8 168.5H568.2V466.6h326.3v101.1zM928.3 62H534.5c-18.6 0-33.7 15.1-33.7 33.7v63.8h-33.9v67.4h33.9v37.4c0 18.6 15.1 33.7 33.7 33.7h393.8c18.6 0 33.7-15.1 33.7-33.7V95.7c0-18.6-15.1-33.7-33.7-33.7z m-33.8 168.6H568.2V129.4h326.3v101.2zM410.7 264.3V95.7c0-18.6-15.1-33.7-33.7-33.7H95.7C77.1 62 62 77.1 62 95.7v168.6c0 18.6 15.1 33.7 33.7 33.7H377c18.6 0 33.7-15.1 33.7-33.7z" p-id="16990" fill="#ffffff"></path></svg>