<?xml version="1.0" encoding="UTF-8"?>
<svg width="24px" height="24px" viewBox="0 0 24 24" version="1.1" xmlns="http://www.w3.org/2000/svg" xmlns:xlink="http://www.w3.org/1999/xlink">
    <title>user</title>
    <g id="页面-1" stroke="none" stroke-width="1" fill="none" fill-rule="evenodd">
        <g id="icon" transform="translate(-580, -108)">
            <g id="user" transform="translate(580, 108)">
                <rect id="矩形" fill="#FFFFFF" opacity="0" x="0" y="0" width="24" height="24"></rect>
                <rect id="矩形" stroke="#FFFFFF" stroke-width="1.5" x="1.75" y="1.75" width="20.5" height="20.5" rx="10.25"></rect>
                <path d="M18.4507295,17.241206 C18.0988715,16.3969849 17.5924939,15.6394472 16.9502135,14.9893216 C16.307933,14.339196 15.5595367,13.8285176 14.725503,13.4704774 C14.7180563,13.4667085 14.7106096,13.4648241 14.7031628,13.4610553 C15.862991,12.6130653 16.6169723,11.2317839 16.6169723,9.67336683 C16.6169723,7.09170854 14.5505049,5 12,5 C9.44949513,5 7.38302768,7.09170854 7.38302768,9.67336683 C7.38302768,11.2317839 8.13700905,12.6130653 9.29683717,13.4629397 C9.28939044,13.4667085 9.28194372,13.468593 9.27449699,13.4723618 C8.44046328,13.8285176 7.69206696,14.339196 7.04978653,14.991206 C6.40750611,15.6413317 5.90299018,16.3988693 5.54927053,17.2430905 C5.20299761,18.0684673 5.01869105,18.9447236 5.00003636,19.8454774 C4.99821254,19.9302764 5.06523311,20 5.14900882,20 L6.26601825,20 C6.34793227,20 6.41309116,19.9340452 6.41495284,19.8530151 C6.45218649,18.3982412 7.02930803,17.035804 8.04950998,16.0031407 C9.10508389,14.9346734 10.5069307,14.3467337 12,14.3467337 C13.4930693,14.3467337 14.8949161,14.9346734 15.95049,16.0031407 C16.970692,17.035804 17.5478135,18.3982412 17.5850472,19.8530151 C17.5869088,19.9359296 17.6520677,20 17.7339818,20 L18.8509912,20 C18.9347669,20 19.0017875,19.9302764 18.9999636,19.8454774 C18.981309,18.9447236 18.7970024,18.0684673 18.4507295,17.241206 Z M12,12.9145729 C11.1454878,12.9145729 10.341241,12.5772613 9.73619422,11.9648241 C9.13114744,11.3523869 8.79790629,10.5383166 8.79790629,9.67336683 C8.79790629,8.80841709 9.13114744,7.99434673 9.73619422,7.38190955 C10.341241,6.76947236 11.1454878,6.4321608 12,6.4321608 C12.8545122,6.4321608 13.658759,6.76947236 14.2638058,7.38190955 C14.8688526,7.99434673 15.2020937,8.80841709 15.2020937,9.67336683 C15.2020937,10.5383166 14.8688526,11.3523869 14.2638058,11.9648241 C13.658759,12.5772613 12.8545122,12.9145729 12,12.9145729 Z" id="形状" fill="#FFFFFF" fill-rule="nonzero"></path>
            </g>
        </g>
    </g>
</svg>