<svg xmlns="http://www.w3.org/2000/svg" xmlns:xlink="http://www.w3.org/1999/xlink" width="24" height="24" viewBox="0 0 24 24" fill="none">
<path d="M12 1.75C6.34998 1.75 1.75 6.34998 1.75 12C1.75 17.65 6.34998 22.25 12 22.25C17.65 22.25 22.25 17.65 22.25 12C22.25 6.34998 17.65 1.75 12 1.75ZM6.74999 19C6.74999 16.1 9.1 13.75 12 13.75C14.9 13.75 17.25 16.1 17.25 19C15.8 20.1 13.95 20.75 12 20.75C10.05 20.75 8.2 20.1 6.74999 19ZM9.74999 10C9.74999 8.74998 10.75 7.75 12 7.75C13.25 7.75 14.25 8.74998 14.25 10C14.25 11.25 13.25 12.25 12 12.25C10.75 12.25 9.74999 11.25 9.74999 10ZM18.6 17.7C18.15 15.45 16.6 13.6 14.5 12.75C15.25 12.05 15.7 11.1 15.7 10C15.7 7.94999 14 6.25 11.95 6.25C9.89999 6.25 8.2 7.94999 8.2 10C8.2 11.1 8.65 12.05 9.4 12.75C7.3 13.6 5.74998 15.45 5.29998 17.7C4.00001 16.15 3.15 14.2 3.15 12C3.15 7.19999 7.09998 3.25001 11.9 3.25001C16.7 3.25001 20.75 7.19999 20.75 12C20.75 14.2 19.95 16.15 18.6 17.7Z"   fill="#C4C4C4" >
</path>
</svg>
