<svg xmlns="http://www.w3.org/2000/svg" xmlns:xlink="http://www.w3.org/1999/xlink" width="28" height="28" viewBox="0 0 28 28" fill="none">
<path d="M1.75 9.57602C1.75 6.83727 1.75 5.46702 2.28375 4.42052C2.40067 4.19177 2.53474 3.97357 2.68598 3.76591C2.83722 3.55824 3.00376 3.36368 3.1856 3.18221C3.36744 3.00075 3.56234 2.8346 3.77031 2.68379C3.97828 2.53298 4.19676 2.39935 4.42575 2.2829C5.474 1.74915 6.846 1.74915 9.59 1.74915L18.41 1.74915C21.154 1.74915 22.526 1.74915 23.5742 2.2829C23.8032 2.39935 24.0217 2.53298 24.2297 2.68379C24.4377 2.8346 24.6326 3.00075 24.8144 3.18221C24.9962 3.36368 25.1627 3.55824 25.314 3.76591C25.4653 3.97357 25.5993 4.19177 25.7162 4.42052C26.25 5.46702 26.25 6.8364 26.25 9.57602L26.25 18.3803C26.25 21.119 26.25 22.4893 25.7162 23.5358C25.5993 23.7645 25.4653 23.9827 25.314 24.1904C25.1627 24.398 24.9962 24.5926 24.8144 24.7741C24.6326 24.9555 24.4377 25.1217 24.2297 25.2725C24.0217 25.4233 23.8032 25.5569 23.5742 25.6734C22.526 26.2071 21.154 26.2071 18.41 26.2071L9.59 26.2071C6.846 26.2071 5.474 26.2071 4.42575 25.6734C4.19676 25.5569 3.97828 25.4233 3.77031 25.2725C3.56234 25.1217 3.36744 24.9555 3.1856 24.7741C3.00376 24.5926 2.83722 24.398 2.68598 24.1904C2.53474 23.9827 2.40067 23.7645 2.28375 23.5358C1.75 22.4893 1.75 21.1199 1.75 18.3803L1.75 9.57602Z"   fill="#A6A6A6" >
</path>
<path d="M14.4899 14.8067C14.4899 14.6194 14.6422 14.4681 14.8294 14.4681L18.8999 14.4681C18.972 14.468 19.0441 14.4697 19.1161 14.4732C19.1881 14.4766 19.26 14.4819 19.3318 14.4889C19.4035 14.496 19.4751 14.5047 19.5464 14.5152C19.6177 14.5257 19.6888 14.538 19.7595 14.552C19.8302 14.566 19.9005 14.5817 19.9705 14.5992C20.0404 14.6166 20.1099 14.6358 20.1789 14.6567C20.248 14.6776 20.3164 14.7001 20.3843 14.7244C20.4522 14.7486 20.5195 14.7744 20.5861 14.802C20.6527 14.8295 20.7186 14.8587 20.7838 14.8895C20.849 14.9202 20.9135 14.9526 20.9771 14.9865C21.0407 15.0204 21.1035 15.0559 21.1653 15.0929C21.2272 15.1299 21.2882 15.1684 21.3481 15.2084C21.408 15.2484 21.467 15.2899 21.525 15.3327C21.583 15.3756 21.6398 15.4199 21.6956 15.4656C21.7514 15.5112 21.806 15.5583 21.8595 15.6067C21.9129 15.6551 21.9652 15.7047 22.0163 15.7556C22.0673 15.8066 22.117 15.8587 22.1654 15.9121C22.2139 15.9655 22.2611 16.02 22.3068 16.0756C22.3526 16.1314 22.3971 16.1881 22.4401 16.246C22.4831 16.3038 22.5246 16.3627 22.5648 16.4226C22.6049 16.4826 22.6435 16.5434 22.6806 16.6052C22.7177 16.667 22.7534 16.7297 22.7874 16.7932C22.8214 16.8568 22.854 16.9211 22.8849 16.9862C22.9158 17.0514 22.945 17.1172 22.9727 17.1838C23.0004 17.2504 23.0264 17.3177 23.0507 17.3855C23.0751 17.4533 23.0978 17.5217 23.1188 17.5907C23.1398 17.6597 23.1591 17.7291 23.1767 17.799C23.1943 17.8689 23.2102 17.9393 23.2243 18.01C23.2385 18.0807 23.2509 18.1516 23.2615 18.223C23.2721 18.2943 23.2811 18.3658 23.2882 18.4375C23.2953 18.5093 23.3008 18.5812 23.3043 18.6532C23.308 18.7252 23.3099 18.7972 23.3099 18.8693C23.3099 21.3018 21.3359 23.2723 18.8999 23.2723C16.4639 23.2723 14.4899 21.3009 14.4899 18.8702L14.4899 14.8067ZM14.4899 13.1503C14.4899 13.3376 14.6422 13.4889 14.8294 13.4889L18.8999 13.4889C18.972 13.489 19.0441 13.4873 19.1161 13.4838C19.1881 13.4804 19.26 13.4751 19.3318 13.4681C19.4035 13.461 19.4751 13.4523 19.5464 13.4418C19.6177 13.4313 19.6888 13.419 19.7595 13.405C19.8302 13.391 19.9005 13.3753 19.9705 13.3578C20.0404 13.3403 20.1099 13.3212 20.1789 13.3003C20.248 13.2794 20.3164 13.2569 20.3843 13.2327C20.4522 13.2084 20.5195 13.1826 20.5861 13.155C20.6527 13.1275 20.7186 13.0983 20.7838 13.0675C20.849 13.0368 20.9135 13.0045 20.9771 12.9705C21.0407 12.9366 21.1035 12.9011 21.1653 12.8641C21.2272 12.8271 21.2882 12.7886 21.3481 12.7486C21.408 12.7086 21.467 12.6672 21.525 12.6243C21.583 12.5814 21.6398 12.5371 21.6956 12.4914C21.7514 12.4458 21.806 12.3987 21.8595 12.3503C21.9129 12.3019 21.9652 12.2523 22.0163 12.2014C22.0673 12.1505 22.117 12.0983 22.1654 12.0449C22.2139 11.9916 22.2611 11.937 22.3068 11.8814C22.3526 11.8257 22.3971 11.7689 22.4401 11.711C22.4831 11.6532 22.5246 11.5943 22.5648 11.5344C22.6049 11.4745 22.6435 11.4136 22.6806 11.3518C22.7177 11.29 22.7534 11.2273 22.7874 11.1638C22.8214 11.1003 22.854 11.0359 22.8849 10.9708C22.9158 10.9056 22.945 10.8398 22.9727 10.7732C23.0004 10.7066 23.0264 10.6394 23.0507 10.5715C23.0751 10.5037 23.0978 10.4353 23.1188 10.3663C23.1398 10.2973 23.1591 10.2279 23.1767 10.158C23.1943 10.0881 23.2102 10.0177 23.2243 9.94703C23.2385 9.87633 23.2509 9.80534 23.2615 9.73405C23.2721 9.66272 23.2811 9.59119 23.2882 9.5195C23.2953 9.44775 23.3008 9.37586 23.3043 9.30382C23.308 9.23183 23.3099 9.15979 23.3099 9.08769C23.3099 6.65519 21.3359 4.68469 18.8999 4.68469C16.4639 4.68469 14.4899 6.65607 14.4899 9.08682L14.4899 13.1503ZM13.5099 14.8067C13.5098 14.7845 13.5074 14.7625 13.5029 14.7407C13.4985 14.7189 13.492 14.6978 13.4834 14.6773C13.4748 14.6568 13.4643 14.6374 13.4519 14.6189C13.4395 14.6005 13.4254 14.5834 13.4097 14.5677C13.394 14.5521 13.3769 14.538 13.3584 14.5256C13.3399 14.5133 13.3204 14.5028 13.2999 14.4943C13.2794 14.4857 13.2582 14.4793 13.2364 14.4749C13.2147 14.4704 13.1927 14.4682 13.1704 14.4681L9.09994 14.4681C9.02784 14.468 8.9558 14.4697 8.88382 14.4732C8.81178 14.4766 8.73988 14.4819 8.66812 14.4889C8.59636 14.496 8.52482 14.5047 8.4535 14.5152C8.38217 14.5257 8.31115 14.538 8.24042 14.552C8.16969 14.566 8.09936 14.5817 8.0294 14.5992C7.95946 14.6166 7.88997 14.6358 7.82096 14.6567C7.75195 14.6776 7.6835 14.7001 7.61559 14.7244C7.54768 14.7486 7.48041 14.7744 7.41378 14.802C7.34715 14.8295 7.28123 14.8587 7.21603 14.8895C7.15083 14.9202 7.08642 14.9526 7.0228 14.9865C6.95918 15.0204 6.89644 15.0559 6.83457 15.0929C6.77269 15.1299 6.71176 15.1684 6.65178 15.2084C6.5918 15.2484 6.53282 15.2899 6.47487 15.3327C6.41692 15.3756 6.36006 15.4199 6.30428 15.4656C6.24851 15.5112 6.19389 15.5583 6.14042 15.6067C6.08695 15.6551 6.0347 15.7047 5.98366 15.7556C5.93263 15.8066 5.88288 15.8587 5.83441 15.9121C5.78595 15.9655 5.73881 16.02 5.69302 16.0756C5.64722 16.1314 5.60282 16.1881 5.55981 16.246C5.5168 16.3038 5.47524 16.3627 5.43513 16.4226C5.39501 16.4826 5.35638 16.5434 5.31925 16.6052C5.28212 16.667 5.24653 16.7297 5.21247 16.7932C5.17842 16.8568 5.14594 16.9211 5.11504 16.9862C5.08415 17.0514 5.05487 17.1172 5.02721 17.1838C4.99954 17.2504 4.97353 17.3177 4.94917 17.3855C4.9248 17.4533 4.90212 17.5217 4.88111 17.5907C4.86011 17.6597 4.8408 17.7291 4.8232 17.799C4.80561 17.8689 4.78974 17.9393 4.7756 18.01C4.76145 18.0807 4.74904 18.1516 4.73838 18.223C4.72772 18.2943 4.71881 18.3658 4.71166 18.4375C4.70451 18.5093 4.69913 18.5812 4.69551 18.6532C4.69188 18.7252 4.69003 18.7972 4.68994 18.8693C4.69 18.9414 4.69183 19.0135 4.69542 19.0855C4.69902 19.1575 4.70438 19.2295 4.7115 19.3012C4.71863 19.373 4.72751 19.4445 4.73815 19.5159C4.74879 19.5872 4.76117 19.6582 4.7753 19.7289C4.78942 19.7996 4.80527 19.87 4.82284 19.9399C4.84043 20.0098 4.85971 20.0793 4.8807 20.1483C4.90169 20.2173 4.92436 20.2858 4.94871 20.3536C4.97305 20.4215 4.99905 20.4888 5.0267 20.5554C5.05435 20.6219 5.08362 20.6878 5.11451 20.753C5.1454 20.8182 5.17786 20.8825 5.21191 20.9461C5.24595 21.0097 5.28153 21.0724 5.31866 21.1343C5.35578 21.196 5.3944 21.2569 5.43451 21.3169C5.47463 21.3768 5.51619 21.4357 5.55919 21.4936C5.6022 21.5515 5.6466 21.6082 5.69239 21.664C5.73818 21.7197 5.78532 21.7742 5.83379 21.8276C5.88226 21.8811 5.93201 21.9332 5.98305 21.9841C6.03408 22.0352 6.08634 22.0848 6.13981 22.1332C6.19328 22.1815 6.24791 22.2286 6.3037 22.2743C6.35948 22.3201 6.41634 22.3643 6.4743 22.4072C6.53226 22.4502 6.59124 22.4916 6.65123 22.5316C6.71123 22.5716 6.77216 22.6102 6.83405 22.6472C6.89594 22.6842 6.95869 22.7198 7.02232 22.7536C7.08595 22.7876 7.15037 22.8199 7.21558 22.8507C7.2808 22.8815 7.34673 22.9107 7.41338 22.9382C7.48003 22.9658 7.54731 22.9917 7.61523 23.0159C7.68315 23.0402 7.75162 23.0627 7.82065 23.0836C7.88968 23.1045 7.95918 23.1237 8.02914 23.1412C8.09912 23.1586 8.16947 23.1743 8.24021 23.1883C8.31095 23.2023 8.382 23.2146 8.45333 23.2252C8.52468 23.2357 8.59624 23.2444 8.66801 23.2514C8.73978 23.2585 8.81169 23.2637 8.88373 23.2672C8.95577 23.2707 9.02784 23.2724 9.09994 23.2723C9.17204 23.2724 9.24411 23.2707 9.31615 23.2672C9.38814 23.2637 9.46003 23.2585 9.53184 23.2514C9.60359 23.2444 9.67514 23.2357 9.74648 23.2252C9.81782 23.2147 9.88884 23.2024 9.95954 23.1883C10.0303 23.1743 10.1007 23.1586 10.1706 23.1412C10.2405 23.1237 10.31 23.1045 10.3791 23.0837C10.4481 23.0628 10.5166 23.0402 10.5845 23.0159C10.6524 22.9917 10.7197 22.9659 10.7863 22.9383C10.8529 22.9108 10.9189 22.8816 10.9841 22.8508C11.0493 22.8201 11.1137 22.7877 11.1773 22.7538C11.2409 22.7198 11.3037 22.6844 11.3656 22.6474C11.4275 22.6104 11.4884 22.5718 11.5484 22.5318C11.6084 22.4918 11.6674 22.4503 11.7253 22.4075C11.7833 22.3645 11.8402 22.3202 11.8959 22.2746C11.9517 22.2289 12.0063 22.1818 12.0598 22.1334C12.1132 22.085 12.1655 22.0354 12.2165 21.9845C12.2676 21.9335 12.3173 21.8813 12.3658 21.828C12.4143 21.7746 12.4614 21.7201 12.5072 21.6643C12.553 21.6086 12.5974 21.5518 12.6404 21.494C12.6834 21.4361 12.7249 21.3772 12.7651 21.3173C12.8052 21.2574 12.8438 21.1966 12.8809 21.1347C12.9181 21.0728 12.9536 21.0102 12.9877 20.9467C13.0217 20.883 13.0542 20.8187 13.0851 20.7535C13.116 20.6884 13.1452 20.6226 13.1729 20.556C13.2006 20.4894 13.2266 20.4221 13.2509 20.3543C13.2753 20.2864 13.298 20.218 13.319 20.149C13.34 20.08 13.3592 20.0105 13.3769 19.9406C13.3944 19.8707 13.4103 19.8004 13.4245 19.7297C13.4386 19.6589 13.451 19.588 13.4616 19.5166C13.4722 19.4453 13.4812 19.3738 13.4883 19.302C13.4954 19.2303 13.5008 19.1584 13.5044 19.0864C13.508 19.0144 13.5099 18.9423 13.5099 18.8702L13.5099 14.8067ZM13.5099 13.1503C13.5098 13.1725 13.5074 13.1945 13.5029 13.2163C13.4985 13.2381 13.492 13.2592 13.4834 13.2797C13.4748 13.3002 13.4643 13.3197 13.4519 13.3381C13.4395 13.3565 13.4254 13.3736 13.4097 13.3893C13.394 13.405 13.3769 13.419 13.3584 13.4314C13.3399 13.4437 13.3204 13.4542 13.2999 13.4627C13.2794 13.4713 13.2582 13.4777 13.2364 13.4821C13.2147 13.4866 13.1927 13.4889 13.1704 13.4889L9.09994 13.4889C9.02784 13.489 8.9558 13.4873 8.88382 13.4838C8.81178 13.4804 8.73988 13.4751 8.66812 13.4681C8.59636 13.461 8.52482 13.4523 8.4535 13.4418C8.38217 13.4313 8.31115 13.419 8.24042 13.405C8.16969 13.391 8.09936 13.3753 8.0294 13.3578C7.95946 13.3403 7.88997 13.3212 7.82096 13.3003C7.75195 13.2794 7.6835 13.2569 7.61559 13.2327C7.54768 13.2084 7.48041 13.1826 7.41378 13.155C7.34715 13.1275 7.28123 13.0983 7.21602 13.0675C7.15083 13.0368 7.08642 13.0045 7.0228 12.9705C6.95918 12.9366 6.89644 12.9011 6.83457 12.8641C6.77269 12.8271 6.71176 12.7886 6.65178 12.7486C6.5918 12.7086 6.53282 12.6672 6.47487 12.6243C6.41692 12.5814 6.36006 12.5371 6.30428 12.4914C6.24851 12.4458 6.19389 12.3987 6.14042 12.3503C6.08695 12.3019 6.0347 12.2523 5.98366 12.2014C5.93263 12.1505 5.88288 12.0983 5.83441 12.0449C5.78594 11.9916 5.7388 11.937 5.69302 11.8814C5.64722 11.8257 5.60282 11.7689 5.55981 11.711C5.5168 11.6532 5.47524 11.5943 5.43512 11.5344C5.395 11.4745 5.35638 11.4136 5.31925 11.3518C5.28212 11.29 5.24653 11.2273 5.21247 11.1638C5.17842 11.1003 5.14594 11.0359 5.11504 10.9708C5.08415 10.9056 5.05487 10.8398 5.02721 10.7732C4.99954 10.7066 4.97353 10.6394 4.94917 10.5715C4.9248 10.5037 4.90212 10.4353 4.88111 10.3663C4.86011 10.2973 4.8408 10.2279 4.8232 10.158C4.80561 10.0881 4.78974 10.0177 4.7756 9.94703C4.76145 9.87633 4.74904 9.80534 4.73838 9.73405C4.72772 9.66272 4.71881 9.59119 4.71166 9.5195C4.70451 9.44775 4.69913 9.37586 4.69551 9.30382C4.69188 9.23183 4.69003 9.15979 4.68994 9.08769C4.69 9.01559 4.69183 8.94352 4.69542 8.87148C4.69902 8.79944 4.70438 8.72754 4.7115 8.6558C4.71863 8.58404 4.72751 8.51249 4.73815 8.44116C4.74879 8.36984 4.76117 8.29882 4.7753 8.22809C4.78942 8.15737 4.80527 8.08704 4.82284 8.0171C4.84043 7.94716 4.85971 7.87771 4.8807 7.8087C4.90169 7.73971 4.92436 7.67128 4.94871 7.60339C4.97305 7.53551 4.99905 7.46827 5.0267 7.40166C5.05435 7.33506 5.08362 7.26917 5.11451 7.20401C5.1454 7.13884 5.17786 7.07447 5.21191 7.0109C5.24595 6.94733 5.28153 6.88463 5.31866 6.8228C5.35578 6.76097 5.3944 6.70009 5.43451 6.64016C5.47463 6.58023 5.51619 6.52133 5.55919 6.46344C5.6022 6.40555 5.6466 6.34875 5.69239 6.29304C5.73818 6.23733 5.78532 6.18277 5.83379 6.12938C5.88226 6.07598 5.93201 6.0238 5.98305 5.97285C6.03408 5.9219 6.08634 5.87223 6.13981 5.82385C6.19328 5.77546 6.24791 5.72841 6.3037 5.6827C6.35948 5.637 6.41634 5.59269 6.4743 5.54978C6.53226 5.50686 6.59124 5.4654 6.65123 5.42538C6.71123 5.38536 6.77216 5.34684 6.83405 5.30981C6.89594 5.27279 6.95869 5.2373 7.02232 5.20336C7.08595 5.16941 7.15037 5.13705 7.21558 5.10627C7.2808 5.07549 7.34673 5.04632 7.41338 5.01878C7.48003 4.99123 7.54731 4.96534 7.61523 4.9411C7.68315 4.91686 7.75162 4.8943 7.82065 4.87342C7.88968 4.85254 7.95918 4.83337 8.02914 4.8159C8.09912 4.79844 8.16947 4.7827 8.24021 4.76868C8.31095 4.75467 8.382 4.7424 8.45333 4.73187C8.52468 4.72135 8.59624 4.71258 8.66801 4.70557C8.73978 4.69856 8.81169 4.69331 8.88373 4.68983C8.95577 4.68635 9.02784 4.68464 9.09994 4.68469C9.17204 4.68464 9.24411 4.68635 9.31615 4.68983C9.38814 4.69331 9.46003 4.69856 9.53184 4.70556C9.60359 4.71257 9.67514 4.72134 9.74648 4.73186C9.81782 4.74238 9.88884 4.75465 9.95954 4.76866C10.0303 4.78267 10.1007 4.79841 10.1706 4.81586C10.2405 4.83333 10.31 4.8525 10.3791 4.87337C10.4481 4.89425 10.5166 4.9168 10.5845 4.94103C10.6524 4.96527 10.7197 4.99116 10.7863 5.0187C10.8529 5.04623 10.9189 5.07539 10.9841 5.10616C11.0493 5.13694 11.1137 5.1693 11.1773 5.20323C11.2409 5.23717 11.3037 5.27264 11.3656 5.30965C11.4275 5.34667 11.4884 5.38519 11.5484 5.4252C11.6084 5.4652 11.6674 5.50666 11.7253 5.54956C11.7833 5.59246 11.8402 5.63676 11.8959 5.68246C11.9517 5.72816 12.0063 5.77519 12.0598 5.82357C12.1132 5.87194 12.1655 5.9216 12.2165 5.97254C12.2676 6.02349 12.3173 6.07564 12.3658 6.12903C12.4143 6.18241 12.4614 6.23696 12.5072 6.29265C12.553 6.34835 12.5974 6.40513 12.6404 6.46302C12.6834 6.5209 12.7249 6.57979 12.7651 6.6397C12.8052 6.69963 12.8438 6.76049 12.8809 6.8223C12.9181 6.88412 12.9536 6.9468 12.9877 7.01036C13.0217 7.07392 13.0542 7.13828 13.0851 7.20344C13.116 7.26859 13.1452 7.33447 13.1729 7.40106C13.2006 7.46766 13.2266 7.53488 13.2509 7.60275C13.2753 7.67062 13.298 7.73905 13.319 7.80802C13.34 7.87701 13.3592 7.94646 13.3769 8.01639C13.3944 8.08632 13.4103 8.15664 13.4245 8.22734C13.4386 8.29805 13.451 8.36906 13.4616 8.44038C13.4722 8.5117 13.4812 8.58323 13.4883 8.65498C13.4954 8.72675 13.5008 8.79862 13.5044 8.8706C13.508 8.94264 13.5099 9.01472 13.5099 9.08682L13.5099 13.1503Z"   fill="#FFFFFF" >
</path>
</svg>
