<svg xmlns="http://www.w3.org/2000/svg" xmlns:xlink="http://www.w3.org/1999/xlink" width="28" height="28" viewBox="0 0 28 28" fill="none">
<path d="M1.75 9.5759C1.75 6.83715 1.75 5.4669 2.28375 4.4204C2.40067 4.19165 2.53474 3.97345 2.68598 3.76578C2.83722 3.55812 3.00376 3.36356 3.1856 3.18209C3.36744 3.00062 3.56234 2.83448 3.77031 2.68366C3.97828 2.53285 4.19676 2.39922 4.42575 2.28277C5.474 1.74902 6.846 1.74902 9.59 1.74902L18.41 1.74902C21.154 1.74902 22.526 1.74902 23.5742 2.28277C23.8032 2.39922 24.0217 2.53285 24.2297 2.68366C24.4377 2.83448 24.6326 3.00062 24.8144 3.18209C24.9962 3.36356 25.1627 3.55812 25.314 3.76578C25.4653 3.97345 25.5993 4.19165 25.7162 4.4204C26.25 5.4669 26.25 6.83627 26.25 9.5759L26.25 18.3801C26.25 21.1189 26.25 22.4891 25.7162 23.5356C25.5993 23.7644 25.4653 23.9826 25.314 24.1902C25.1627 24.3979 24.9962 24.5925 24.8144 24.7739C24.6326 24.9554 24.4377 25.1216 24.2297 25.2723C24.0217 25.4232 23.8032 25.5568 23.5742 25.6733C22.526 26.207 21.154 26.207 18.41 26.207L9.59 26.207C6.846 26.207 5.474 26.207 4.42575 25.6733C4.19676 25.5568 3.97828 25.4232 3.77031 25.2723C3.56234 25.1216 3.36744 24.9554 3.1856 24.7739C3.00376 24.5925 2.83722 24.3979 2.68598 24.1902C2.53474 23.9826 2.40067 23.7644 2.28375 23.5356C1.75 22.4891 1.75 21.1198 1.75 18.3801L1.75 9.5759Z"   fill="#0366D6" >
</path>
<path d="M14.4899 14.8066C14.4899 14.6193 14.6422 14.4679 14.8294 14.4679L18.8999 14.4679C18.972 14.4679 19.0441 14.4696 19.1161 14.4731C19.1881 14.4765 19.26 14.4818 19.3318 14.4888C19.4035 14.4959 19.4751 14.5046 19.5464 14.5151C19.6177 14.5256 19.6888 14.5379 19.7595 14.5519C19.8302 14.5659 19.9005 14.5816 19.9705 14.5991C20.0404 14.6165 20.1099 14.6357 20.1789 14.6566C20.248 14.6775 20.3164 14.7 20.3843 14.7242C20.4522 14.7485 20.5195 14.7743 20.5861 14.8018C20.6527 14.8294 20.7186 14.8585 20.7838 14.8893C20.849 14.9201 20.9135 14.9524 20.9771 14.9864C21.0407 15.0202 21.1035 15.0558 21.1653 15.0928C21.2272 15.1298 21.2882 15.1683 21.3481 15.2083C21.408 15.2483 21.467 15.2897 21.525 15.3326C21.583 15.3755 21.6398 15.4198 21.6956 15.4654C21.7514 15.5111 21.806 15.5582 21.8595 15.6066C21.9129 15.655 21.9652 15.7046 22.0163 15.7555C22.0673 15.8064 22.117 15.8586 22.1654 15.912C22.2139 15.9653 22.2611 16.0198 22.3068 16.0755C22.3526 16.1312 22.3971 16.188 22.4401 16.2459C22.4831 16.3037 22.5246 16.3626 22.5648 16.4225C22.6049 16.4825 22.6435 16.5433 22.6806 16.605C22.7177 16.6669 22.7534 16.7296 22.7874 16.7931C22.8214 16.8567 22.854 16.921 22.8849 16.9861C22.9158 17.0513 22.945 17.1171 22.9727 17.1837C23.0004 17.2503 23.0264 17.3176 23.0507 17.3854C23.0751 17.4532 23.0978 17.5216 23.1188 17.5906C23.1398 17.6596 23.1591 17.729 23.1767 17.7989C23.1943 17.8688 23.2102 17.9392 23.2243 18.0099C23.2385 18.0806 23.2509 18.1515 23.2615 18.2228C23.2721 18.2941 23.2811 18.3657 23.2882 18.4374C23.2953 18.5091 23.3008 18.5811 23.3043 18.6531C23.308 18.7251 23.3099 18.7971 23.3099 18.8692C23.3099 21.3017 21.3359 23.2722 18.8999 23.2722C16.4639 23.2722 14.4899 21.3008 14.4899 18.8701L14.4899 14.8066ZM14.4899 13.1502C14.4899 13.3374 14.6422 13.4888 14.8294 13.4888L18.8999 13.4888C18.972 13.4889 19.0441 13.4872 19.1161 13.4837C19.1881 13.4802 19.26 13.475 19.3318 13.468C19.4035 13.4609 19.4751 13.4522 19.5464 13.4417C19.6177 13.4312 19.6888 13.4189 19.7595 13.4049C19.8302 13.3909 19.9005 13.3752 19.9705 13.3577C20.0404 13.3402 20.1099 13.3211 20.1789 13.3002C20.248 13.2793 20.3164 13.2567 20.3843 13.2325C20.4522 13.2083 20.5195 13.1825 20.5861 13.1549C20.6527 13.1274 20.7186 13.0982 20.7838 13.0674C20.849 13.0367 20.9135 13.0043 20.9771 12.9704C21.0407 12.9365 21.1035 12.901 21.1653 12.864C21.2272 12.827 21.2882 12.7885 21.3481 12.7485C21.408 12.7085 21.467 12.6671 21.525 12.6241C21.583 12.5813 21.6398 12.537 21.6956 12.4913C21.7514 12.4456 21.806 12.3986 21.8595 12.3502C21.9129 12.3018 21.9652 12.2522 22.0163 12.2013C22.0673 12.1503 22.117 12.0982 22.1654 12.0448C22.2139 11.9914 22.2611 11.9369 22.3068 11.8813C22.3526 11.8256 22.3971 11.7688 22.4401 11.7109C22.4831 11.653 22.5246 11.5942 22.5648 11.5342C22.6049 11.4743 22.6435 11.4135 22.6806 11.3517C22.7177 11.2899 22.7534 11.2272 22.7874 11.1637C22.8214 11.1002 22.854 11.0358 22.8849 10.9707C22.9158 10.9055 22.945 10.8396 22.9727 10.7731C23.0004 10.7065 23.0264 10.6392 23.0507 10.5714C23.0751 10.5036 23.0978 10.4352 23.1188 10.3662C23.1398 10.2972 23.1591 10.2278 23.1767 10.1579C23.1943 10.0879 23.2102 10.0176 23.2243 9.94691C23.2385 9.87621 23.2509 9.80522 23.2615 9.73393C23.2721 9.66259 23.2811 9.59107 23.2882 9.51938C23.2953 9.44763 23.3008 9.37573 23.3043 9.30369C23.308 9.23171 23.3099 9.15967 23.3099 9.08757C23.3099 6.65507 21.3359 4.68457 18.8999 4.68457C16.4639 4.68457 14.4899 6.65595 14.4899 9.08669L14.4899 13.1502ZM13.5099 14.8066C13.5098 14.7843 13.5074 14.7624 13.5029 14.7406C13.4985 14.7188 13.492 14.6977 13.4834 14.6772C13.4748 14.6567 13.4643 14.6373 13.4519 14.6188C13.4395 14.6003 13.4254 14.5833 13.4097 14.5676C13.394 14.5519 13.3769 14.5379 13.3584 14.5255C13.3399 14.5132 13.3204 14.5027 13.2999 14.4942C13.2794 14.4856 13.2582 14.4791 13.2364 14.4748C13.2147 14.4703 13.1927 14.468 13.1704 14.4679L9.09994 14.4679C9.02784 14.4679 8.9558 14.4696 8.88382 14.4731C8.81178 14.4765 8.73988 14.4818 8.66812 14.4888C8.59636 14.4959 8.52482 14.5046 8.4535 14.5151C8.38217 14.5256 8.31115 14.5379 8.24042 14.5519C8.16969 14.5659 8.09936 14.5816 8.0294 14.5991C7.95946 14.6165 7.88997 14.6357 7.82096 14.6566C7.75195 14.6775 7.6835 14.7 7.61559 14.7242C7.54768 14.7485 7.48041 14.7743 7.41378 14.8018C7.34715 14.8294 7.28123 14.8585 7.21603 14.8893C7.15083 14.9201 7.08642 14.9524 7.0228 14.9864C6.95918 15.0202 6.89644 15.0558 6.83457 15.0928C6.77269 15.1298 6.71176 15.1683 6.65178 15.2083C6.5918 15.2483 6.53282 15.2897 6.47487 15.3326C6.41692 15.3755 6.36006 15.4198 6.30428 15.4654C6.24851 15.5111 6.19389 15.5582 6.14042 15.6066C6.08695 15.655 6.0347 15.7046 5.98366 15.7555C5.93263 15.8064 5.88288 15.8586 5.83441 15.912C5.78595 15.9653 5.73881 16.0198 5.69302 16.0755C5.64722 16.1312 5.60282 16.188 5.55981 16.2459C5.5168 16.3037 5.47524 16.3626 5.43513 16.4225C5.39501 16.4825 5.35638 16.5433 5.31925 16.605C5.28212 16.6669 5.24653 16.7296 5.21247 16.7931C5.17842 16.8567 5.14594 16.921 5.11504 16.9861C5.08415 17.0513 5.05487 17.1171 5.02721 17.1837C4.99954 17.2503 4.97353 17.3176 4.94917 17.3854C4.9248 17.4532 4.90212 17.5216 4.88111 17.5906C4.86011 17.6596 4.8408 17.729 4.8232 17.7989C4.80561 17.8688 4.78974 17.9392 4.7756 18.0099C4.76145 18.0806 4.74904 18.1515 4.73838 18.2228C4.72772 18.2941 4.71881 18.3657 4.71166 18.4374C4.70451 18.5091 4.69913 18.5811 4.69551 18.6531C4.69188 18.7251 4.69003 18.7971 4.68994 18.8692C4.69 18.9413 4.69183 19.0134 4.69542 19.0854C4.69902 19.1574 4.70438 19.2293 4.7115 19.3011C4.71863 19.3728 4.72751 19.4444 4.73815 19.5157C4.74879 19.587 4.76117 19.6581 4.7753 19.7288C4.78942 19.7995 4.80527 19.8698 4.82284 19.9398C4.84043 20.0097 4.85971 20.0791 4.8807 20.1482C4.90169 20.2172 4.92436 20.2856 4.94871 20.3535C4.97305 20.4214 4.99905 20.4886 5.0267 20.5552C5.05435 20.6218 5.08362 20.6877 5.11451 20.7529C5.1454 20.8181 5.17786 20.8824 5.21191 20.946C5.24595 21.0096 5.28153 21.0723 5.31866 21.1341C5.35578 21.1959 5.3944 21.2568 5.43451 21.3167C5.47463 21.3767 5.51619 21.4356 5.55919 21.4935C5.6022 21.5513 5.6466 21.6081 5.69239 21.6639C5.73818 21.7196 5.78532 21.7741 5.83379 21.8275C5.88226 21.8809 5.93201 21.9331 5.98305 21.984C6.03408 22.035 6.08634 22.0846 6.13981 22.133C6.19328 22.1814 6.24791 22.2285 6.3037 22.2742C6.35948 22.3199 6.41634 22.3642 6.4743 22.4071C6.53226 22.45 6.59124 22.4915 6.65123 22.5315C6.71123 22.5715 6.77216 22.6101 6.83405 22.6471C6.89594 22.6841 6.95869 22.7196 7.02232 22.7535C7.08595 22.7874 7.15037 22.8198 7.21558 22.8506C7.2808 22.8814 7.34673 22.9106 7.41338 22.9381C7.48003 22.9657 7.54731 22.9916 7.61523 23.0158C7.68315 23.0401 7.75162 23.0625 7.82065 23.0835C7.88968 23.1044 7.95918 23.1235 8.02914 23.141C8.09912 23.1584 8.16947 23.1742 8.24021 23.1882C8.31095 23.2022 8.382 23.2144 8.45333 23.225C8.52468 23.2355 8.59624 23.2443 8.66801 23.2513C8.73978 23.2584 8.81169 23.2636 8.88373 23.267C8.95577 23.2705 9.02784 23.2723 9.09994 23.2722C9.17204 23.2723 9.24411 23.2705 9.31615 23.267C9.38814 23.2636 9.46003 23.2584 9.53184 23.2513C9.60359 23.2443 9.67514 23.2355 9.74648 23.225C9.81782 23.2145 9.88884 23.2023 9.95954 23.1882C10.0303 23.1742 10.1007 23.1584 10.1706 23.141C10.2405 23.1235 10.31 23.1044 10.3791 23.0835C10.4481 23.0626 10.5166 23.0401 10.5845 23.0158C10.6524 22.9916 10.7197 22.9658 10.7863 22.9382C10.8529 22.9106 10.9189 22.8815 10.9841 22.8507C11.0493 22.82 11.1137 22.7876 11.1773 22.7537C11.2409 22.7197 11.3037 22.6843 11.3656 22.6473C11.4275 22.6103 11.4884 22.5717 11.5484 22.5317C11.6084 22.4917 11.6674 22.4502 11.7253 22.4073C11.7833 22.3644 11.8402 22.3201 11.8959 22.2744C11.9517 22.2288 12.0063 22.1817 12.0598 22.1333C12.1132 22.0849 12.1655 22.0353 12.2165 21.9844C12.2676 21.9334 12.3173 21.8812 12.3658 21.8278C12.4143 21.7745 12.4614 21.7199 12.5072 21.6642C12.553 21.6085 12.5974 21.5517 12.6404 21.4938C12.6834 21.436 12.7249 21.3771 12.7651 21.3172C12.8052 21.2572 12.8438 21.1964 12.8809 21.1346C12.9181 21.0727 12.9536 21.0101 12.9877 20.9465C13.0217 20.8829 13.0542 20.8186 13.0851 20.7534C13.116 20.6882 13.1452 20.6224 13.1729 20.5558C13.2006 20.4893 13.2266 20.422 13.2509 20.3542C13.2753 20.2863 13.298 20.2178 13.319 20.1489C13.34 20.0798 13.3592 20.0104 13.3769 19.9405C13.3944 19.8705 13.4103 19.8003 13.4245 19.7296C13.4386 19.6588 13.451 19.5878 13.4616 19.5165C13.4722 19.4452 13.4812 19.3736 13.4883 19.3019C13.4954 19.2301 13.5008 19.1583 13.5044 19.0863C13.508 19.0143 13.5099 18.9422 13.5099 18.8701L13.5099 14.8066ZM13.5099 13.1502C13.5098 13.1724 13.5074 13.1944 13.5029 13.2162C13.4985 13.2379 13.492 13.2591 13.4834 13.2796C13.4748 13.3001 13.4643 13.3195 13.4519 13.338C13.4395 13.3564 13.4254 13.3735 13.4097 13.3892C13.394 13.4048 13.3769 13.4189 13.3584 13.4312C13.3399 13.4436 13.3204 13.4541 13.2999 13.4626C13.2794 13.4711 13.2582 13.4776 13.2364 13.482C13.2147 13.4865 13.1927 13.4887 13.1704 13.4888L9.09994 13.4888C9.02784 13.4889 8.9558 13.4872 8.88382 13.4837C8.81178 13.4802 8.73988 13.475 8.66812 13.468C8.59636 13.4609 8.52482 13.4522 8.4535 13.4417C8.38217 13.4312 8.31115 13.4189 8.24042 13.4049C8.16969 13.3909 8.09936 13.3752 8.0294 13.3577C7.95946 13.3402 7.88997 13.3211 7.82096 13.3002C7.75195 13.2793 7.6835 13.2567 7.61559 13.2325C7.54768 13.2083 7.48041 13.1825 7.41378 13.1549C7.34715 13.1274 7.28123 13.0982 7.21602 13.0674C7.15083 13.0367 7.08642 13.0043 7.0228 12.9704C6.95918 12.9365 6.89644 12.901 6.83457 12.864C6.77269 12.827 6.71176 12.7885 6.65178 12.7485C6.5918 12.7085 6.53282 12.6671 6.47487 12.6241C6.41692 12.5813 6.36006 12.537 6.30428 12.4913C6.24851 12.4456 6.19389 12.3986 6.14042 12.3502C6.08695 12.3018 6.0347 12.2522 5.98366 12.2013C5.93263 12.1503 5.88288 12.0982 5.83441 12.0448C5.78594 11.9914 5.7388 11.9369 5.69302 11.8813C5.64722 11.8256 5.60282 11.7688 5.55981 11.7109C5.5168 11.653 5.47524 11.5942 5.43512 11.5342C5.395 11.4743 5.35638 11.4135 5.31925 11.3517C5.28212 11.2899 5.24653 11.2272 5.21247 11.1637C5.17842 11.1002 5.14594 11.0358 5.11504 10.9707C5.08415 10.9055 5.05487 10.8396 5.02721 10.7731C4.99954 10.7065 4.97353 10.6392 4.94917 10.5714C4.9248 10.5036 4.90212 10.4352 4.88111 10.3662C4.86011 10.2972 4.8408 10.2278 4.8232 10.1579C4.80561 10.0879 4.78974 10.0176 4.7756 9.94691C4.76145 9.87621 4.74904 9.80522 4.73838 9.73393C4.72772 9.66259 4.71881 9.59107 4.71166 9.51938C4.70451 9.44763 4.69913 9.37573 4.69551 9.30369C4.69188 9.23171 4.69003 9.15967 4.68994 9.08757C4.69 9.01547 4.69183 8.9434 4.69542 8.87136C4.69902 8.79932 4.70438 8.72742 4.7115 8.65568C4.71863 8.58392 4.72751 8.51237 4.73815 8.44104C4.74879 8.36972 4.76117 8.2987 4.7753 8.22797C4.78942 8.15725 4.80527 8.08692 4.82284 8.01698C4.84043 7.94704 4.85971 7.87759 4.8807 7.80858C4.90169 7.73959 4.92436 7.67115 4.94871 7.60327C4.97305 7.53539 4.99905 7.46815 5.0267 7.40154C5.05435 7.33494 5.08362 7.26905 5.11451 7.20389C5.1454 7.13872 5.17786 7.07434 5.21191 7.01078C5.24595 6.94721 5.28153 6.8845 5.31866 6.82268C5.35578 6.76085 5.3944 6.69997 5.43451 6.64004C5.47463 6.58011 5.51619 6.5212 5.55919 6.46331C5.6022 6.40542 5.6466 6.34863 5.69239 6.29292C5.73818 6.23721 5.78532 6.18265 5.83379 6.12926C5.88226 6.07586 5.93201 6.02368 5.98305 5.97273C6.03408 5.92178 6.08634 5.87211 6.13981 5.82372C6.19328 5.77534 6.24791 5.72829 6.3037 5.68258C6.35948 5.63688 6.41634 5.59257 6.4743 5.54966C6.53226 5.50674 6.59124 5.46528 6.65123 5.42526C6.71123 5.38524 6.77216 5.34672 6.83405 5.30969C6.89594 5.27267 6.95869 5.23718 7.02232 5.20324C7.08595 5.16929 7.15037 5.13693 7.21558 5.10615C7.2808 5.07536 7.34673 5.0462 7.41338 5.01865C7.48003 4.99111 7.54731 4.96522 7.61523 4.94098C7.68315 4.91674 7.75162 4.89418 7.82065 4.8733C7.88968 4.85242 7.95918 4.83325 8.02914 4.81578C8.09912 4.79831 8.16947 4.78257 8.24021 4.76856C8.31095 4.75455 8.382 4.74227 8.45333 4.73175C8.52468 4.72123 8.59624 4.71246 8.66801 4.70545C8.73978 4.69844 8.81169 4.69319 8.88373 4.68971C8.95577 4.68622 9.02784 4.68451 9.09994 4.68457C9.17204 4.68451 9.24411 4.68622 9.31615 4.68971C9.38814 4.69319 9.46003 4.69843 9.53184 4.70544C9.60359 4.71245 9.67514 4.72122 9.74648 4.73174C9.81782 4.74226 9.88884 4.75452 9.95954 4.76854C10.0303 4.78255 10.1007 4.79828 10.1706 4.81574C10.2405 4.83321 10.31 4.85238 10.3791 4.87325C10.4481 4.89412 10.5166 4.91668 10.5845 4.94091C10.6524 4.96515 10.7197 4.99104 10.7863 5.01858C10.8529 5.04611 10.9189 5.07526 10.9841 5.10604C11.0493 5.13682 11.1137 5.16917 11.1773 5.2031C11.2409 5.23704 11.3037 5.27252 11.3656 5.30953C11.4275 5.34655 11.4884 5.38506 11.5484 5.42508C11.6084 5.46508 11.6674 5.50653 11.7253 5.54944C11.7833 5.59234 11.8402 5.63664 11.8959 5.68233C11.9517 5.72803 12.0063 5.77507 12.0598 5.82344C12.1132 5.87182 12.1655 5.92148 12.2165 5.97242C12.2676 6.02336 12.3173 6.07552 12.3658 6.12891C12.4143 6.18229 12.4614 6.23684 12.5072 6.29253C12.553 6.34823 12.5974 6.40501 12.6404 6.46289C12.6834 6.52078 12.7249 6.57967 12.7651 6.63958C12.8052 6.6995 12.8438 6.76037 12.8809 6.82218C12.9181 6.884 12.9536 6.94668 12.9877 7.01024C13.0217 7.0738 13.0542 7.13816 13.0851 7.20332C13.116 7.26847 13.1452 7.33435 13.1729 7.40094C13.2006 7.46753 13.2266 7.53476 13.2509 7.60262C13.2753 7.6705 13.298 7.73892 13.319 7.8079C13.34 7.87689 13.3592 7.94633 13.3769 8.01626C13.3944 8.08619 13.4103 8.15652 13.4245 8.22722C13.4386 8.29793 13.451 8.36894 13.4616 8.44025C13.4722 8.51157 13.4812 8.58311 13.4883 8.65486C13.4954 8.72662 13.5008 8.7985 13.5044 8.87048C13.508 8.94252 13.5099 9.0146 13.5099 9.08669L13.5099 13.1502Z"   fill="#FFFFFF" >
</path>
</svg>
